<mxfile host="app.diagrams.net" agent="Mozilla/5.0 (Windows NT 10.0; Win64; x64) AppleWebKit/537.36 (KHTML, like Gecko) Chrome/132.0.0.0 Safari/537.36 Edg/132.0.0.0" version="25.0.3" pages="2">
  <diagram id="COtzZf2na_2TtAvjQ67v" name="Study-Design">
    <mxGraphModel dx="1042" dy="613" grid="1" gridSize="10" guides="1" tooltips="1" connect="1" arrows="1" fold="1" page="1" pageScale="1" pageWidth="827" pageHeight="1169" math="0" shadow="0">
      <root>
        <mxCell id="0" />
        <mxCell id="1" parent="0" />
        <mxCell id="8fTbJQ_2yBlo6duqBfsQ-14" style="edgeStyle=orthogonalEdgeStyle;rounded=0;orthogonalLoop=1;jettySize=auto;html=1;entryX=0;entryY=0.5;entryDx=0;entryDy=0;" parent="1" source="8fTbJQ_2yBlo6duqBfsQ-4" target="8fTbJQ_2yBlo6duqBfsQ-7" edge="1">
          <mxGeometry relative="1" as="geometry" />
        </mxCell>
        <mxCell id="8fTbJQ_2yBlo6duqBfsQ-4" value="Control-Experiment" style="rounded=1;whiteSpace=wrap;html=1;fillColor=#d5e8d4;strokeColor=#82b366;" parent="1" vertex="1">
          <mxGeometry x="160" y="280" width="180" height="60" as="geometry" />
        </mxCell>
        <mxCell id="bLVMJbGT63YaUlhqeuVf-1" value="" style="shape=image;verticalLabelPosition=bottom;labelBackgroundColor=default;verticalAlign=top;aspect=fixed;imageAspect=0;image=data:image/png,iVBORw0KGgoAAAANSUhEUgAAAgAAAAIACAYAAAD0eNT6AAAAAXNSR0IArs4c6QAAIABJREFUeAHtnQncfed0738ZiQoNQUgqCElEuNRwldu6bs1KUnMNqasoSTQVY1VJjaGoIQ1pc03hGm9VzZWBckUQKUEzESQRVIKIJGRoz+Lsf97/+Z/nfc85z7P2ftZ+vvvzeT/nnOfdz7PX+q6111p7erbEAgEIQAACEIAABCAAAQhAAAIQgAAEIAABCEAAAhCAAAQgAAEIQAACEIAABCAAAQhAAAIQgAAEIAABCEAAAhCAAAQgAAEIQAACEIAABCAAAQhAAAIQgAAEIAABCEAAAhCAAAQgAAEIQAACEIAABCAAAQhAAAIQgAAEIAABCEAAAhCAAAQgAAEIQAACEIAABCAAAQhAAAIQgAAEIAABCEAAAhCAAAQgAAEIQAACEIAABCAAAQhAAAIQgAAEIAABCEAAAhCAAAQgAAEIQAACEIAABCAAAQhAAAIQgAAEIAABCEAAAhCAAAQgAIEABLaWdDNJ95F0sKS/knS4pKMkvXP6Z9+tzf5n69i6u0vaKoB+iAgBCEAAAhCAgKSdJO0/+XydpFMkXSrpP1f8u0TSl6dj7TcdG8gQgAAEIAABCFRC4MaSniHpi5KuWDHZL1Ik2NhfkHSopF0q0R0xIAABCEAAAk0R2FbSIyV91DnppwoDKwZs24+QtE1T5FEWAhCAAAQgMACB7SUdIOl0xyP9VNJPtZ8t6ZDJfQTXHIAHm4QABCAAAQiMmoAdZT9V0rkVJf7ZguC7kp4syW48ZIEABCAAAQhAIJPAHSR9vuLEP1sInCzpv2fqTHcIQAACEIBAswSuLenIyeN5VwZK/l0xYPcIHCHpN5q1HopDAAIQgAAEViBwa0mnBkz8XQHQfZ4m6XYr6E8XCEAAAhCAQHME7Ca/n48g+XdFgM1FYDcJskAAAhCAAAQgMIeA3Txnp/y7xDm2zzdwg+Acq9MEAQhAAAJNE7DH+9494uTfFTP/yOOCTfs5ykMAAhCAwBoCdrPfsQ0k/64I+KQk05kFAhCAAAQg0CwBO/L/eEPJvysCjpd0jWatjuIQgAAEINA0Abvm/54Gk39XBHyAaYSb9n+UhwAEINAsgTHf8Ncl+Y0+X9+s9VEcAhCAAASaJGBT5m6UHFv5//9u0gNQGgIQgAAEmiOw78ie888tVGyegP/WnBegMAQgAAEINEXApsb9Bkf/W5z9sLcb7tiUJ6AsBCAAAQg0RYDr/ulLHzZREAsEIAABCEBgdATuJMlekpN7ynys/e2lR3cZndVRCAIQgAAEmiawjaQvVZD87Xq7vWTIJuP5p+mffbe2yyqQ7ySmC256P0F5CEAAAqMj8NSBkusvJjfY2fP2fypprw2Sq81LsLekp0wLA+s7xNmGJ43O+igEAQhAAAJNErAZ787tOZmeI+lQSdfLIH796Rjn9Sz7dyTZDIksEIAABCAAgdAE+nzm/6eS/rxwArUC5hmTYuCiHguBPwltcYSHAAQgAIHmCWwr6ayeEucnJN3EkfiuPb606EymCXa0JENDAAIQgIA7gUf2kPyvmmzjhRtc3y+lqN0n8KIedLJ7Dx5WSmjGgQAEIAABCPRN4GPOydIeKxzidLndqOf9SOOH+zYW24MABCAAAQiUIHAjSZc7FgB25P/EEoKuOIYVAZ5PCRi7XVaUjW4QgAAEIACBwQjYjXOeCdJO+w+9vMRZR7uhkQUCEIAABCAQisAXHZOj3fBn1+OHXmyCo+Mc9TxxaAXZPgQgAAEIQGAZAjs5XiO3R/087/ZfRk9bd7fJY4I/cyoC7DLAdZcViPUhAAEIQAACQxHY3ykh2iWFGk+LP8tR3wcNZUS2CwEIQAACEFiWwOudEqLN8FfjLHk2WZDXjIF/uyx81ocABCAAAQgMReAUpwLg6UMptMB2n+mk88kLbJtVIAABCEAAAoMTsJvzLnFIhvZynp0H1y4tgL07wOMFQhdL2iq9Wf4DAQhAAAIQqIPA7g7J367921v9al8+5KT7b9WuOPJBAAIQgAAE7uuUBO2VvrUvBznpfq/aFUc+CEAAAhCAgFcS3CsA2n2cCoADA+iOiBCAAAQg0DiBFzgkwUuDvB3PJgYyWUvPgPj8xn0K9SEAAQhAIACBVzokwK8G0LsT8WsO+r+iG5xPCEAAAhCAQK0E3uSQAI+tVdk5cp3goP+Rc7ZDEwQgAAEIQKAqAu9wSID/VJWG6wvzQQf9j1l/k/wXAhCAAAQgMDyBdzokwNYLACuqWCAAAQhAAAJVE/gHhwKg9UsAR1VtcYSDAAQgAAEISHqtQwHQ+k2AvA+AXQsCEIAABKon8BKHAsAerbMphmtf7DHAyxz0f1HtiiMfBCAAAQhA4CkOCdCeq987AFqviYCeHEB3RIQABCAAgcYJeE0FbIVF7cvBTsUPUwHXbnnkgwAEIAAB7emUBCM8CfBhJ91viV9BAAIQgAAEaiewvdN1cHvVrr1yt9blBpJ+6VAA2P0P29WqNHJBAAIQgAAE1hI40SER2n0Ah67dSGXfn+Wk8/+vTE/EgQAEIAABCCQJ2GNrpV+IY+OdL+maya0O9w+T6TwnnV81nFpsGQIQgAAEILAcgUc6JUMrAp6xnCi9rP1cR30f1osGbAQCEIAABCBQgIBdq7/cKSleJGnXAjKWGuKmki520tXuKdiplKCMAwEIQAACEOiDgMdb8brLCja2Tboz9GKTE9k0xZ1cpT8jTYE8tC3YPgQgAAEIVELgzx0ToyXaGmbHe7mzjodUYkvEgAAEIAABCCxMYDdJVzgnyCctLE35Fb1mPOzOItgllJoudZQnyIgQgAAEIDBaAh90LgCswBhimlxL/t7FzQdG6xUoBgEIQAACoyfwQOcCoDtathcQ9XFPgG3D+7R/p9P9Ru8dKAgBCEAAAqMlYAnzrJ6KgOMk2WUHr8Xu9ve8sbFL/PZ5epC3H3qxZlwIQAACEBgBgcf3VABY4vyZJJuRr+RkQTtMpja25/y9HvVbm/i7748dgd1RAQIQgAAEGiewraQzeywCLIl+b5Kwnylp5wz2Nre/FRM2+2CXmPv4PK2nyxkZaOgKAQhAAAIQWIzAY3pOol2itol0/lnSQZJuvUFitcsV+0zXtbf6ebzYp5Nrvc9HLYaUtSAAAQhAAAL1E9hK0qcGKgLWJtvLJH1dkt0vYE8o2J99tzb739p1h/hushgrFghAAAIQgMBoCNjR9VBH1UMk82W3aa87trMULBCAAAQgAIHREXhxBUfZyybmvtY/bHTWRiEIQAACEIDAlIDdEPg5ioAtLjWcJGk7vAQCEIAABCAwZgL2PP2FFAGbioCfSLr5mA2ObhCAAAQgAIGOwH6SrqQI+BUDY8ECAQhAAAIQaIbAMygAZG9MZIEABCAAAQg0R+DIhouANzRnbRSGAAQgAAEITAnYM+9vbLAI+D/M9c8+AAEIQAACrROwIqClMwFHk/xbd3n0hwAEIACBjsDWkl7TwJmAVzHTX2dyPiEAAQhAAAJXE3jiSGcLvHz6joGrNeUbBCAAAQhAAAKbEfh9Sd8f0dkAe5vgPTfTkB8QgAAEIAABCMwlYK/itbf49TUNr9d2PiHpxnM1pBECEIAABCAAgbkE7OZAe42vzZTnlaC9xjWZD+R6/1y70ggBCEAAAhBYiMAukt4u6aoAhYDJ+F5Juy2kGStBAAIQgAAEILAhgbtJOrbiIsBkMxlZIAABCEAAAhBwIPA/JNm19RrOCJgMJsvdHfRkSAhAAAIQgAAE5hC4laTDJf1ggLMC9jbDoyTtO0cumiAAAQhAAAIQ6IHA9pLuP51S+FzHYsDGtmmL7yfJtskCAQhAAAIQgEAlBOzJgQ85FAE2po3NAgEIQAACEIBApQTsLvzSj/fZmCwQgAAEIAABCFRMgAKgYuMgGgQgAAEIQMCLAAWAF1nGhQAEIAABCFRMgAKgYuMgGgQgAAEIQMCLAAWAF1nGhQAEIAABCFRMgAKgYuMgGgQgAAEIQMCLAAWAF1nGhQAEIAABCFRMgAKgYuMgGgQgAAEIQMCLAAWAF1nGhQAEIAABCFRMgAKgYuMgGgQgAAEIQMCLAAWAF1nGhQAEIAABCFRMgAKgYuMgGgQgAAEIQMCLAAWAF1nGhQAEIAABCFRMgAKgYuMgGgQgAAEIQMCLAAWAF1nGhQAEIAABCFRMgAKgYuMgGgQgAAEIQMCLAAWAF1nGhQAEIAABCFRMgAKgYuMgGgQgAAEIQMCLAAWAF1nGhQAEIAABCFRMgAKgYuMgGgQgAAEIQMCLAAWAF1nGhQAEIAABCFRMgAKgYuMgGgQgAAEIQMCLAAWAF1nGhQAEIAABCFRMgAKgYuMgGgQgAAEIQMCLAAWAF1nGhQAEIAABCFRMgAKgYuMgGgQgAAEIQMCLAAWAF1nGhQAEIAABCFRMgAKgYuMgGgQgAAEIQMCLAAWAF1nGhQAEIAABCFRMgAKgYuMgGgQgAAEIQMCLAAWAF1nGhQAEIAABCFRMgAKgYuMgGgQgAAEIQMCLAAWAF1nGhQAEIAABCFRMgAKgYuMgGgQgAAEIQMCLAAWAF1nGhQAEIAABCFRMgAKgYuMgGgQgAAEIQMCLAAWAF1nGhQAEIAABCFRMgAKgYuMgGgQgAAEIQMCLAAWAF1nGhQAEIAABCFRMgAKgYuMgGgQgAAEIQMCLAAWAF1nGhQAEIAABCFRMgAKgYuMgGgQgAAEIQMCLAAWAF1nGhQAEIDAwgR0k3V7SIyQ9TdJzJR0u6QhJb5FkCYC/dhmcI+k/C//ZmPhU2wwstliMsVhjMcdij8Ugi0UWk1ggAIHCBK4r6UGSXi3pE5K+LemqwsG9dLJgvPIJGKYwrdkHLCadPY1RFqssZlnsYoEABJYgsI2ke02r7C9IuoJkX/xotuZAimwk+rH4gMWuk6ax7PclWWxjgQAE5hDYZ9J22PQIfywBAD1IZvgAPtD5wHmSXifpDnPiH00QaI6AXTc7SNKXOcrnKB8fwAca8oGTJR3IvQPN5TwUlnRtSYdIsoq4q475hAU+gA+05gM/nGQEO/P5m2QGCIydgN0UY85+IYmfwgcfwAfwgU0+cMGExQslXWfsSQD92iRgd8V6PJ7V2hED+nKUjA+M1wfOl3SApK3aTBNoPTYCt5L0L1T6myp9gvd4gze2xbalfOBTkm4ztmSAPu0Q2Hby2MuLJf2S5E/yxwfwAXxgaR/4xeRMwF9LsljKAoEwBHaT9Bl2+KV3+FJHD4zDkSg+MB4f+LSkXcNEfwRtmoBN4vN9kj/JHx/AB/CBYj7wH5Ie0HRmQfmqCdhNKy9jmt5iOzxHcOM5gsOW2LKED9h0w3ZZlRsEq06F7QlnU1weTbVP8scH8AF8wN0HjpG0XXtpBo1rJHAtSR9mp3ff6UscQTAGR6L4wDh8wJ6ssgnVWCAwGIGdJi/u+SzJn+SPD+AD+EDvPmAvGtp5sOjPhpsmsKOkL7HT977TcwQ3jiM47IgdS/jAFyevSrdYzAKB3ghsL+njJH+SPz6AD+ADg/vAcZKu0Vv0Z0NNE9ha0nvY6Qff6UscPTAGR6H4wDh84F2SLDazQMCVwBtI/iR/fAAfwAeq84HXukZ+Bm+ewB+x01e303MEN44jOOyIHUv4wOOaz1IAcCFwa0kXV1oA2Du17YZEe4HGRyS9lz8Y4AP4QGEf+Og0xpwsyWJOiYRdeoyfSdrbJQMwaLME7Fn/UytxeJsS832SDprciHhXSfYoIgsEIACBvglcbxqDDpb0fkk/qiRGflXSDn3DYHvjJTD0LH8XSDpS0u9wo8t4nQzNIBCcgN2EdzdJb5R04cDFwN8HZ4n4lRC4z4CO/A1JB/CISyWegBgQgMCiBOyxvD+WdNqA8dNezMYCgZUJmBOfMYAD2zYfxtH+ynajIwQgUAcBOyvwCElnDRBHrfiwOVtYILASgRf07LSXTKQ8TNI1V5KWThCAAATqJGCJ+DmTv0t7jqnPqxMHUtVO4BaSLCGXvks1Nd4pkvasHQryQQACEMggYHfof6XHuPpzSTfLkJeujRKwO+1Tybp0u900w1F/o46G2hBojIDdoX9Uj/H13Y3xRd1MAvbM/5U9OOhVkg7NlJXuEIAABCISsMcH+4izto3bRASEzMMQOKaH5P+LyR2yjxpGPbYKAQhAoAoCD+npvoC3VqEtQlRPwK79X+5cAFwhaf/qSSAgBCAAAX8CfyjJYmLpS6trx7OYfnN/VdhCdALe16bstP8To0NCfghAAAIFCTzZuQCwYuBNBeVlqBESuI4ku2t0beVY+vuLR8gNlSAAAQjkEniZc+y12L5jrpD0Hy+BP3F2QHtZzzbjxYdmEIAABFYmYLHxOOcY/PiVpaPj6AlYgi59xN+N94PJoy83Hj1BFIQABCCwOoFdJy86sxeedXGz9Ofxq4tGzzET2N35kZTHjhkeukEAAhAoRMCO0ksn/m48uweLiYEKGWpMwzzf0elOkLTVmGChCwQgAAEnAhYrP+MYj//CSW6GDUzgRCeHs0ko9g3MBdEhAAEI9E3g9pLsaL07ci/5+dm+lWF7dROwO0N/6eRsNqUwCwQgAAEILEfgA04x2eYE4GmA5Wwx6rX/wMnRrGq946jJoRwEIAABHwJ3cDwLcD8fkRk1IoFXOxUA3HEa0RuQGQIQqIXAp51i8ytrURA5hifwZScn45nT4W2LBBCAQFwCXnOzfCkuEiQvSWB7p7n/L+Y6U0kzMRYEINAgAa/ZWe2er+0a5InKMwTs1b8l7zDtxvp/M9vhJwQgAAEILE/gg04xeq/lRaHH2AjYW/m6pF3y86CxgUIfCEAAAgMQOMQpRj9oAF3YZGUEnuvkXPtUpifiQAACEIhI4LZOMfpZEWEgc1kCb3Zwrh8z819ZIzEaBCDQLAGbGfCnDnH66GaJovgmAh5vn/r8ptH5AgEIQAACuQS+4FAAfDJXKPrHJ/BFB8d6a3wsaAABCECgGgLHOMTpk6rRDkEGI/DvDo71gsG0YcMQgAAExkfgMIc4/Y3xYUKjZQmc6+BYdtcqCwQgAAEIlCFwqEOcPqeMaIwSmYDHzSU2exULBCAAAQiUIfBEhwLgJ2VEY5TIBK5wcKxHRgaC7BCAAAQqI/AohzhtsZ+lcQIlJ//pxnp440xRHwIQgEBJAhZTu/ha8rOkjIwVkEBJZ+rGogAI6AiIDAEIVEuAAqBa08QWrEvaJT8pAGL7BNJDAAJ1EaAAqMseo5GmZOLvxqIAGI17oAgEIFABAQqACowwRhG6pF3ykwJgjJ6CThCAwFAEKACGIj/y7ZZM/N1YFAAjdxrUgwAEeiVAAdAr7nY21iXtkp8UAO34D5pCAAL+BCgA/Bk3uYWSib8biwKgSVdCaQhAwIkABYAT2NaH7ZJ2yU8KgNa9Cv0hAIGSBCgAStJkrE0ESib+biwKgE14+QIBCEAgmwAFQDZCBphHoEvaJT8pAOaRpg0CEIDAagQoAFbjRq8NCJRM/N1YFAAbQOffEIAABJYgQAGwBCxWXZxAl7RLflIALM6fNSEAAQhsRIACYCNC/H8lAiUTfzcWBcBKpqATBCAAgbkEKADmYqExl0CXtEt+UgDkWoX+EIAABK4mQAFwNQu+FSRQMvF3Y1EAFDQQQ0EAAs0ToABo3gV8AHRJu+QnBYCPrRgVAhBokwAFQJt2d9e6ZOLvxqIAcDcbG4AABBoiQAHQkLH7VLVL2iU/KQD6tCDbggAExk6AAmDsFh5Iv5KJvxuLAmAgY7JZCEBglAQoAEZp1uGV6pJ2yU8KgOHtigQQgMB4CFAAjMeWVWlSMvF3Y1EAVGVihIEABIIToAAIbsBaxe+SdslPCoBarY1cEIBARAIUABGtFkDmkom/G4sCIIDhERECEAhDgAIgjKliCdol7ZKfFACxfABpIQCBuglQANRtn7DSlUz83VgUAGHdAcEhAIEKCVAAVGiUMYjUJe2SnxQAY/AMdIAABGohQAFQiyVGJkfJxN+NRQEwMidBHQhAYFACFACD4h/vxrukXfKTAmC8/oJmEIBA/wQoAPpn3sQWSyb+biwKgCZcByUhAIGeCFAA9AS6tc10SbvkJwVAa16EvhCAgCcBCgBPuj2NvY2kPSTdUdK9JO0nyQw75F/JxN+NRQHQk0MtuZl5/mc+aL5oPnkLSbYOyzgJYP+4dvUqAIbMPbbtUcefvSUdKOndkk6VdJmkLkmO+ZMCoI5As4r/mY+ar75L0lMnn3vVoQpSrEAA+68ArdIuXgVAbXkofPzZR9Lhkr7bSLKf50AUAMNFEQ//+46kl0u69XBqseUFCWD/BUEFW62VAmBePqk+/mwlaX9JJzac9NcajgKg3+jSp/99TtKDJdk2WeoggP3rsIOnFC0XAGtzS3Xx5w+np0zXCtn6dwoAz1Cw+dhD+d9XpoXA5tLwq28C2L9v4sNsjwJg88vng8cfu2HqIxzxz72ngQLAP0jU4n8fknRzf3XZwgwB7D8DZOQ/KQA2LwC6g+xB4s9TJF1C8p+b/M0wFAC+0ag2/7N94Um+KjP6GgLYfw2MRr5SAMwvACzf9BZ/dpT0f0n8ycTfVWUUAD5RqXb/e7+k6/qozqiSsH+7bkABkC4AurzjGn92mTyzeArJf8PkzxkAnyAVxf/sEcJdfRA0PSr2b9r8vzqr2iU6PtPFgEv8settZ5L8F0r+FADlA1U0/zt7cqZsz/IYmh0R+zdr+k2KcwYgnfRnC6Ki8cd2vu+R/BdO/hQAm/bZIl+i+t95km5WhEDbg2D/tu3faU8BsHgBYDmoSPy5gaTTSP5LJX8KgG6Xzf+M7n9nSbpRPoZmR8D+zZp+C8UpAJYrACwPZcWfa0j6Asl/6eRPAbDFvrtSw1j8zybH2n4lAm13wv5t239WewqA5QsAy0Urx583kPxXSv4UALO77mq/x+R/r1kNQdO9sH/T5t9CeQqA1QoAy0dLx5+HkPxXTv4UAFvsu0s3jM3/rpq+9WtpEI12wP6NGn4dtSkAVi8Aloo/1+Gmv6zkTwGwzl68wL/G6n/nM0fAAtaXsP9CmJpbiQJg9QLActLC8ecIjv4pAAYML2P2v78dkGuUTWP/KJbqV04KgLwCwIqADePP7SRdQQFAAdDvvr1pa2P3v8sl2etqWeYTwP7zudD66+nVLYnxtzqDDePPewBcxMGsWmVZnkAL/veO5bE00wP7N2PqpRXlDMDqiX9t0ZSMP7fk6L9I8jfYFABL799qxf/sDNutlscz+h7Yf/QmzlKQAqBMAZCMP3/H0T8FQNYumte5Jf+zR9xYNieA/Tfnwa/NCVAAlCkA7AB1i/hjE5X8iAKAAmDzfa63X6353wVMDrSZb2H/zXDwYw4BCoByBcAW8eehPSX/n0p6uyTb3t6SfmOOoftuWnt9pNR3LgEsZ8Uh/c980HzxYVPfvKinfWG/5RCNem3sP2rzFlHOqwAoIlzGIFXEn3c5Bz27+/B1knbOAOXVtVTSXzsOBcBy1urD/167oP/Z/PN2isz7aZhjlkM06rWx/6jNW0S5sRYAs3B6jz9bTScJWJvASn63I6o/mNWyot8lde3GogBY3MDe/mdnnVbxv/tK+rFjYWxv62KRsD9esAiBVgqAjkVv8ceeS+4SV+nPiyXdodOo0s/SOtt4FACLG9vb/26/uChbrHlHST933D/s0kPrC/Zv3QMW07+1AsCo9BJ/nugY4Oy6au0LBcCwFvL0P7u2nLs80nH/eEKucCPoj/1HYMQeVGixADCs7vHnVU4B7qM9OEWJTVAAlKC4+hgR/O9fnPaRV6yObTQ9sf9oTOmqSKsFgEF1jT8fcgpud3J1h3KDUwCUY7nKSF7+Z6fPSi13cdpHPlhKwMDjYP/AxutR9JYLANf483WH4HZWj46RuykKgFyCef2j+N+3HPaTr+WhG0Vv7D8KM7or0XIBYHDd4s+5DoFti5mG3N1j9Q1QAKzOrkTPKP7nMVPdOSUABh8D+wc3YE/it14AuMUfe0yqdBI8tCenKLGZ0rrbeOasLIsRiOJ/z3TYT36yGKJRr4X9R23eYsq1XgC4xR+PCU8eXczs/gNRAPgzXm8LHv732PU2uOL/bMzSvmITZLW+YP/WPWAx/VsvAB7jEH9s3yse1KIdAZcO6tH0X2z381vL4zn7Ax3EPdhhX7F5MlpfsH/rHrCY/q0XAG76t54AW9d/sd3Pb63vOyTWlzqI+zIHOc93kDPakNg/msWGkdctAQ6jztJbddO/9QTYuv5Le2LhDmc6JNZ/LSyjDfdZBznPcJAz2pDYP5rFhpHXLQEOo87SW3XTv/UE2Lr+S3ti4Q6fckisdm3rhgXl3EXSlQ5yHl9QxqhDYf+olutXbrcE2K8aK2/NTf/WE2Dr+q/skYU6HuWQWM2mrywknw3zGicZjywoY9ShsH9Uy/Urt1sC7FeNlbfmpn/rCbB1/Vf2yEIdn+6UXC+VtEcBGfeUdJmTjIcUkC/6ENg/ugX7kd8tAfYjfvZW3PRvPQG2rn+2Z2YOcA+n5Gp2PVXSjhnyXWcyp4PHTHWdz/1uhmxj6Yr9x2JJXz3cEqCv2MVGd9O/C0YlP03YKEtJvbuxIuk/tJ2uIekSxyLgBEnXX0HJnSXZzYSdTUt/2iOA268g19i6YP+xWdRHH7cE6CNu8VHd9C8d2Gy8SAmwdf2Le+oKAx7rmGjNvvZuit9bQq57Os29vdbXPr6EPGNfFfuP3cL5+rklwHzRehnBTf+1QanUdwqAXnxiNBvxug4868/25rn9JO0wh9y1JO0v6SPOxUgn09PmyNBqE/Zv1fKL6+2WABcXYdA13fTvAlLJTwqAQX0l3MZvJMmmxS3pg+uNZbPP2f0BH5v+2XfPyxCzsvxS0g3CWclPYOzvx3YsI7slwCCA3PSfDU4lflMABPGqisTs68i7hH/njvHBirjXIgr2r8USdcrhlgDrVHcLqdz0zw1m8/pTAGxhPxo2IPBEYZIcAAAftElEQVTAHs8AzPPZPtvuvwGLFv+N/Vu0+uI6uyXAxUUYdE03/T0CHwXAoL4SduNfaqAI+LKkrcJayFdw7O/LN/LobgkwCBQ3/SkAyl97jlQA1eT/Xk7u4eOrjmk3GrLMJ4D953Oh9ddPlq26z63XLwpbr33D5carSAlwPedY9X+R9K9pB7AjY4+54Ve1Y+l+Nq8AR/9pj8P+aTat/8ctAQYB66Z/6SBn40VKgK3rX5v/7yvJ7pL3sMuQY9pTDrerDXaF8mD/Co1SgUhuCbAC3RYRwU1/j6BIAbCISVknReBvRlgAvDylLO1bEMD+WyBpvsEtAQYh66Y/BUD5o81IBVCN/r+dpM+NqAg4iWl/l3Iz7L8UriZWdkuAQei56U8BQAFQ4z5wU0kXjKAIuFDSzWoEXLlM2L9yA/UsnlsC7FmPVTfnpj8FAAXAqk7p3c/m5Pd6Fa+H38+O+QtJ9/aGNOLxsf+Ijbukam4JcEk5hlrdTf/ZoFXitwkbZSmh7+wYkfSv3U722NwVAc8EXBnsZtha/QD712qZfuVyS4D9qrHy1tz0n01eJX5HSoAl9J0dI5L+K3tkjx2fEKwIsDv+H98jn7FvCvuP3cIb6+eWADfedBVruOk/m7xK/I6UAEvoOztGJP2r8O4FhHhwzy/smbXpor/tksVDF9CHVZYjgP2X4zW2td0SYBBQbvovGtiWWS9SAlxGr0XXjaR/EP//lZh3l3RexZcDzpF010hAg8mK/YMZrKC4bgmwoIyeQ7npv2hSW2a9SAlwGb0WXTeS/p5O6zH2zpI+WmERcKwke60tiy8B7O/Lt9bR3RJgrQrPyOWm/6JJbZn1IiXAZfRadN1I+s/4WYifW0s6WNKPKygE7DG/pzLFb69+g/17xV3FxtwSYBXabSyEm/6LJrVl1ouUAJfRa9F1I+m/sevVu4Ydcb9Nkt1xv6htSq1n23yzpBvWi2f0kmH/0Zt4k4JuCXDTFur+4qZ/qYC4dpxICXCt3KW+R9K/brdfTLo9JB0lye6+L2XD1DiW+N8rae/FRGOtHghg/x4gD7wJtwQ4sF6Lbt5N/1Sgy2mPlABz9Ez1jaT/og4YYb3dJb1A0hkOhcDpk0cRnz856rcZ6ljqJID967RLCancEmAJ4XoYw03/VBLLaY+UAHP0TPWNpH8PvjvIJu48OSPwl5KOk3TpCgXBJZLsxr7nSbrTIBqw0RwC2D+HXn193RJgfarOlchN/1QSy2mPlABz9Ez1jaT/XG8bWaO9XGYvSTar3HMkHT69ZPAOSfb3pmnbs6fr2LrWh2UcBLB/fDu6JcAgaNz0TyWxnPZICTBHz1TfSPoH8X/EhAAEGibglgCDMHXTP5XEctojJcAcPVN9I+kfxP8REwIQaJiAWwIMwtRN/1QSy2mPlABz9Ez1jaR/EP9HTAhAoGECbgkwCFM3/VNJLKc9UgLM0TPVN5L+QfwfMSEAgYYJuCXAIEzd9E8lsZz2SAkwR89U30j6B/F/xIQABBom4JYAgzB10z+VxHLaIyXAHD1TfSPpH8T/ERMCEGiYgFsCDMLUTf9UEstpj5QAc/RM9Y2kfxD/R0wIQKBhAm4JMAhTN/1TSSynPVICzNEz1TeS/kH8HzEhAIGGCbglwCBM3fRPJbGc9kgJMEfPVN9I+gfxf8SEAAQaJuCWAIMwddM/lcRy2iMlwBw9U30j6R/E/xETAhBomIBbAgzC1E3/VBLLaY+UAHP0TPWNpH8Q/0dMCECgYQJuCTAIUzf9U0kspz1SAszRM9U3kv5B/B8xIQCBhgm4JcAgTN30TyWxnPZICTBHz1TfSPoH8X/EhAAEGibglgCDMHXTP5XEctojJcAcPVN9I+kfxP8REwIQaJiAWwIMwtRN/1QSy2mPlABz9Ez1jaR/EP9HTAhAoGECbgkwCFM3/VNJLKc9UgLM0TPVN5L+QfwfMSEAgYYJuCXAIEzd9E8lsZz2SAkwR89U30j6B/F/xIQABBom4JYAgzB10z+VxHLaIyXAHD1TfSPpH8T/ERMCEGiYgFsCDMLUTf9UEstpj5QAc/RM9Y2kfxD/R0wIQKBhAm4JMAhTN/1TSSynPVICzNEz1TeS/kH8HzEhAIGGCbglwCBM3fRPJbGc9kgJMEfPVN9I+gfxf8SEAAQaJuCWAIMwddM/lcRy2iMlwBw9U30j6R/E/xETAhBomIBbAgzC1E3/VBLLaY+UAHP0TPWNpH8Q/0dMCECgYQJuCTAIUzf9U0kspz1SAszRM9U3kv5B/B8xIQCBhgm4JcAgTN30TyWxnPZICTBHz1TfSPoH8X/EhAAEGibglgCDMHXTP5XEctojJcAcPVN9I+kfxP8REwIQaJiAWwIMwtRN/1QSy2mPlABz9Ez1jaR/EP9HTAhAoGECbgkwCFM3/VNJLKc9UgLM0TPVN5L+QfwfMSEAgYYJuCXAIEzd9E8lsZz2SAkwR89U30j6B/F/xIQABBom4JYAgzB10z+VxHLaIyXAHD1TfSPpH8T/ERMCEGiYgFsCDMLUTf9UEstpj5QAc/RM9Y2kfxD/R0wIQKBhAm4JMAhTN/1TSSynPVICzNEz1TeS/kH8HzEhAIGGCbglwCBM3fRPJbGc9kgJMEfPVN9I+gfxf8SEAAQaJuCWAIMwddM/lcRy2iMlwBw9U30j6R/E/xETAhBomIBbAgzC1E3/VBLLaY+UAHP0TPWNpH8Q/0dMCECgYQJuCTAIUzf9U0kspz1SAszRM9U3kv5B/B8xIQCBhgm4JcAgTN30TyWxnPZICTBHz1TfSPoH8X/EhAAEGibglgCDMHXTP5XEctojJcAcPVN9I+kfxP8REwIQaJiAWwIMwtRN/1QSy2mPlABz9Ez1jaR/EP9HTAhAoGECbgkwCFM3/VNJLKc9UgLM0TPVN5L+QfwfMSEAgYYJuCXAIEzd9E8lsZz2SAkwR89U30j6B/F/xIQABBom4JYAgzB10z+VxHLaIyXAHD1TfSPpH8T/ERMCEGiYgFsCDMLUTf9UEstpj5QAc/RM9Y2kfxD/R0wIQKBhAm4JMAhTN/1TSSynPVICzNEz1TeS/kH8HzEhAIGGCbglwCBM3fRPJbGc9kgJMEfPVN9I+gfxf8SEAAQaJuCWAIMwddM/lcRy2iMlwBw9U30j6R/E/xETAhBomIBbAgzC1E3/VBLLaY+UAHP0TPWNpH8Q/0dMCECgYQJuCTAIUzf9U0kspz1SAszRM9U3kv5B/B8xIQCBhgm4JcAgTN30TyWxnPZICTBHz1TfSPoH8X/EhAAEGibglgCDMHXTP5XEctojJcAcPVN9I+kfxP8REwIQaJiAWwIMwtRN/1QSy2mPlABz9Ez1jaR/EP9HTAhAoGECbgkwCFM3/VNJLKc9UgLM0TPVN5L+QfwfMSEAgYYJuCXAIEzd9E8lsZz2SAkwR89U30j6B/F/xIQABBom4JYAgzB10z+VxHLaIyXAHD1TfSPpH8T/ERMCEGiYgFsCDMLUTf9UEstpj5QAc/RM9Y2kfxD/R0wIQKBhAm4JMAhTN/1TSSynPVICzNEz1TeS/kH8HzEhAIGGCbglwCBM3fRPJbGc9kgJMEfPVN9I+gfxf8SEAAQaJuCWAIMwddM/lcRy2iMlwBw9U30j6R/E/xETAhBomIBbAgzC1E3/VBLLaY+UAHP0TPWNpH8Q/0dMCECgYQJuCTAIUzf9U0kspz1SAszRM9U3kv5B/B8xIQCBhgm4JcAgTN30TyWxnPZICTBHz1TfSPoH8X/EhAAEGibglgCDMHXTP5XEctojJcAcPVN9I+kfxP8HEXM7SXeR9ARJT5N0iKR7S7rBINKw0fUImE3MNmYjs5XZ7M6SzIYs8Qm4JcAgaNz0TyWxnPZICTBHz1TfSPoH8f9exbyVpCMkXSRpno2vkPRhSQ+StHWvkrGxtQSMvdnAbGE2mWcrs6HZ8pZrO/I9HAG3BBiEhJv+VyV2nHk706JtjwgC1cRcVKdl1qMACOQAa0S1hGJHkJct4RdnSnoyR5prKPp/NTvZPva1Jez0y4lYh0naxl88tuBAwC0BOsjqMaTl1GVy0CLrWu7Xzx0GPtCDgNOYi4Badh0KACdjOQ5rieGdGfvCt6fFw7UcZWx96GtIOkDSGRl2ep+kbVsHGVD/1guAgzN8PpW/LjY/+L7DwC8N5GApODntFACBHGAq6tGF9gPbn54v6cbxEFQr8U0k/VXBWPX31WqKYCkCrRcALysUn9bmtfMNtp3CXNtY4vu/pqxYYXsJfWfHoACo0NDriPQAh33Arkl/cnqqmtPO68BP/MtO899L0nsl2en72X0s9/d+ie3SXCeB1guAzzrsA3YmTZ9yGNiC3w3r9KMtpMoNJPP6UwBsgbnaBkvOZzvsA2v94puT+wqeK2nXainUI9hukv5icqr/W842sfEpzOqx+0aStFwA7DI5A3alw/5wvEE/ymFgC36v3Miilfx/baAu9Z0CoBLjLiDGA538f54v2U5slbzdaEgxcLVxLOkbE2PjEejm2cLa7ne1CHyrnEDLBcCrnWLUkWbzpzsNfqmkPSp3KhMvFRxy2ikAAhh+KuIxTj6wkf9YovuMpD+TdLM4uIpJevOBkv5au7ylmDYM5E2g1QLAHkle5qmktf690XcrunUPxwB4qqQdvT0jc/yNIK3yfwqATKP02P3rjv6/jO/YZQI7G2e+c70e9e9rU9eeXtM/XNKXKmH+b30pz3ayCbRYAFxnEg8849PvmlXs0ZpLHHfIEyRdP9v8fgMsE6QXXZcCwM9epUe2M1WL2rWv9ewemhMlvWLyrPvDgp4hsLMath/YpcDPrzNRT19M523nZ6WdifHcCLRWAOws6dOOsckeAdy+s9axjhuyHe8sSb/Xbayyz3mBIbeNAqAyI68jjmfxm+tHa/v/cDIt8UcnMw++SNJDJO0r6Zrr6NXXv0yG205lerGkj0n6D+d4spZLzvef9gWJ7WQTaKkA+J893AT78bUW8boPYHbn/JAke/xmh7UbH/j7rIwlflMADGzUJTbvMQ9GCR9aZAy7j8AmILLHDe2GnkMnxfZjp3Pi3246F0HOpDfW1+YzsLFsnn0b+xmS3ijJDhq+I8ljJtFFdC+xzrlL+AmrDktg7AWATSC2/+T9FR/pqXi292VsWm4k6fKeNmw7rs0+aPcH2NGCPec75F+JQDI7BgXAJteq/osdVc/ab2y/7Yjc7jGwv5On1+Dt9KIVDvZn3+26/JfXrBflKD7HVv9cvXciYEfAqwAYMvfYti0HWi7s80ykzauxxQvN+qo8cnbYKH0pALrdtv7PZzdQAETZb/qW085msMQg4FUA9O1zNWzvg/NM3ufz0DVA8JSBAmCeh9XZZpVwjTcCevonY//6iKvmm5Pr3FuGk4oCoNyZyvunzFjL4znRAxQFQMrD6mx/HWcBRn8ZZDamvKpOV0SqBAEKgDIFgF3m2yrB+FeP7czuKPxeHjwFQMrD6my3G3BOpwhopgj498puRK5zr6hLKgqA5fPQvNxtNxomF6sMPN4NME+QMbdRACRdrNp/3FrS9ygCRl8E2J3/e1XrhQiWIkABkF8A2Ev6kkf/HXh7vtjj7VtjTvizulEAdN4U63PP6R25s/bkd37wqYHhVyXdMpZLIu2UAAVA3j5oT/nZ47wLLX/DkVDWkRAFwEJuVuVKNjvWCyfPu9sscTUkLWTIt4PZ0my6aeazKj0PodYjQAGQtx+8fD24s//bTtLnCIArJwAKgFmPivfb5uF+jqQfsR+svB8MXbzYTH/27gHu9o+3/81KTAGwegFw0irF700lXUDwWyn4UQDM7r5xf9tLbOytWeewL6y0LwxRBPxg4m6HSbpuXLdD8hkCFACrFQAX5rxL5J6OryIcIjD0tU0KgJm9dwQ/7aVZfzqdKa8vP2I7ywU9e+fIk6cvOBuBy6HCGgIUAMvtCxY7fjGdwnsNxuW/2mMD9nYygtHiDCgAlvezKD22nr7W1qbx7HP6bPa/+fufvQ/BpjO2fW6bKE6EnEsToACY7/+puGD7RbE89ASKgKUKoGLgl95N6NAnAXtRjt0nYC/kSe2ItPuwsUc27fr+7n0anG0NRoACYPH9yA5MHl/aUg/u+YUFkQMnBUBp76t7PHtrnr3l8sM8QutaCNnjyfZGUYtFHO3XvU+Ulo4CYLEC4LLJo8wPLQ2/G+/uks7jaGfDIEcB0HlMe587Td7lfcA0UTGfxmJBa71i3y4/fnZ6I+YN23MnNJ4SoADYeF+yG5Xv6u0xO0tq4RWq6wWljf5HAeDthTHGpxjYOGjN25fWJn17VTkLBCgA1t+XjpXU275iN0IdPKnKf8zZgLlnAygACFizBKxwfvTkmvVbJNl0tPMSX8ttxsTYGCNjxQKBtQQoAObHDHvM76mLTPG7Fmap71ZxvE2S3XHYcvCa1Z0CoJSHjXecW0wfWbOnCWzCmlkfGvvvS6Z379tNlHccKoCN171GpxkFwOYxwnLumyVVcVlsD0lH8VjUpiBOATC6+OOqkM0x8DuS/kzSMZJOk3TViIoC08Xetmi6mY6mq+nMAoFFCVAA/LoAsMRvBw17Lwquz/XskZwXTE7jnTGi4LXKkRgFQJ9eN85t/eZ0voHnSXq/JHuRjd3hu4o/9tnHZDx1KrPJfm9JpgsLBHIItF4AWAH9/MlRv83QG2K58+SMwF9KOm7yrPSlAQJXySBJARDCRcMJaffe3Gzyno77SDpI0usnd/1+XNLXJtcBbfrbkj6cGsuO5m1btk3btslgsphMJpvJyAKB0gRaKwDsEpnd2GdF9J1Kw+x7PHu5kL2D22YVtGt+NoGHXTJ4x/R0hp3SGOovFehy2ikA+vYwtmcEbD4Cm5zIXvt5v8m0xY+TdOh0n3vJdL+zhG373lvX7HP23drsf7Zv2rq2n1pfG+O+0zFtbNsGCwT6JuBVAAyVd7rtWg5803S/e/Y0R1qutJzJ0gOBnESf6ksB0IPh2AQEINAMAa8CoBmAKDqfQCqJ57RTAMxnTSsEIACBVQhQAKxCjT4bEshJ9Km+FAAbYmcFCEAAAgsToABYGBUrLkMglcRz2ikAlrEA60IAAhBYnwAFwPp8+O+KBHISfaovBcCKxqAbBCAAgTkEKADmQKEpn0Aqiee0UwDk24URIAABCHQEKAA6EnwWJZCT6FN9KQCKmojBIACBxglQADTuAF7qp5J4TjsFgJe1GBcCEGiRAAVAi1bvQeecRJ/qSwHQg+HYBAQg0AwBCoBmTN2voqkkntNOAdCvDdkaBCAwbgIUAOO272Da5ST6VF8KgMHMyYYhAIEREqAAGKFRa1AplcRz2ikAarAsMkAAAmMhQAEwFktWpkdOok/1pQCozMiIAwEIhCZAARDafPUKn0riOe0UAPXaG8kgAIF4BCgA4tkshMQ5iT7VlwIghOkREgIQCEKAAiCIoaKJmUriOe0UANG8AHkhAIGaCVAA1GydwLLlJPpUXwqAwA6B6BCAQHUEKACqM8k4BEol8Zx2CoBx+AZaQAACdRCgAKjDDqOTIifRp/pSAIzOTVAIAhAYkAAFwIDwx7zpVBLPaacAGLPHoBsEINA3AQqAvok3sr2cRJ/qSwHQiPOgJgQg0AsBCoBeMLe3kVQSz2mnAGjPj9AYAhDwI0AB4Me26ZFzEn2qLwVA0y6F8hCAQGECFACFgTLcrwmkknhOOwUA3gUBCECgHAEKgHIsGWkNgZxEn+pLAbAGMF8hAAEIZBKgAMgESPf5BFJJPKedAmA+a1ohAAEIrEKAAmAVavTZkEBOok/1pQDYEDsrQAACEFiYAAXAwqhYcRkCqSSe004BsIwFWBcCEIDA+gQoANbnw39XJJCT6FN9KQBWNAbdIAABCMwhQAEwBwpN+QRSSTynnQIg3y6MAAEIQKAjQAHQkeCzKIGcRJ/qSwFQ1EQMBgEINE6AAqBxB/BS/ypJqUS+ajsFgJe1GBcCEGiRgEcBYLGfpXECP3coAP64caaoDwEIQKAkgcc7xOmLSwrIWDEJ/MDBsQ6KiQKpIQABCFRJ4GkOcfr8KjVFqF4JnOngWM/tVQM2BgEIQGDcBJ7nEKfPGDcytFuEwCkOjvWGRTbMOhCAAAQgsBCBIx3i9MkLbZmVRk3gMw6O9clRE0M5CEAAAv0SON4hTn+qXxXYWo0E3ufgWN+tUVFkggAEIBCUwLkOcfo9QVkgdkECL3FwLHu85IYFZWQoCEAAAq0S2EWSx+PaL2oVKHpfTeBxDgWAzR/wiKs3wTcIQAACEFiRwKOdYrSNy9I4gbs4OdcbG+eK+hCAAARKEDjaKUbfsYRwjBGbwHWdnOs7kraOjQbpIQABCAxKYBtJHtf/7ZLCjoNqxsarIWDJetVpf9fr97+q0RBBIAABCMQjcG+n2Hx2PBRI7EXg7U5O9hYvgRkXAhCAQAMEiM0NGHloFT3mmbYzAzbX9M5DK8f2IQABCAQkYE9SebyrxWLzAQF5ILITgZs6nQEwR7PHDFkgAAEIQGA5Aoc7xuXdlhOFtcdO4CwnZ/uJJLvRkAUCEIAABBYjcD1JFznF5NMXE4G1WiJgj+2td0Nfzv9e0xJIdIUABCCQScDep5ITc9fre0SmbHQfIYHfc3S4yyXdfoTMUAkCEIBAaQK/LekKx3h8t9ICM158AltJ+qaj031ucj/AtvExoQEEIAABNwIWI09yjMP2+neL9SwQ2ILAXzs6np2S4obALZDTAAEIQGATAc8b/ywGv3DTlvgCgRkCezi9dKK7HnWlpPvObJOfEIAABCAg3V+SxcguXpb+tNn/LMazQCBJ4ARHBzSHvkDSbZJb5x8QgAAE2iOwr6QLnWPv8e1hReNlCdgReunKc3Y8m9t692UFY30IQAACIyRgz+R7Tce+Nvbea4TsUMmBwBd6KAJOk2QTELFAAAIQaJWAxUB7Ln9tovb4/vlWAaP38gT278Ehzcm/J+l2y4tHDwhAAALhCewj6bs9xdoHhaeFAr0RsMdEvtqTY9o9AdwY2Jtp2RAEIFABAbvhz/uaf3cm4RQe/avA4sFEeEBPBYA5qd35+lLmCQjmIYgLAQgsS8Ce87dH/eyO/C5Be39ygLWslVj/VwT+sUcntZ3gRGYMxPMgAIGREriD8yQ/8wqJ942UJWr1QMBuULFX+s5zLK82mzb4dZO/nXrQj01AAAIQ8CZgL/axuf09p/edF49/Jom3/nlbd+TjP7fnAqBzZHNeKwRuPHK+qAcBCIyTwM4TtQ6T9OOBYugzx4kVrfoksL2kfxvIga0Y+Lmkt0myZ1i37lNxtgUBCEBgSQIWo+4t6e3T2NUd0PT9aTf+bbek7KwOgbkE9pJkR+R9O/Hs9s6R9A+T52b/SNKN5kpKIwQgAIF+Cewi6dHT2GSTnM3Grb5/XyRpz34RsLWxE3hMBY49uyPZznaspCMl2aWKgyU9XtLD+YMBPoAPFPYBiy0WYyzWWMw5TlINCX82LtoBEgsEihM4usIiYNb5+T38EQg2wAb4wDA+8KbiUZ8BITAlsIOkL1MEDH6Kj+A6THCFO9xr9oGTJVmMZoGAG4Eb9DR3dc07GrKRCPABfKAmH/imJLsXgQUC7gTsndLncyaAMwH4AD6ADwzuAz/kpj/3nMcGZgjYS3yGer61psobWTgSxAfwgaF84KeSfnsmNvMTAr0QuIcke+RkKOdnu7DHB/CBVn3Akr/FYBYIDEbgtpLOowigCMIH8AF8oDcf+D5H/oPlPDY8Q+Dmk4kwzmDn723nb/WIB7052scHpG9JutVMDOYnBAYlYHeg8oggAZoAjQ/gA34+8CVmQR00z7HxdQhcc/oCHwKAXwCALWzxgTZ9wN4vcK114i//gkAVBB4q6SdcEuCSAD6AD+AD2T5gN1rbuwZYIBCGgL1AaMi3CHKU1OZREnbH7mPyAXurHy/2CZP2EHQtAXsd5SE8Kph9BDCmgIYuJGh8YGMfsNegHybJXsfOAoHQBG4yfT82O/7GOz6MYIQPtO0DH5K0e+iIj/AQmEPg/pK+wjVBzgjgA/gAPrCFD9gl0/vOiZs0QWBUBO41cfQTCQBbBACO/No+8sP+bdrfrvM/XNJWo4ryKAOBDQjcZzKV5QmSrqIYoBjAB/CBhnzAYt7xku69QYzk3xAYPYHfkvQcZhMkATSUADjab/No/zuSDpd0y9FHdRSEwJIE7BTY3SX9HcUAxQDFAD4wEh84XdIR09jGaf4lkwKrt0vAzgwcIOltkr49kmDAkV+bR37YvR27ny3prdPYtVu74RvNIVCWwI6S7jSdFevFkt4zvYfA5sc+S5K9IetiCgWOHPEBfMDBB342jTEWayzm2P1LFoNeNI1Jd5RkMYoFAhCAAAQgAAEIQAACEIAABCAAAQhAAAIQgAAEIAABCEAAAhCAAAQgAAEIQAACEIAABCAAAQhAAAIQgAAEIAABCEAAAhCAAAQgAAEIQAACEIAABCAAAQhAAAIQgAAEIAABCEAAAhCAAAQgAAEIQAACEIAABCAAAQhAAAIQgAAEIAABCEAAAhCAAAQgAAEIQAACEIAABCAAAQhAAAIQgAAEIAABCEAAAhCAAAQgAAEIQAACEIAABCAAAQhAAAIQgAAEIAABCEAAAhCAAAQgAAEIQAACEIAABCAAAQhAAAIQgAAEIAABCEAAAhCAAAQgAAEIQAACEIAABCAAAQhAAAIQgAAEIAABCEAAAhCAAAQgAAEIQAACEIAABCAAAQhAAAIQgAAEIAABCEAAAhCAAAQgAAEIQAACEIAABCAAAQhAAAIQgAAEIAABCEAAAhCAAAQgAAEIQAACEIAABCAAgRER+C/EOy91nhHeyQAAAABJRU5ErkJggg==;" parent="1" vertex="1">
          <mxGeometry x="170" y="300" width="20" height="20" as="geometry" />
        </mxCell>
        <mxCell id="8fTbJQ_2yBlo6duqBfsQ-17" style="edgeStyle=orthogonalEdgeStyle;rounded=0;orthogonalLoop=1;jettySize=auto;html=1;entryX=1;entryY=0.5;entryDx=0;entryDy=0;" parent="1" source="8fTbJQ_2yBlo6duqBfsQ-5" target="8fTbJQ_2yBlo6duqBfsQ-9" edge="1">
          <mxGeometry relative="1" as="geometry" />
        </mxCell>
        <mxCell id="8fTbJQ_2yBlo6duqBfsQ-5" value="SSML-Experiment" style="rounded=1;whiteSpace=wrap;html=1;fillColor=#dae8fc;strokeColor=#6c8ebf;" parent="1" vertex="1">
          <mxGeometry x="370" y="370" width="180" height="60" as="geometry" />
        </mxCell>
        <mxCell id="8fTbJQ_2yBlo6duqBfsQ-6" value="" style="shape=image;verticalLabelPosition=bottom;labelBackgroundColor=default;verticalAlign=top;aspect=fixed;imageAspect=0;image=data:image/png,iVBORw0KGgoAAAANSUhEUgAAAgAAAAIACAYAAAD0eNT6AAAAAXNSR0IArs4c6QAAIABJREFUeAHtnQncfed0738ZiQoNQUgqCElEuNRwldu6bs1KUnMNqasoSTQVY1VJjaGoIQ1pc03hGm9VzZWBckUQKUEzESQRVIKIJGRoz+Lsf97/+Z/nfc85z7P2ftZ+vvvzeT/nnOfdz7PX+q6111p7erbEAgEIQAACEIAABCAAAQhAAAIQgAAEIAABCEAAAhCAAAQgAAEIQAACEIAABCAAAQhAAAIQgAAEIAABCEAAAhCAAAQgAAEIQAACEIAABCAAAQhAAAIQgAAEIAABCEAAAhCAAAQgAAEIQAACEIAABCAAAQhAAAIQgAAEIAABCEAAAhCAAAQgAAEIQAACEIAABCAAAQhAAAIQgAAEIAABCEAAAhCAAAQgAAEIQAACEIAABCAAAQhAAAIQgAAEIAABCEAAAhCAAAQgAAEIQAACEIAABCAAAQhAAAIQgAAEIAABCEAAAhCAAAQgAIEABLaWdDNJ95F0sKS/knS4pKMkvXP6Z9+tzf5n69i6u0vaKoB+iAgBCEAAAhCAgKSdJO0/+XydpFMkXSrpP1f8u0TSl6dj7TcdG8gQgAAEIAABCFRC4MaSniHpi5KuWDHZL1Ik2NhfkHSopF0q0R0xIAABCEAAAk0R2FbSIyV91DnppwoDKwZs24+QtE1T5FEWAhCAAAQgMACB7SUdIOl0xyP9VNJPtZ8t6ZDJfQTXHIAHm4QABCAAAQiMmoAdZT9V0rkVJf7ZguC7kp4syW48ZIEABCAAAQhAIJPAHSR9vuLEP1sInCzpv2fqTHcIQAACEIBAswSuLenIyeN5VwZK/l0xYPcIHCHpN5q1HopDAAIQgAAEViBwa0mnBkz8XQHQfZ4m6XYr6E8XCEAAAhCAQHME7Ca/n48g+XdFgM1FYDcJskAAAhCAAAQgMIeA3Txnp/y7xDm2zzdwg+Acq9MEAQhAAAJNE7DH+9494uTfFTP/yOOCTfs5ykMAAhCAwBoCdrPfsQ0k/64I+KQk05kFAhCAAAQg0CwBO/L/eEPJvysCjpd0jWatjuIQgAAEINA0Abvm/54Gk39XBHyAaYSb9n+UhwAEINAsgTHf8Ncl+Y0+X9+s9VEcAhCAAASaJGBT5m6UHFv5//9u0gNQGgIQgAAEmiOw78ie888tVGyegP/WnBegMAQgAAEINEXApsb9Bkf/W5z9sLcb7tiUJ6AsBCAAAQg0RYDr/ulLHzZREAsEIAABCEBgdATuJMlekpN7ynys/e2lR3cZndVRCAIQgAAEmiawjaQvVZD87Xq7vWTIJuP5p+mffbe2yyqQ7ySmC256P0F5CEAAAqMj8NSBkusvJjfY2fP2fypprw2Sq81LsLekp0wLA+s7xNmGJ43O+igEAQhAAAJNErAZ787tOZmeI+lQSdfLIH796Rjn9Sz7dyTZDIksEIAABCAAgdAE+nzm/6eS/rxwArUC5hmTYuCiHguBPwltcYSHAAQgAIHmCWwr6ayeEucnJN3EkfiuPb606EymCXa0JENDAAIQgIA7gUf2kPyvmmzjhRtc3y+lqN0n8KIedLJ7Dx5WSmjGgQAEIAABCPRN4GPOydIeKxzidLndqOf9SOOH+zYW24MABCAAAQiUIHAjSZc7FgB25P/EEoKuOIYVAZ5PCRi7XVaUjW4QgAAEIACBwQjYjXOeCdJO+w+9vMRZR7uhkQUCEIAABCAQisAXHZOj3fBn1+OHXmyCo+Mc9TxxaAXZPgQgAAEIQGAZAjs5XiO3R/087/ZfRk9bd7fJY4I/cyoC7DLAdZcViPUhAAEIQAACQxHY3ykh2iWFGk+LP8tR3wcNZUS2CwEIQAACEFiWwOudEqLN8FfjLHk2WZDXjIF/uyx81ocABCAAAQgMReAUpwLg6UMptMB2n+mk88kLbJtVIAABCEAAAoMTsJvzLnFIhvZynp0H1y4tgL07wOMFQhdL2iq9Wf4DAQhAAAIQqIPA7g7J367921v9al8+5KT7b9WuOPJBAAIQgAAE7uuUBO2VvrUvBznpfq/aFUc+CEAAAhCAgFcS3CsA2n2cCoADA+iOiBCAAAQg0DiBFzgkwUuDvB3PJgYyWUvPgPj8xn0K9SEAAQhAIACBVzokwK8G0LsT8WsO+r+iG5xPCEAAAhCAQK0E3uSQAI+tVdk5cp3goP+Rc7ZDEwQgAAEIQKAqAu9wSID/VJWG6wvzQQf9j1l/k/wXAhCAAAQgMDyBdzokwNYLACuqWCAAAQhAAAJVE/gHhwKg9UsAR1VtcYSDAAQgAAEISHqtQwHQ+k2AvA+AXQsCEIAABKon8BKHAsAerbMphmtf7DHAyxz0f1HtiiMfBCAAAQhA4CkOCdCeq987AFqviYCeHEB3RIQABCAAgcYJeE0FbIVF7cvBTsUPUwHXbnnkgwAEIAAB7emUBCM8CfBhJ91viV9BAAIQgAAEaiewvdN1cHvVrr1yt9blBpJ+6VAA2P0P29WqNHJBAAIQgAAE1hI40SER2n0Ah67dSGXfn+Wk8/+vTE/EgQAEIAABCCQJ2GNrpV+IY+OdL+maya0O9w+T6TwnnV81nFpsGQIQgAAEILAcgUc6JUMrAp6xnCi9rP1cR30f1osGbAQCEIAABCBQgIBdq7/cKSleJGnXAjKWGuKmki520tXuKdiplKCMAwEIQAACEOiDgMdb8brLCja2Tboz9GKTE9k0xZ1cpT8jTYE8tC3YPgQgAAEIVELgzx0ToyXaGmbHe7mzjodUYkvEgAAEIAABCCxMYDdJVzgnyCctLE35Fb1mPOzOItgllJoudZQnyIgQgAAEIDBaAh90LgCswBhimlxL/t7FzQdG6xUoBgEIQAACoyfwQOcCoDtathcQ9XFPgG3D+7R/p9P9Ru8dKAgBCEAAAqMlYAnzrJ6KgOMk2WUHr8Xu9ve8sbFL/PZ5epC3H3qxZlwIQAACEBgBgcf3VABY4vyZJJuRr+RkQTtMpja25/y9HvVbm/i7748dgd1RAQIQgAAEGiewraQzeywCLIl+b5Kwnylp5wz2Nre/FRM2+2CXmPv4PK2nyxkZaOgKAQhAAAIQWIzAY3pOol2itol0/lnSQZJuvUFitcsV+0zXtbf6ebzYp5Nrvc9HLYaUtSAAAQhAAAL1E9hK0qcGKgLWJtvLJH1dkt0vYE8o2J99tzb739p1h/hushgrFghAAAIQgMBoCNjR9VBH1UMk82W3aa87trMULBCAAAQgAIHREXhxBUfZyybmvtY/bHTWRiEIQAACEIDAlIDdEPg5ioAtLjWcJGk7vAQCEIAABCAwZgL2PP2FFAGbioCfSLr5mA2ObhCAAAQgAIGOwH6SrqQI+BUDY8ECAQhAAAIQaIbAMygAZG9MZIEABCAAAQg0R+DIhouANzRnbRSGAAQgAAEITAnYM+9vbLAI+D/M9c8+AAEIQAACrROwIqClMwFHk/xbd3n0hwAEIACBjsDWkl7TwJmAVzHTX2dyPiEAAQhAAAJXE3jiSGcLvHz6joGrNeUbBCAAAQhAAAKbEfh9Sd8f0dkAe5vgPTfTkB8QgAAEIAABCMwlYK/itbf49TUNr9d2PiHpxnM1pBECEIAABCAAgbkE7OZAe42vzZTnlaC9xjWZD+R6/1y70ggBCEAAAhBYiMAukt4u6aoAhYDJ+F5Juy2kGStBAAIQgAAEILAhgbtJOrbiIsBkMxlZIAABCEAAAhBwIPA/JNm19RrOCJgMJsvdHfRkSAhAAAIQgAAE5hC4laTDJf1ggLMC9jbDoyTtO0cumiAAAQhAAAIQ6IHA9pLuP51S+FzHYsDGtmmL7yfJtskCAQhAAAIQgEAlBOzJgQ85FAE2po3NAgEIQAACEIBApQTsLvzSj/fZmCwQgAAEIAABCFRMgAKgYuMgGgQgAAEIQMCLAAWAF1nGhQAEIAABCFRMgAKgYuMgGgQgAAEIQMCLAAWAF1nGhQAEIAABCFRMgAKgYuMgGgQgAAEIQMCLAAWAF1nGhQAEIAABCFRMgAKgYuMgGgQgAAEIQMCLAAWAF1nGhQAEIAABCFRMgAKgYuMgGgQgAAEIQMCLAAWAF1nGhQAEIAABCFRMgAKgYuMgGgQgAAEIQMCLAAWAF1nGhQAEIAABCFRMgAKgYuMgGgQgAAEIQMCLAAWAF1nGhQAEIAABCFRMgAKgYuMgGgQgAAEIQMCLAAWAF1nGhQAEIAABCFRMgAKgYuMgGgQgAAEIQMCLAAWAF1nGhQAEIAABCFRMgAKgYuMgGgQgAAEIQMCLAAWAF1nGhQAEIAABCFRMgAKgYuMgGgQgAAEIQMCLAAWAF1nGhQAEIAABCFRMgAKgYuMgGgQgAAEIQMCLAAWAF1nGhQAEIAABCFRMgAKgYuMgGgQgAAEIQMCLAAWAF1nGhQAEIAABCFRMgAKgYuMgGgQgAAEIQMCLAAWAF1nGhQAEIAABCFRMgAKgYuMgGgQgAAEIQMCLAAWAF1nGhQAEIAABCFRMgAKgYuMgGgQgAAEIQMCLAAWAF1nGhQAEIAABCFRMgAKgYuMgGgQgAAEIQMCLAAWAF1nGhQAEIAABCFRMgAKgYuMgGgQgAAEIQMCLAAWAF1nGhQAEIAABCFRMgAKgYuMgGgQgAAEIQMCLAAWAF1nGhQAEIAABCFRMgAKgYuMgGgQgAAEIQMCLAAWAF1nGhQAEIAABCFRMgAKgYuMgGgQgAAEIQMCLAAWAF1nGhQAEIDAwgR0k3V7SIyQ9TdJzJR0u6QhJb5FkCYC/dhmcI+k/C//ZmPhU2wwstliMsVhjMcdij8Ugi0UWk1ggAIHCBK4r6UGSXi3pE5K+LemqwsG9dLJgvPIJGKYwrdkHLCadPY1RFqssZlnsYoEABJYgsI2ke02r7C9IuoJkX/xotuZAimwk+rH4gMWuk6ax7PclWWxjgQAE5hDYZ9J22PQIfywBAD1IZvgAPtD5wHmSXifpDnPiH00QaI6AXTc7SNKXOcrnKB8fwAca8oGTJR3IvQPN5TwUlnRtSYdIsoq4q475hAU+gA+05gM/nGQEO/P5m2QGCIydgN0UY85+IYmfwgcfwAfwgU0+cMGExQslXWfsSQD92iRgd8V6PJ7V2hED+nKUjA+M1wfOl3SApK3aTBNoPTYCt5L0L1T6myp9gvd4gze2xbalfOBTkm4ztmSAPu0Q2Hby2MuLJf2S5E/yxwfwAXxgaR/4xeRMwF9LsljKAoEwBHaT9Bl2+KV3+FJHD4zDkSg+MB4f+LSkXcNEfwRtmoBN4vN9kj/JHx/AB/CBYj7wH5Ie0HRmQfmqCdhNKy9jmt5iOzxHcOM5gsOW2LKED9h0w3ZZlRsEq06F7QlnU1weTbVP8scH8AF8wN0HjpG0XXtpBo1rJHAtSR9mp3ff6UscQTAGR6L4wDh8wJ6ssgnVWCAwGIGdJi/u+SzJn+SPD+AD+EDvPmAvGtp5sOjPhpsmsKOkL7HT977TcwQ3jiM47IgdS/jAFyevSrdYzAKB3ghsL+njJH+SPz6AD+ADg/vAcZKu0Vv0Z0NNE9ha0nvY6Qff6UscPTAGR6H4wDh84F2SLDazQMCVwBtI/iR/fAAfwAeq84HXukZ+Bm+ewB+x01e303MEN44jOOyIHUv4wOOaz1IAcCFwa0kXV1oA2Du17YZEe4HGRyS9lz8Y4AP4QGEf+Og0xpwsyWJOiYRdeoyfSdrbJQMwaLME7Fn/UytxeJsS832SDprciHhXSfYoIgsEIACBvglcbxqDDpb0fkk/qiRGflXSDn3DYHvjJTD0LH8XSDpS0u9wo8t4nQzNIBCcgN2EdzdJb5R04cDFwN8HZ4n4lRC4z4CO/A1JB/CISyWegBgQgMCiBOyxvD+WdNqA8dNezMYCgZUJmBOfMYAD2zYfxtH+ynajIwQgUAcBOyvwCElnDRBHrfiwOVtYILASgRf07LSXTKQ8TNI1V5KWThCAAATqJGCJ+DmTv0t7jqnPqxMHUtVO4BaSLCGXvks1Nd4pkvasHQryQQACEMggYHfof6XHuPpzSTfLkJeujRKwO+1Tybp0u900w1F/o46G2hBojIDdoX9Uj/H13Y3xRd1MAvbM/5U9OOhVkg7NlJXuEIAABCISsMcH+4izto3bRASEzMMQOKaH5P+LyR2yjxpGPbYKAQhAoAoCD+npvoC3VqEtQlRPwK79X+5cAFwhaf/qSSAgBCAAAX8CfyjJYmLpS6trx7OYfnN/VdhCdALe16bstP8To0NCfghAAAIFCTzZuQCwYuBNBeVlqBESuI4ku2t0beVY+vuLR8gNlSAAAQjkEniZc+y12L5jrpD0Hy+BP3F2QHtZzzbjxYdmEIAABFYmYLHxOOcY/PiVpaPj6AlYgi59xN+N94PJoy83Hj1BFIQABCCwOoFdJy86sxeedXGz9Ofxq4tGzzET2N35kZTHjhkeukEAAhAoRMCO0ksn/m48uweLiYEKGWpMwzzf0elOkLTVmGChCwQgAAEnAhYrP+MYj//CSW6GDUzgRCeHs0ko9g3MBdEhAAEI9E3g9pLsaL07ci/5+dm+lWF7dROwO0N/6eRsNqUwCwQgAAEILEfgA04x2eYE4GmA5Wwx6rX/wMnRrGq946jJoRwEIAABHwJ3cDwLcD8fkRk1IoFXOxUA3HEa0RuQGQIQqIXAp51i8ytrURA5hifwZScn45nT4W2LBBCAQFwCXnOzfCkuEiQvSWB7p7n/L+Y6U0kzMRYEINAgAa/ZWe2er+0a5InKMwTs1b8l7zDtxvp/M9vhJwQgAAEILE/gg04xeq/lRaHH2AjYW/m6pF3y86CxgUIfCEAAAgMQOMQpRj9oAF3YZGUEnuvkXPtUpifiQAACEIhI4LZOMfpZEWEgc1kCb3Zwrh8z819ZIzEaBCDQLAGbGfCnDnH66GaJovgmAh5vn/r8ptH5AgEIQAACuQS+4FAAfDJXKPrHJ/BFB8d6a3wsaAABCECgGgLHOMTpk6rRDkEGI/DvDo71gsG0YcMQgAAExkfgMIc4/Y3xYUKjZQmc6+BYdtcqCwQgAAEIlCFwqEOcPqeMaIwSmYDHzSU2exULBCAAAQiUIfBEhwLgJ2VEY5TIBK5wcKxHRgaC7BCAAAQqI/AohzhtsZ+lcQIlJ//pxnp440xRHwIQgEBJAhZTu/ha8rOkjIwVkEBJZ+rGogAI6AiIDAEIVEuAAqBa08QWrEvaJT8pAGL7BNJDAAJ1EaAAqMseo5GmZOLvxqIAGI17oAgEIFABAQqACowwRhG6pF3ykwJgjJ6CThCAwFAEKACGIj/y7ZZM/N1YFAAjdxrUgwAEeiVAAdAr7nY21iXtkp8UAO34D5pCAAL+BCgA/Bk3uYWSib8biwKgSVdCaQhAwIkABYAT2NaH7ZJ2yU8KgNa9Cv0hAIGSBCgAStJkrE0ESib+biwKgE14+QIBCEAgmwAFQDZCBphHoEvaJT8pAOaRpg0CEIDAagQoAFbjRq8NCJRM/N1YFAAbQOffEIAABJYgQAGwBCxWXZxAl7RLflIALM6fNSEAAQhsRIACYCNC/H8lAiUTfzcWBcBKpqATBCAAgbkEKADmYqExl0CXtEt+UgDkWoX+EIAABK4mQAFwNQu+FSRQMvF3Y1EAFDQQQ0EAAs0ToABo3gV8AHRJu+QnBYCPrRgVAhBokwAFQJt2d9e6ZOLvxqIAcDcbG4AABBoiQAHQkLH7VLVL2iU/KQD6tCDbggAExk6AAmDsFh5Iv5KJvxuLAmAgY7JZCEBglAQoAEZp1uGV6pJ2yU8KgOHtigQQgMB4CFAAjMeWVWlSMvF3Y1EAVGVihIEABIIToAAIbsBaxe+SdslPCoBarY1cEIBARAIUABGtFkDmkom/G4sCIIDhERECEAhDgAIgjKliCdol7ZKfFACxfABpIQCBuglQANRtn7DSlUz83VgUAGHdAcEhAIEKCVAAVGiUMYjUJe2SnxQAY/AMdIAABGohQAFQiyVGJkfJxN+NRQEwMidBHQhAYFACFACD4h/vxrukXfKTAmC8/oJmEIBA/wQoAPpn3sQWSyb+biwKgCZcByUhAIGeCFAA9AS6tc10SbvkJwVAa16EvhCAgCcBCgBPuj2NvY2kPSTdUdK9JO0nyQw75F/JxN+NRQHQk0MtuZl5/mc+aL5oPnkLSbYOyzgJYP+4dvUqAIbMPbbtUcefvSUdKOndkk6VdJmkLkmO+ZMCoI5As4r/mY+ar75L0lMnn3vVoQpSrEAA+68ArdIuXgVAbXkofPzZR9Lhkr7bSLKf50AUAMNFEQ//+46kl0u69XBqseUFCWD/BUEFW62VAmBePqk+/mwlaX9JJzac9NcajgKg3+jSp/99TtKDJdk2WeoggP3rsIOnFC0XAGtzS3Xx5w+np0zXCtn6dwoAz1Cw+dhD+d9XpoXA5tLwq28C2L9v4sNsjwJg88vng8cfu2HqIxzxz72ngQLAP0jU4n8fknRzf3XZwgwB7D8DZOQ/KQA2LwC6g+xB4s9TJF1C8p+b/M0wFAC+0ag2/7N94Um+KjP6GgLYfw2MRr5SAMwvACzf9BZ/dpT0f0n8ycTfVWUUAD5RqXb/e7+k6/qozqiSsH+7bkABkC4AurzjGn92mTyzeArJf8PkzxkAnyAVxf/sEcJdfRA0PSr2b9r8vzqr2iU6PtPFgEv8settZ5L8F0r+FADlA1U0/zt7cqZsz/IYmh0R+zdr+k2KcwYgnfRnC6Ki8cd2vu+R/BdO/hQAm/bZIl+i+t95km5WhEDbg2D/tu3faU8BsHgBYDmoSPy5gaTTSP5LJX8KgG6Xzf+M7n9nSbpRPoZmR8D+zZp+C8UpAJYrACwPZcWfa0j6Asl/6eRPAbDFvrtSw1j8zybH2n4lAm13wv5t239WewqA5QsAy0Urx583kPxXSv4UALO77mq/x+R/r1kNQdO9sH/T5t9CeQqA1QoAy0dLx5+HkPxXTv4UAFvsu0s3jM3/rpq+9WtpEI12wP6NGn4dtSkAVi8Aloo/1+Gmv6zkTwGwzl68wL/G6n/nM0fAAtaXsP9CmJpbiQJg9QLActLC8ecIjv4pAAYML2P2v78dkGuUTWP/KJbqV04KgLwCwIqADePP7SRdQQFAAdDvvr1pa2P3v8sl2etqWeYTwP7zudD66+nVLYnxtzqDDePPewBcxMGsWmVZnkAL/veO5bE00wP7N2PqpRXlDMDqiX9t0ZSMP7fk6L9I8jfYFABL799qxf/sDNutlscz+h7Yf/QmzlKQAqBMAZCMP3/H0T8FQNYumte5Jf+zR9xYNieA/Tfnwa/NCVAAlCkA7AB1i/hjE5X8iAKAAmDzfa63X6353wVMDrSZb2H/zXDwYw4BCoByBcAW8eehPSX/n0p6uyTb3t6SfmOOoftuWnt9pNR3LgEsZ8Uh/c980HzxYVPfvKinfWG/5RCNem3sP2rzFlHOqwAoIlzGIFXEn3c5Bz27+/B1knbOAOXVtVTSXzsOBcBy1urD/167oP/Z/PN2isz7aZhjlkM06rWx/6jNW0S5sRYAs3B6jz9bTScJWJvASn63I6o/mNWyot8lde3GogBY3MDe/mdnnVbxv/tK+rFjYWxv62KRsD9esAiBVgqAjkVv8ceeS+4SV+nPiyXdodOo0s/SOtt4FACLG9vb/26/uChbrHlHST933D/s0kPrC/Zv3QMW07+1AsCo9BJ/nugY4Oy6au0LBcCwFvL0P7u2nLs80nH/eEKucCPoj/1HYMQeVGixADCs7vHnVU4B7qM9OEWJTVAAlKC4+hgR/O9fnPaRV6yObTQ9sf9oTOmqSKsFgEF1jT8fcgpud3J1h3KDUwCUY7nKSF7+Z6fPSi13cdpHPlhKwMDjYP/AxutR9JYLANf483WH4HZWj46RuykKgFyCef2j+N+3HPaTr+WhG0Vv7D8KM7or0XIBYHDd4s+5DoFti5mG3N1j9Q1QAKzOrkTPKP7nMVPdOSUABh8D+wc3YE/it14AuMUfe0yqdBI8tCenKLGZ0rrbeOasLIsRiOJ/z3TYT36yGKJRr4X9R23eYsq1XgC4xR+PCU8eXczs/gNRAPgzXm8LHv732PU2uOL/bMzSvmITZLW+YP/WPWAx/VsvAB7jEH9s3yse1KIdAZcO6tH0X2z381vL4zn7Ax3EPdhhX7F5MlpfsH/rHrCY/q0XAG76t54AW9d/sd3Pb63vOyTWlzqI+zIHOc93kDPakNg/msWGkdctAQ6jztJbddO/9QTYuv5Le2LhDmc6JNZ/LSyjDfdZBznPcJAz2pDYP5rFhpHXLQEOo87SW3XTv/UE2Lr+S3ti4Q6fckisdm3rhgXl3EXSlQ5yHl9QxqhDYf+olutXbrcE2K8aK2/NTf/WE2Dr+q/skYU6HuWQWM2mrywknw3zGicZjywoY9ShsH9Uy/Urt1sC7FeNlbfmpn/rCbB1/Vf2yEIdn+6UXC+VtEcBGfeUdJmTjIcUkC/6ENg/ugX7kd8tAfYjfvZW3PRvPQG2rn+2Z2YOcA+n5Gp2PVXSjhnyXWcyp4PHTHWdz/1uhmxj6Yr9x2JJXz3cEqCv2MVGd9O/C0YlP03YKEtJvbuxIuk/tJ2uIekSxyLgBEnXX0HJnSXZzYSdTUt/2iOA268g19i6YP+xWdRHH7cE6CNu8VHd9C8d2Gy8SAmwdf2Le+oKAx7rmGjNvvZuit9bQq57Os29vdbXPr6EPGNfFfuP3cL5+rklwHzRehnBTf+1QanUdwqAXnxiNBvxug4868/25rn9JO0wh9y1JO0v6SPOxUgn09PmyNBqE/Zv1fKL6+2WABcXYdA13fTvAlLJTwqAQX0l3MZvJMmmxS3pg+uNZbPP2f0BH5v+2XfPyxCzsvxS0g3CWclPYOzvx3YsI7slwCCA3PSfDU4lflMABPGqisTs68i7hH/njvHBirjXIgr2r8USdcrhlgDrVHcLqdz0zw1m8/pTAGxhPxo2IPBEYZIcAAAftElEQVTAHs8AzPPZPtvuvwGLFv+N/Vu0+uI6uyXAxUUYdE03/T0CHwXAoL4SduNfaqAI+LKkrcJayFdw7O/LN/LobgkwCBQ3/SkAyl97jlQA1eT/Xk7u4eOrjmk3GrLMJ4D953Oh9ddPlq26z63XLwpbr33D5carSAlwPedY9X+R9K9pB7AjY4+54Ve1Y+l+Nq8AR/9pj8P+aTat/8ctAQYB66Z/6SBn40VKgK3rX5v/7yvJ7pL3sMuQY9pTDrerDXaF8mD/Co1SgUhuCbAC3RYRwU1/j6BIAbCISVknReBvRlgAvDylLO1bEMD+WyBpvsEtAQYh66Y/BUD5o81IBVCN/r+dpM+NqAg4iWl/l3Iz7L8UriZWdkuAQei56U8BQAFQ4z5wU0kXjKAIuFDSzWoEXLlM2L9yA/UsnlsC7FmPVTfnpj8FAAXAqk7p3c/m5Pd6Fa+H38+O+QtJ9/aGNOLxsf+Ijbukam4JcEk5hlrdTf/ZoFXitwkbZSmh7+wYkfSv3U722NwVAc8EXBnsZtha/QD712qZfuVyS4D9qrHy1tz0n01eJX5HSoAl9J0dI5L+K3tkjx2fEKwIsDv+H98jn7FvCvuP3cIb6+eWADfedBVruOk/m7xK/I6UAEvoOztGJP2r8O4FhHhwzy/smbXpor/tksVDF9CHVZYjgP2X4zW2td0SYBBQbvovGtiWWS9SAlxGr0XXjaR/EP//lZh3l3RexZcDzpF010hAg8mK/YMZrKC4bgmwoIyeQ7npv2hSW2a9SAlwGb0WXTeS/p5O6zH2zpI+WmERcKwke60tiy8B7O/Lt9bR3RJgrQrPyOWm/6JJbZn1IiXAZfRadN1I+s/4WYifW0s6WNKPKygE7DG/pzLFb69+g/17xV3FxtwSYBXabSyEm/6LJrVl1ouUAJfRa9F1I+m/sevVu4Ydcb9Nkt1xv6htSq1n23yzpBvWi2f0kmH/0Zt4k4JuCXDTFur+4qZ/qYC4dpxICXCt3KW+R9K/brdfTLo9JB0lye6+L2XD1DiW+N8rae/FRGOtHghg/x4gD7wJtwQ4sF6Lbt5N/1Sgy2mPlABz9Ez1jaT/og4YYb3dJb1A0hkOhcDpk0cRnz856rcZ6ljqJID967RLCancEmAJ4XoYw03/VBLLaY+UAHP0TPWNpH8PvjvIJu48OSPwl5KOk3TpCgXBJZLsxr7nSbrTIBqw0RwC2D+HXn193RJgfarOlchN/1QSy2mPlABz9Ez1jaT/XG8bWaO9XGYvSTar3HMkHT69ZPAOSfb3pmnbs6fr2LrWh2UcBLB/fDu6JcAgaNz0TyWxnPZICTBHz1TfSPoH8X/EhAAEGibglgCDMHXTP5XEctojJcAcPVN9I+kfxP8REwIQaJiAWwIMwtRN/1QSy2mPlABz9Ez1jaR/EP9HTAhAoGECbgkwCFM3/VNJLKc9UgLM0TPVN5L+QfwfMSEAgYYJuCXAIEzd9E8lsZz2SAkwR89U30j6B/F/xIQABBom4JYAgzB10z+VxHLaIyXAHD1TfSPpH8T/ERMCEGiYgFsCDMLUTf9UEstpj5QAc/RM9Y2kfxD/R0wIQKBhAm4JMAhTN/1TSSynPVICzNEz1TeS/kH8HzEhAIGGCbglwCBM3fRPJbGc9kgJMEfPVN9I+gfxf8SEAAQaJuCWAIMwddM/lcRy2iMlwBw9U30j6R/E/xETAhBomIBbAgzC1E3/VBLLaY+UAHP0TPWNpH8Q/0dMCECgYQJuCTAIUzf9U0kspz1SAszRM9U3kv5B/B8xIQCBhgm4JcAgTN30TyWxnPZICTBHz1TfSPoH8X/EhAAEGibglgCDMHXTP5XEctojJcAcPVN9I+kfxP8REwIQaJiAWwIMwtRN/1QSy2mPlABz9Ez1jaR/EP9HTAhAoGECbgkwCFM3/VNJLKc9UgLM0TPVN5L+QfwfMSEAgYYJuCXAIEzd9E8lsZz2SAkwR89U30j6B/F/xIQABBom4JYAgzB10z+VxHLaIyXAHD1TfSPpH8T/ERMCEGiYgFsCDMLUTf9UEstpj5QAc/RM9Y2kfxD/R0wIQKBhAm4JMAhTN/1TSSynPVICzNEz1TeS/kH8HzEhAIGGCbglwCBM3fRPJbGc9kgJMEfPVN9I+gfxf8SEAAQaJuCWAIMwddM/lcRy2iMlwBw9U30j6R/E/xETAhBomIBbAgzC1E3/VBLLaY+UAHP0TPWNpH8Q/0dMCECgYQJuCTAIUzf9U0kspz1SAszRM9U3kv5B/B8xIQCBhgm4JcAgTN30TyWxnPZICTBHz1TfSPoH8X/EhAAEGibglgCDMHXTP5XEctojJcAcPVN9I+kfxP8REwIQaJiAWwIMwtRN/1QSy2mPlABz9Ez1jaR/EP9HTAhAoGECbgkwCFM3/VNJLKc9UgLM0TPVN5L+QfwfMSEAgYYJuCXAIEzd9E8lsZz2SAkwR89U30j6B/F/xIQABBom4JYAgzB10z+VxHLaIyXAHD1TfSPpH8T/ERMCEGiYgFsCDMLUTf9UEstpj5QAc/RM9Y2kfxD/R0wIQKBhAm4JMAhTN/1TSSynPVICzNEz1TeS/kH8HzEhAIGGCbglwCBM3fRPJbGc9kgJMEfPVN9I+gfxf8SEAAQaJuCWAIMwddM/lcRy2iMlwBw9U30j6R/E/xETAhBomIBbAgzC1E3/VBLLaY+UAHP0TPWNpH8Q/0dMCECgYQJuCTAIUzf9U0kspz1SAszRM9U3kv5B/B8xIQCBhgm4JcAgTN30TyWxnPZICTBHz1TfSPoH8X/EhAAEGibglgCDMHXTP5XEctojJcAcPVN9I+kfxP8REwIQaJiAWwIMwtRN/1QSy2mPlABz9Ez1jaR/EP9HTAhAoGECbgkwCFM3/VNJLKc9UgLM0TPVN5L+QfwfMSEAgYYJuCXAIEzd9E8lsZz2SAkwR89U30j6B/F/xIQABBom4JYAgzB10z+VxHLaIyXAHD1TfSPpH8T/ERMCEGiYgFsCDMLUTf9UEstpj5QAc/RM9Y2kfxD/R0wIQKBhAm4JMAhTN/1TSSynPVICzNEz1TeS/kH8HzEhAIGGCbglwCBM3fRPJbGc9kgJMEfPVN9I+gfxf8SEAAQaJuCWAIMwddM/lcRy2iMlwBw9U30j6R/E/xETAhBomIBbAgzC1E3/VBLLaY+UAHP0TPWNpH8Q/0dMCECgYQJuCTAIUzf9U0kspz1SAszRM9U3kv5B/B8xIQCBhgm4JcAgTN30TyWxnPZICTBHz1TfSPoH8X/EhAAEGibglgCDMHXTP5XEctojJcAcPVN9I+kfxP8REwIQaJiAWwIMwtRN/1QSy2mPlABz9Ez1jaR/EP9HTAhAoGECbgkwCFM3/VNJLKc9UgLM0TPVN5L+QfwfMSEAgYYJuCXAIEzd9E8lsZz2SAkwR89U30j6B/F/xIQABBom4JYAgzB10z+VxHLaIyXAHD1TfSPpH8T/ERMCEGiYgFsCDMLUTf9UEstpj5QAc/RM9Y2kfxD/R0wIQKBhAm4JMAhTN/1TSSynPVICzNEz1TeS/kH8HzEhAIGGCbglwCBM3fRPJbGc9kgJMEfPVN9I+gfxf8SEAAQaJuCWAIMwddM/lcRy2iMlwBw9U30j6R/E/xETAhBomIBbAgzC1E3/VBLLaY+UAHP0TPWNpH8Q/0dMCECgYQJuCTAIUzf9U0kspz1SAszRM9U3kv5B/B8xIQCBhgm4JcAgTN30TyWxnPZICTBHz1TfSPoH8X/EhAAEGibglgCDMHXTP5XEctojJcAcPVN9I+kfxP8HEXM7SXeR9ARJT5N0iKR7S7rBINKw0fUImE3MNmYjs5XZ7M6SzIYs8Qm4JcAgaNz0TyWxnPZICTBHz1TfSPoH8f9exbyVpCMkXSRpno2vkPRhSQ+StHWvkrGxtQSMvdnAbGE2mWcrs6HZ8pZrO/I9HAG3BBiEhJv+VyV2nHk706JtjwgC1cRcVKdl1qMACOQAa0S1hGJHkJct4RdnSnoyR5prKPp/NTvZPva1Jez0y4lYh0naxl88tuBAwC0BOsjqMaTl1GVy0CLrWu7Xzx0GPtCDgNOYi4Badh0KACdjOQ5rieGdGfvCt6fFw7UcZWx96GtIOkDSGRl2ep+kbVsHGVD/1guAgzN8PpW/LjY/+L7DwC8N5GApODntFACBHGAq6tGF9gPbn54v6cbxEFQr8U0k/VXBWPX31WqKYCkCrRcALysUn9bmtfMNtp3CXNtY4vu/pqxYYXsJfWfHoACo0NDriPQAh33Arkl/cnqqmtPO68BP/MtO899L0nsl2en72X0s9/d+ie3SXCeB1guAzzrsA3YmTZ9yGNiC3w3r9KMtpMoNJPP6UwBsgbnaBkvOZzvsA2v94puT+wqeK2nXainUI9hukv5icqr/W842sfEpzOqx+0aStFwA7DI5A3alw/5wvEE/ymFgC36v3Miilfx/baAu9Z0CoBLjLiDGA538f54v2U5slbzdaEgxcLVxLOkbE2PjEejm2cLa7ne1CHyrnEDLBcCrnWLUkWbzpzsNfqmkPSp3KhMvFRxy2ikAAhh+KuIxTj6wkf9YovuMpD+TdLM4uIpJevOBkv5au7ylmDYM5E2g1QLAHkle5qmktf690XcrunUPxwB4qqQdvT0jc/yNIK3yfwqATKP02P3rjv6/jO/YZQI7G2e+c70e9e9rU9eeXtM/XNKXKmH+b30pz3ayCbRYAFxnEg8849PvmlXs0ZpLHHfIEyRdP9v8fgMsE6QXXZcCwM9epUe2M1WL2rWv9ewemhMlvWLyrPvDgp4hsLMath/YpcDPrzNRT19M523nZ6WdifHcCLRWAOws6dOOsckeAdy+s9axjhuyHe8sSb/Xbayyz3mBIbeNAqAyI68jjmfxm+tHa/v/cDIt8UcnMw++SNJDJO0r6Zrr6NXXv0yG205lerGkj0n6D+d4spZLzvef9gWJ7WQTaKkA+J893AT78bUW8boPYHbn/JAke/xmh7UbH/j7rIwlflMADGzUJTbvMQ9GCR9aZAy7j8AmILLHDe2GnkMnxfZjp3Pi3246F0HOpDfW1+YzsLFsnn0b+xmS3ijJDhq+I8ljJtFFdC+xzrlL+AmrDktg7AWATSC2/+T9FR/pqXi292VsWm4k6fKeNmw7rs0+aPcH2NGCPec75F+JQDI7BgXAJteq/osdVc/ab2y/7Yjc7jGwv5On1+Dt9KIVDvZn3+26/JfXrBflKD7HVv9cvXciYEfAqwAYMvfYti0HWi7s80ykzauxxQvN+qo8cnbYKH0pALrdtv7PZzdQAETZb/qW085msMQg4FUA9O1zNWzvg/NM3ufz0DVA8JSBAmCeh9XZZpVwjTcCevonY//6iKvmm5Pr3FuGk4oCoNyZyvunzFjL4znRAxQFQMrD6mx/HWcBRn8ZZDamvKpOV0SqBAEKgDIFgF3m2yrB+FeP7czuKPxeHjwFQMrD6my3G3BOpwhopgj498puRK5zr6hLKgqA5fPQvNxtNxomF6sMPN4NME+QMbdRACRdrNp/3FrS9ygCRl8E2J3/e1XrhQiWIkABkF8A2Ev6kkf/HXh7vtjj7VtjTvizulEAdN4U63PP6R25s/bkd37wqYHhVyXdMpZLIu2UAAVA3j5oT/nZ47wLLX/DkVDWkRAFwEJuVuVKNjvWCyfPu9sscTUkLWTIt4PZ0my6aeazKj0PodYjQAGQtx+8fD24s//bTtLnCIArJwAKgFmPivfb5uF+jqQfsR+svB8MXbzYTH/27gHu9o+3/81KTAGwegFw0irF700lXUDwWyn4UQDM7r5xf9tLbOytWeewL6y0LwxRBPxg4m6HSbpuXLdD8hkCFACrFQAX5rxL5J6OryIcIjD0tU0KgJm9dwQ/7aVZfzqdKa8vP2I7ywU9e+fIk6cvOBuBy6HCGgIUAMvtCxY7fjGdwnsNxuW/2mMD9nYygtHiDCgAlvezKD22nr7W1qbx7HP6bPa/+fufvQ/BpjO2fW6bKE6EnEsToACY7/+puGD7RbE89ASKgKUKoGLgl95N6NAnAXtRjt0nYC/kSe2ItPuwsUc27fr+7n0anG0NRoACYPH9yA5MHl/aUg/u+YUFkQMnBUBp76t7PHtrnr3l8sM8QutaCNnjyfZGUYtFHO3XvU+Ulo4CYLEC4LLJo8wPLQ2/G+/uks7jaGfDIEcB0HlMe587Td7lfcA0UTGfxmJBa71i3y4/fnZ6I+YN23MnNJ4SoADYeF+yG5Xv6u0xO0tq4RWq6wWljf5HAeDthTHGpxjYOGjN25fWJn17VTkLBCgA1t+XjpXU275iN0IdPKnKf8zZgLlnAygACFizBKxwfvTkmvVbJNl0tPMSX8ttxsTYGCNjxQKBtQQoAObHDHvM76mLTPG7Fmap71ZxvE2S3XHYcvCa1Z0CoJSHjXecW0wfWbOnCWzCmlkfGvvvS6Z379tNlHccKoCN171GpxkFwOYxwnLumyVVcVlsD0lH8VjUpiBOATC6+OOqkM0x8DuS/kzSMZJOk3TViIoC08Xetmi6mY6mq+nMAoFFCVAA/LoAsMRvBw17Lwquz/XskZwXTE7jnTGi4LXKkRgFQJ9eN85t/eZ0voHnSXq/JHuRjd3hu4o/9tnHZDx1KrPJfm9JpgsLBHIItF4AWAH9/MlRv83QG2K58+SMwF9KOm7yrPSlAQJXySBJARDCRcMJaffe3Gzyno77SDpI0usnd/1+XNLXJtcBbfrbkj6cGsuO5m1btk3btslgsphMJpvJyAKB0gRaKwDsEpnd2GdF9J1Kw+x7PHu5kL2D22YVtGt+NoGHXTJ4x/R0hp3SGOovFehy2ikA+vYwtmcEbD4Cm5zIXvt5v8m0xY+TdOh0n3vJdL+zhG373lvX7HP23drsf7Zv2rq2n1pfG+O+0zFtbNsGCwT6JuBVAAyVd7rtWg5803S/e/Y0R1qutJzJ0gOBnESf6ksB0IPh2AQEINAMAa8CoBmAKDqfQCqJ57RTAMxnTSsEIACBVQhQAKxCjT4bEshJ9Km+FAAbYmcFCEAAAgsToABYGBUrLkMglcRz2ikAlrEA60IAAhBYnwAFwPp8+O+KBHISfaovBcCKxqAbBCAAgTkEKADmQKEpn0Aqiee0UwDk24URIAABCHQEKAA6EnwWJZCT6FN9KQCKmojBIACBxglQADTuAF7qp5J4TjsFgJe1GBcCEGiRAAVAi1bvQeecRJ/qSwHQg+HYBAQg0AwBCoBmTN2voqkkntNOAdCvDdkaBCAwbgIUAOO272Da5ST6VF8KgMHMyYYhAIEREqAAGKFRa1AplcRz2ikAarAsMkAAAmMhQAEwFktWpkdOok/1pQCozMiIAwEIhCZAARDafPUKn0riOe0UAPXaG8kgAIF4BCgA4tkshMQ5iT7VlwIghOkREgIQCEKAAiCIoaKJmUriOe0UANG8AHkhAIGaCVAA1GydwLLlJPpUXwqAwA6B6BCAQHUEKACqM8k4BEol8Zx2CoBx+AZaQAACdRCgAKjDDqOTIifRp/pSAIzOTVAIAhAYkAAFwIDwx7zpVBLPaacAGLPHoBsEINA3AQqAvok3sr2cRJ/qSwHQiPOgJgQg0AsBCoBeMLe3kVQSz2mnAGjPj9AYAhDwI0AB4Me26ZFzEn2qLwVA0y6F8hCAQGECFACFgTLcrwmkknhOOwUA3gUBCECgHAEKgHIsGWkNgZxEn+pLAbAGMF8hAAEIZBKgAMgESPf5BFJJPKedAmA+a1ohAAEIrEKAAmAVavTZkEBOok/1pQDYEDsrQAACEFiYAAXAwqhYcRkCqSSe004BsIwFWBcCEIDA+gQoANbnw39XJJCT6FN9KQBWNAbdIAABCMwhQAEwBwpN+QRSSTynnQIg3y6MAAEIQKAjQAHQkeCzKIGcRJ/qSwFQ1EQMBgEINE6AAqBxB/BS/ypJqUS+ajsFgJe1GBcCEGiRgEcBYLGfpXECP3coAP64caaoDwEIQKAkgcc7xOmLSwrIWDEJ/MDBsQ6KiQKpIQABCFRJ4GkOcfr8KjVFqF4JnOngWM/tVQM2BgEIQGDcBJ7nEKfPGDcytFuEwCkOjvWGRTbMOhCAAAQgsBCBIx3i9MkLbZmVRk3gMw6O9clRE0M5CEAAAv0SON4hTn+qXxXYWo0E3ufgWN+tUVFkggAEIBCUwLkOcfo9QVkgdkECL3FwLHu85IYFZWQoCEAAAq0S2EWSx+PaL2oVKHpfTeBxDgWAzR/wiKs3wTcIQAACEFiRwKOdYrSNy9I4gbs4OdcbG+eK+hCAAARKEDjaKUbfsYRwjBGbwHWdnOs7kraOjQbpIQABCAxKYBtJHtf/7ZLCjoNqxsarIWDJetVpf9fr97+q0RBBIAABCMQjcG+n2Hx2PBRI7EXg7U5O9hYvgRkXAhCAQAMEiM0NGHloFT3mmbYzAzbX9M5DK8f2IQABCAQkYE9SebyrxWLzAQF5ILITgZs6nQEwR7PHDFkgAAEIQGA5Aoc7xuXdlhOFtcdO4CwnZ/uJJLvRkAUCEIAABBYjcD1JFznF5NMXE4G1WiJgj+2td0Nfzv9e0xJIdIUABCCQScDep5ITc9fre0SmbHQfIYHfc3S4yyXdfoTMUAkCEIBAaQK/LekKx3h8t9ICM158AltJ+qaj031ucj/AtvExoQEEIAABNwIWI09yjMP2+neL9SwQ2ILAXzs6np2S4obALZDTAAEIQGATAc8b/ywGv3DTlvgCgRkCezi9dKK7HnWlpPvObJOfEIAABCAg3V+SxcguXpb+tNn/LMazQCBJ4ARHBzSHvkDSbZJb5x8QgAAE2iOwr6QLnWPv8e1hReNlCdgReunKc3Y8m9t692UFY30IQAACIyRgz+R7Tce+Nvbea4TsUMmBwBd6KAJOk2QTELFAAAIQaJWAxUB7Ln9tovb4/vlWAaP38gT278Ehzcm/J+l2y4tHDwhAAALhCewj6bs9xdoHhaeFAr0RsMdEvtqTY9o9AdwY2Jtp2RAEIFABAbvhz/uaf3cm4RQe/avA4sFEeEBPBYA5qd35+lLmCQjmIYgLAQgsS8Ce87dH/eyO/C5Be39ygLWslVj/VwT+sUcntZ3gRGYMxPMgAIGREriD8yQ/8wqJ942UJWr1QMBuULFX+s5zLK82mzb4dZO/nXrQj01AAAIQ8CZgL/axuf09p/edF49/Jom3/nlbd+TjP7fnAqBzZHNeKwRuPHK+qAcBCIyTwM4TtQ6T9OOBYugzx4kVrfoksL2kfxvIga0Y+Lmkt0myZ1i37lNxtgUBCEBgSQIWo+4t6e3T2NUd0PT9aTf+bbek7KwOgbkE9pJkR+R9O/Hs9s6R9A+T52b/SNKN5kpKIwQgAIF+Cewi6dHT2GSTnM3Grb5/XyRpz34RsLWxE3hMBY49uyPZznaspCMl2aWKgyU9XtLD+YMBPoAPFPYBiy0WYyzWWMw5TlINCX82LtoBEgsEihM4usIiYNb5+T38EQg2wAb4wDA+8KbiUZ8BITAlsIOkL1MEDH6Kj+A6THCFO9xr9oGTJVmMZoGAG4Eb9DR3dc07GrKRCPABfKAmH/imJLsXgQUC7gTsndLncyaAMwH4AD6ADwzuAz/kpj/3nMcGZgjYS3yGer61psobWTgSxAfwgaF84KeSfnsmNvMTAr0QuIcke+RkKOdnu7DHB/CBVn3Akr/FYBYIDEbgtpLOowigCMIH8AF8oDcf+D5H/oPlPDY8Q+Dmk4kwzmDn723nb/WIB7052scHpG9JutVMDOYnBAYlYHeg8oggAZoAjQ/gA34+8CVmQR00z7HxdQhcc/oCHwKAXwCALWzxgTZ9wN4vcK114i//gkAVBB4q6SdcEuCSAD6AD+AD2T5gN1rbuwZYIBCGgL1AaMi3CHKU1OZREnbH7mPyAXurHy/2CZP2EHQtAXsd5SE8Kph9BDCmgIYuJGh8YGMfsNegHybJXsfOAoHQBG4yfT82O/7GOz6MYIQPtO0DH5K0e+iIj/AQmEPg/pK+wjVBzgjgA/gAPrCFD9gl0/vOiZs0QWBUBO41cfQTCQBbBACO/No+8sP+bdrfrvM/XNJWo4ryKAOBDQjcZzKV5QmSrqIYoBjAB/CBhnzAYt7xku69QYzk3xAYPYHfkvQcZhMkATSUADjab/No/zuSDpd0y9FHdRSEwJIE7BTY3SX9HcUAxQDFAD4wEh84XdIR09jGaf4lkwKrt0vAzgwcIOltkr49kmDAkV+bR37YvR27ny3prdPYtVu74RvNIVCWwI6S7jSdFevFkt4zvYfA5sc+S5K9IetiCgWOHPEBfMDBB342jTEWayzm2P1LFoNeNI1Jd5RkMYoFAhCAAAQgAAEIQAACEIAABCAAAQhAAAIQgAAEIAABCEAAAhCAAAQgAAEIQAACEIAABCAAAQhAAAIQgAAEIAABCEAAAhCAAAQgAAEIQAACEIAABCAAAQhAAAIQgAAEIAABCEAAAhCAAAQgAAEIQAACEIAABCAAAQhAAAIQgAAEIAABCEAAAhCAAAQgAAEIQAACEIAABCAAAQhAAAIQgAAEIAABCEAAAhCAAAQgAAEIQAACEIAABCAAAQhAAAIQgAAEIAABCEAAAhCAAAQgAAEIQAACEIAABCAAAQhAAAIQgAAEIAABCEAAAhCAAAQgAAEIQAACEIAABCAAAQhAAAIQgAAEIAABCEAAAhCAAAQgAAEIQAACEIAABCAAAQhAAAIQgAAEIAABCEAAAhCAAAQgAAEIQAACEIAABCAAAQhAAAIQgAAEIAABCEAAAhCAAAQgAAEIQAACEIAABCAAgRER+C/EOy91nhHeyQAAAABJRU5ErkJggg==;" parent="1" vertex="1">
          <mxGeometry x="380" y="390" width="20" height="20" as="geometry" />
        </mxCell>
        <mxCell id="8fTbJQ_2yBlo6duqBfsQ-16" style="edgeStyle=orthogonalEdgeStyle;rounded=0;orthogonalLoop=1;jettySize=auto;html=1;entryX=0.5;entryY=0;entryDx=0;entryDy=0;" parent="1" source="8fTbJQ_2yBlo6duqBfsQ-7" target="8fTbJQ_2yBlo6duqBfsQ-5" edge="1">
          <mxGeometry relative="1" as="geometry" />
        </mxCell>
        <mxCell id="8fTbJQ_2yBlo6duqBfsQ-7" value="Post-Survey" style="rounded=1;whiteSpace=wrap;html=1;fillColor=#fff2cc;strokeColor=#d6b656;" parent="1" vertex="1">
          <mxGeometry x="370" y="280" width="180" height="60" as="geometry" />
        </mxCell>
        <mxCell id="8fTbJQ_2yBlo6duqBfsQ-2" value="" style="shape=image;verticalLabelPosition=bottom;labelBackgroundColor=default;verticalAlign=top;aspect=fixed;imageAspect=0;image=data:image/png,iVBORw0KGgoAAAANSUhEUgAAAgAAAAIACAYAAAD0eNT6AAAAAXNSR0IArs4c6QAAIABJREFUeAHtnQXYNkd57/9xgruFQJAW93LwBlqkLSUpRQ7FSoFCCCS4W7AChVLcmtLiWigHKRTpKYRAigQIbiEEDUkggsXOeW7y7vfNt9/Oztw7siP/va73fWZ3Z2/5zT2yNgtwIQESIAESIAESIAESIAESIAESIAESIAESIAESIAESIAESIAESIAESIAESIAESIAESiEHgQgD2BXA1ADfc+pO0bJN9XEiABEiABEiABComsDuAmwB4LIDXATgKwM8B/D/Hn+T5NIB/BfAYADcGsFvFHGg6CWgJXBTATQH8zebAwwA8H8CrN4Pmt279SVq2yT7JI3nlGC4kQAIksBoBOYN/wOas/r0ATnV09K6BgLn/lC2Z9+dVgtXKlorTEfg9AA/a6tx/HFBvfgTgLQAeCOAq6cylZBIgARLYTuB2W43XrwMaL7PDn0v/aquRu+129UyRQHUELgfg8QC+krDOfHnrCtw+1dGhwSRAAkUT2BXAnQF8LmEDNjcQkH2fBXAnAGILFxKogcD+AD4A4OyM9UZ0ic5b1gCINpIACZRN4I8AyNmFq4POtf9LAG5VNjJa1zmB2wM4ooA683EAvHrWeTDSfRJYQuDSAF4P4JwCGrKpwYU8eyCXVrmQQCkEJB7fXmB9kbqyXymQaAcJkEDZBP7S8yn+qY4557aTARxYNkpa1wEBeXPlCZs3WX5ZYOc/1Eex7XF8y6aDaKSLJLCQwB4AnlvwWf/QmI1/5VWpPRf6zMNIIITAJTev5n2o4I5/XFf+C8BlQxzmsSRAAu0RuDiAT1XUkI0btk/y/ej2grJwj24D4KcV1pmfAJBne7iQAAmQwO/OCOThunGnWtv6VwFcnuVJAhkI3BPAGRXXmTMB3C8DJ6ogARIomMDvAzi+4oZsPEj5PgDxiQsJpCLwyApvk43riazLA74PTwWJckmABMomIJOGfC9h5y8NjAwu5Mxc3uOXP0n/IHEDeizvc5YdeBVbJxP6THWmNW+ThwO5kAAJdERA5hOP/X6/TG36hq1Li9cDcN4ZnrJP8siUv28EIPclYzaickvjwjP6uYsEtARk6usUr8XK2ywfA/DKrW9iyPS+/3vrT9LynYxXbeXx+caGth6JT/KdAS4kQAIdEJDXluRpYG1DMZX/t1sduEwRHPIhHzlWJlB5U8R7qx/hzIEdRHMeF+V107Mi1RmpRzL4llcH5SuZmnojef9gU0eeGHlqYXkm4M/zoKQWEiCBNQk8M0JD9pvNU/cvSfTQnTzI97JNAymDi6lBh2bb09YETd1NEJAP+MT44JUMIN681YHHAnOjre9lxBic/GJzBe/KsQyjHBIggfIIyKtLoXOTf3jT6Fw1g2tX28xp/tHAQYA0jLfOYCtVtEngPJvJpo4OjEEZsL57c3VLBhKpFnnw9T0R7JTndPZKZSTlkgAJrEfgAlsP4GnOoM288gXAg1cw/5DN19TkioNpiyYtbwacbwW7qbJ+AnIlShNr47zywOsdMmK4I4AfBtr8ooz2UhUJkEAmAi8MaBjkaf7rZ7JzSo3cKw1p2J43JZTbSGCGwE0Dr5bJV/kuMSM/1a7Q2QnlCqHcWuBCAiTQCIFrBTxc97VE9/q1aK8A4OsLBzHykNN1tAqZv1sC8rDd5xfGmlwFeOnKD6DuAuAFAfbLrQDNw4ndBgodJ4EaCHxwYWPwTQByRlHKcikA31roy/tKcYJ2FE9AbjuNL+f7rj+lIO+eGuDHQQX5QVNIgAQWEpDXhnwbLzPfjwBccaHOlIddCYDMOWDa6pOW953XvI2RkgllxyMgD/4tiS+JwRJvNT1/QV0RX+T5BT4QGC+uKIkEViHwrgUNgFwyv+Uq1vop3X/he9nv8BPPXB0TkAddfQaU4zzyip9cei9tEZveutAnmYiICwmQQKUE5NWjJa/9yUQjpS9PXtCoCQu+61x6ya5nn3wSW6aSHnfurnV5NuX865nt1CxvAH1jgV/fAbC7UzozkAAJFElgyaQ/X6ik0kvD9MUFjdphRZYUjSqBwAEL4kmultVwa+kGC6+acYbAEiKTNpCAkoBc+tOezch9cnn9qZblFgvmZ5ezmhIv1dbCvGU737lgAPCPFQF58QL/3laRfzSVBEhgi8AfLqjsMptYbYs83e+6RDvef/PanKS9yQlcZMGEUz8DcMHklsVTcCEAJyrri0wAxg9rxSsDSiKBLASeo6zo0kneOItlcZXIFYtxB+9af1ZcEyitAQLyRTxX3Iz3P6lCv5e8GnifCv2kySTQNYGjlA2a5K91+YzS1yNrdZR2JyMgn6Ued/Bz66dVemYsVzpOV/r6umTUKZgESCA6AbnUp/1C2EOiW5FP4MOUDZo8uFXTpdt8JPvVJO+9z3X4433/UjGq1yt9lWm4uZAACVRC4HbKCi6vx60xb3ksnJde8DCgfBmRCwkIAfny5LiDd63/UcXobrvAX/niIBcSIIEKCGjPiOXVv9qXY5SN2kNrd5j2RyPwV8rYObWSV2VtgOQVWvHBNcgx99/NJozbSYAEyiLwcmXlbuEToC9R+iwfbOFCAkJA5oYwOztX+r0NYJOvFbr8NPfLw4NcSIAEKiDwUWXlvl8FPrlMfIDS5w+7BHJ/NwTeooydJzRARt5gMDt4V/pNDfhMF0igCwJfVVbuFt6Ll28XuBoxc/+Xu4gEOulDQPsWyZ18hBae587K+lLzW0KFFwXNI4G4BL6vrNz7xlW/irQrKH0+bhUrqbREAtpPTF+zRCeUNl1bWV/k0+BcSIAEKiDwC2XlltcGa1/k/WbzDN+VPrl2h2l/NAI/VcbOJaNpXk+QvDnjqiPmfvlEMhcSIIEKCMh77mbldaVb+OKX+ODy09wvjLiQgBD4pTJ2ztsAtvMpfZbJg7iQAAlUQMDs6HzSFbjkZaKPr2YeL6HM1DwB+QiWGReudAsfkxIfXH6a+4URFxIggQoImBXXJ12BS14m+vhq5vESykzNEzBjwifdChAfX808rfhNP0igaQJmpfVJtwLDx1czTyt+048wAmZM+KTDtJVztI+vZp5yLKclJEACVgJmpfVJWwVVtsPHVzNPZe7R3EQEzJjwSScyI7tYH1/NPNkNpEISIAE9AbPS+qT1Gso8wsdXM0+ZXtCq3ATMmPBJ57YvlT4fX808qeygXBIggYgEzErrk46oelVRPr6aeVY1lsqLIWDGhE+6GMMDDfHx1cwTqI6HkwAJ5CBgVlqfdA6bcujw8dXMk8Mm6iifgBkTPunyPfKz0MdXM4+fVOYiARJYlYBZaX3SqxobUbmPr2aeiKopqmICZkz4pCt2dQfTfXw18+xwMFdIgATKJGBWWp90mV7orfLx1cyj18AjWiRgxoRPuhUGPr6aeVrxm36QQNMEzErrk24Fho+vZp5W/KYfYQTMmPBJh2kr52gfX8085VhOS0iABKwEzErrk7YKqmyHj69mnsrco7mJCJgx4ZNOZEZ2sT6+mnmyG0iFJEACegJmpfVJ6zWUeYSPr2aeMr2gVbkJmDHhk85tXyp9Pr6aeVLZQbkkQAIRCZiV1icdUfWqonx8NfOsaiyVF0PAjAmfdDGGBxri46uZJ1AdDycBEshBwKy0PukcNuXQ4eOrmSeHTdRRPgEzJnzS5XvkZ6GPr2YeP6nMRQIksCoBs9L6pFc1NqJyH1/NPBFVU1TFBMyY8ElX7OoOpvv4aubZ4WCukAAJlEnArLQ+6TK90Fvl46uZR6+BR7RIwIwJn3QrDHx8NfO04jf9IIEiCZwfwG0BPAzAKwB8BMDXARwP4GTl97vNiutKFwljgVEuP7lf9w148prmtSA0izwkVfmeudVeSbv1NQDvB/AiAA8BcHMAexRJg0aRwAoEbgDgmQCOACAVJ1WlnJO7gttJVM75yH3rxFaL3JME7wpC1yqbXwL4KIAnALjSCn5TJQmsSuDSAB4L4JiVOvxxxV8VRkTlY7+4zk4/RQxEDNlVRaVgo5V5DoAjt64OyBVQLiTQLIErAHjxpvP/VSEd/1BZWwE++MNfdvwpY4D1JU18nbLVPl62FcD0gwSEwMUAvBrAGYV1/EMj2UopDf7wN00DTa7ncmV9SRtfcoL0dADnbQU0/eiTwC6bB/juv7m89bNCO/6hQW+ldAZ/+Ju2ge6dL+tLnvj6HoC/bAU2/eiLgNznl6f4a2gsWymZGljTxjrqxFw5sb7kLcM3AbhgK9DpR/sEbgXgR5V0/tLQtbLMNdrcl7fRbpk360v+WJKrATdrBTz9aJfAIQDOrqjz5wAgf2PWcufYg2+ttF61ldVvANytFfj0oz0Cj6us4x8agFZKYvCHvxzUpIwB1pf14kteG3x0KwVAP9ogIA/7vbzSzl8aylaWlI0+Za/X6JfGnvVl/Vh4aiuFQD/qJ/Csijt/DgDWb8xK6+Boz3xM1N9inetB7eX88FYKgn7US0Du+ceuSF/d+haAvEJ4SwAyMcZFFIi09ihEF521V7+LLpQKjOs1blL5vdtWe7UvgFtvHoh+IIB/AfDtyG2lPGt19wriiyY2SuCPIz7w9y0ATwZwxQisUlXsCKYlFdGr30mhdiC817hZw+9rbH375PuRBgPyYKB8T4ULCWQlIO/5/zhCEB8N4C4Ado1o/RoVO6L5i0X16vdiYDzwdwR6jZs1/ZYvAt5n62uBWjvG+eXkifMEsDJnIyAP/YVO8nPSZgDxoMgd/wBgXEFc68Nxtf+6/Bzvr91f2h+HwDguXOtxtK4vxeXneH8Ki2Ug8CgApwaeTL0lhXGUSQJTBB4QGKwf27qvPyU7xrZxxXWtx9BZggyXn+P9JdhMG9YnMI4L1/r6FsexwOXneH8crdNS5ENp8kn0sU7N+gHTormVBOIRkA/7hMzt/5xEZ/2mh5pKI3lbWXr1u5XyW8uPXuOmNL/lasArAwYBxwLYe60got4+CLxqYYDKE6uHZkJUWsXO5Lb67CGXXdRTNgHWF78z71ylKA9Da8tkyP/MXEZST38ELg/gtwuD8xEZcQ2Vwfc3o2lJVfn6O+RLagyFV0NgiAff32occxjq6++QzyEu6m6Z6GfQq/k9fTMp2yWiWkJhJLBFYOlsf3LZP+eiqTCSt5WlV79bKb+1/Og1bkr3+xULBwHPWCuQqLddAvLa368XBORHM9zzH1MvvWKP7Y213qvfsfj1KqfXuCnd7z0BHLWgzT2ZrwX2WpXT+f3YBYEor/pdJp1JVsmlV2yr4YE7evU7EFv3h/caNzX4vd/mNcHTFrS98oo1FxKIRuBLFQVhDRU7WsEYgnr120DA5AICvcZNLX4/ZkHb+4kFccBDSGCSgEw1qa0sMsNfzNn9Jg2zbNTaahFT3eZe/a6uoAozuNe4qcVveT3wG8o2WD4bfKXC4ozmVEpAXi3RVpa7ruir1tYVTY2qule/o0LsUFivcVOT3/dd0AbLbVsuJBBM4JPK4JO5qeWLWGst2orda/61yod6yyLQa/xr/V6z1OQqwPHKdviDaxpM3W0QOD+AM5SBJxNZrLloK3av+dcsI+ouh0Cv8a/1e+0Sk9epNTb/EoC8ScCFBBYTuK0y6OTeU4xP+i42WGmvpkK1ljeEMY9th0BrcZ3Kn7VL/JoL2rabr2009ddN4OHKoPtqAe6magBak1tAUdGEAgi0Ftep/CmgqPA9ZXvM1wFLKLWKbdDORiX5115SNQCtyV27nKi/DAKtxXUqf0oorX9VDgBeWILRtKFeAjKTn6ZC3a8AV89S2qzxr5W8wogLCQgB+VBXK3Gdyg9hVMJysLKs3l+C0bShXgJfUwbcLQpw9YdKm1M1GiXL/W4B5UQTyiDwE9YX5wDohDKKCn+sLKtjCrGbZlRK4AfKgLtcAX6+VWlzyR11Ktv+qYByogllEHgX64tzAPAfZRTV7x6w1rQJxxViN82olMApysbhggX4KVchNJWkt7xy+f/aBZQTTSiDwB1YX5ztxb3LKCpcVFlW8mEgLiSwmID2fvqaEwCZTmofXuxpEPA0ExTT3RPYBcB7lB1LT/VFpjWXiXhKWHZXlhOf9Smh1Cq2QVvRS3FVKsorlZVF62tt+aUxkM5fGnwuJGASkCt3/8X6stOVAHntbu15TcxykrS23Rkfz3US8CZQe7DdEoA8E9Drg4Hy9PKxAA4HcB3vUmfGHgnI1Tt5b/zTAGQWOW3dbyX/mQC+A+DvAVy4wEDQci7QBZpUCwEGWy0lRTtJgAR6IMA2uYdSLsRHBlshBUEzSIAESGDBlRlCI4HFBNYaAOwF4NCty5GnA5A/uTR5CADZx4UESIAEeiSwVpvcI+vufV4j2PYB8IWZka48lSt5uJAACZBAbwTWaJN7Y0x/twjkDjY5u5/r/Ad7ZBDAKwEMUxIggd4IDG2g729vfOhvRAK+QTbkC1Utl/0HWa7fh4Yq4/EkQAIkUBkBV7s43l+ZezS3JALjYHKth9p+lGIA8KlQZTyeBEiABCoj4GqDx/src4/mlkRgHEyu9VDbT1MMACQvFxIgARLoiYCrDR7v74kNfY1MYBxMrvVQ9S754/2h+ng8CZAACdREYNwGutZr8o22FkbAFVzj/aHmj+W51kP18XgSIAESqImAq00c76/JN9paGIFxMLnWQ83X3AKQLxVyIQESIIGeCLja4PH+ntjQ18gExsHkWg9Vz4cAQwnyeBIggZYJuNrg8f6WWdC3xATGweRaDzVHZvpz6Rj28zXAUNo8ngRIoDYCQ/vn+1ubf7S3IAK+QTbkCzVdJveRSX4GebZfybNnqDIeTwIkQAKVEbC1ibbtlblHc0siYAsq2/YYtss0v3ODANnHqYBjkKYMEiCB2gjY2l7b9tr8o70FEbAFlW17LNPl7F4u8ctkP/JgoPwdubWNZ/6xKFMOCZBAbQRsba9te23+0d6CCNiCyra9INNpCgmQAAk0R8DW9tq2NweADuUjYAsq2/Z8llETCZAACfRHwNb22rb3R4geRyNgCyrb9miKKYgESIAESGAnAra217Z9JwHcQAK+BGxBZdvuK5f5SIAESIAE9ARsba9tu14DjyCBLQK2oLJtJzgSIAESIIF0BGxtr217OksouXkCtqCybW8eCB0kARIggRUJ2Npe2/YVTaXq2gnYgsq2vXZ/aT8JkAAJlEzA1vbatpfsC20rnIAtqGzbC3eH5pEACZBA1QRsba9te9XO0vh1CdiCyrY9lrUyJfChAD4N4PStP0nLtwJkHxcSIAES6JGAre21be+REX2ORMAWVLbtMdTKNL9fmPkeAKcCjkGZMkiABGokYGt7bdtr9JE2F0LAFlS27aFmy9n9XOc/6JVBAK8EhNLm8SRAArURGNpA39/a/KO9BRHwDbIhX6jpctl/kOX65eeAQ2nzeBIggdoIuNrF8f7a/KO9BREYB5NrPdT0oxQDAPlQEBcSIAES6ImAqw0e7++JDX2NTGAcTK71UPXy1T+XjmG/5OVCAiRAAj0RGNo/39+e2NDXyAR8g2zIF6p+kOP7G6qPx5MACZBATQR828YhX02+0dbCCAxB5Psbar6vniFfqD4eTwIkQAI1ERjaPt/fmnyjrYUR0FySPyWC7b5BPeSLoJIiSIAESKAaAkPb5/tbjWM0tDwCuR/K8w3qIV95xGgRCZAACaQjMLR9vr/pLKHk5gnIzHu+gRbjtTxfXUO+5guADpIACZCAQWBo+3x/jUOZJAEdAZlsRybdcQWb5NlTJ3oyt0vPeP+kEG4kARIggUYJjNtA13qjGOhWLgIyNe/cIED2SZ4YiyuYx/tj6KQMEiABEqiFwLgNdK3X4hftLJiAnN3LJX6ZfEceDJS/I7e2xTjzH1x3BfN4/3Acf0mABEigBwLjNtC13gMT+tgIAVcwj/c34jbdIAESIAEvAuM20LXuJZSZSKAEAq5gHu8vwWbaQAIkQAK5CIzbQNd6LruohwSCCbiCebw/WCEFkAAJkEBFBMZtoGu9Itdoau8EXME83t87L/pPAiTQF4FxG+ha74sOva2agCuYx/urdpbGkwAJkICSwLgNdK0rxTM7CaxHwBXM4/3rWUrNJEACJJCfwLgNdK3nt5AaSWAhAVcwj/cvVMPDSIAESKBKAuM20LVepZM0uk8CrmAe7++TEr0mARLolcC4DXSt98qJfldIwBXM4/0VukiTSYAESGAxgXEb6FpfrIgHkkBuAq5gHu/PbR/1kQAJkMCaBMZtoGt9TVupmwRUBFzBPN6vEs7MJEACJFA5gXEb6Fqv3F2a3xMBVzCP9/fEhr6SAAmQwLgNdK2TGAlUQ8AVzOP91ThGQ0mABEggAoFxG+haj6CSIkggDwFXMI/357GKWkiABEigDALjNtC1XobVtIIEPAi4gnm830Mks5AACZBAMwTGbaBrvRnH6Uj7BFzBPN6fisjVAbwSwHcBnAlgrLeF9RMBvB/AHVNBpFwSIIHoBLRtT3QDKJAEUhEoIbgf13Cnb+P7RgB7pCpUyiUBEohGwFaHbdujKaYgEkhNwBbEtu2x7Xlso2f7Nn7m9pfFhkl5JEAC0QmYddYnHd0ACiSBVAR8AtrME9MOuezf6uV+k5ktfTaAa8UESlkkQALRCdjqr217dAMokARSEbAFsW17TDvknr9NTy/bnx0TKGWRAAlEJ6Bti6IbQIEkkIrAmsH9HQ4A8O+pCpZySYAEohBYs42M4gCFkICNwJrBfRYHABwA2AKT20mgEAJrtpGFIKAZrRJYM7i1ulvMz1sArdYs+tUKAW2704rf9KMDAmsGt1Z3a/n5EGAHFYwuVk9A2+5U7zAd6IfAmsGt1d1a/pf2E2b0lASqJaBtd6p1lIb3R2DN4Nbqbin/GzgRUH+VjR5XSUDb7lTpJI3uk8Cawa3VXXv+EwC8D8Ad+gw1ek0CVRLQtjtVOkmj+ySwZnCvqbvP0qbXJEACWgJsp7TEmL8aAmsG95q6qykgGkoCJLAqAbZTq+Kn8pQE1gzuNXWnZErZJEAC7RBgO9VOWVbjyV4ADgXwaQCnb/1J+hAAsi/WsmZwr6k7Fj/KIQESaJsA26m2y7c47/YB8IWZWfKOBiB5YixrBveaumOwyynj/ACuBOCiOZVSFwmQgPp7JURGAosJyNn9XOc/dJoyCIhxJWCQ5/u72LGJA311DvkmRDS/6XYAPg7AnDb5GAD3A7BL897TQRJYn8DQ/vj+rm8xLaiWgFz29w20h0bw0lfXkC+Cym0iBpm+v9sO7CCxG4DnAzhnJh7+DcCeiVlcA8BrARw/GoT4lhnz+dfngZXc8jsSwEMylG/i8GlC/FAuvr9NOE0n1iFw1EyDPw7AT0UwcSzTtR5B5TYRLl3j/dsObDxxAQDv9YyDf0jI4oEAzvS0Y1xWXNd3/FPMPgfgMgnLmKLdBKbKZW6bWyJzkICFwGmKBlfyhi5zgTy1L1SfefyU/Llt5rGtpi8HQBr9OQ7mPumg900A40DH1QfTBqb9y2sJq89w1sgEEe4vUltm/pKZkwRGBHIHW259prtr6jbtKCV9EwA/UXT+A78Yt4JMBrsDOHaBHYM9/I0/IHiQWUBMZyWgjeesxlFZWwRyB1tufWZpranbtKOE9L0A/GZhp/viyA7sv9AObXkyv/9AQR4E5bIOAW2crmMltTZBIHew5dZnFtKauk071kzLk/zPDrzcLg8LxlwO5gDA+xaMNoaX5j8pZgFTloqAtsxUwpmZBEwCuYMtt741fTV1l5A+L4B3Ruhs7x7ZmQdHsEkbV8w/fzXgxMhlTHH+BLSx6S+ZOUlgRCB3sOXWZ7q7pm7TjjXSMpHTZyN0tPKFwb0jO8BbAPOdsTZuY+TnLYDIQa4Qpy0/hWhmJYEdCeQOttz6TG/X1G3akTv9BwB+GKHzlzkC7pzAeD4EWN4AgA8BJgh0T5G9tlOeeJgtJoHcwZZbn8lqTd2mHTnTdwHwywidv7z+d/+Ehh8Q+FyCtmyZ3z7o4GuACQPdQ7Q2Nj1EMgsJTBPIHWy59Zler6nbtENev3s8gOcCePjmvvy1zJ2R0vKw35MjdaonA7hNJLvmxMhEQGdEGKxoy5n5tw8G5DYRJwKai9L0+7TxmN4iamiWQO5gy63PLLg1dYsdVwbwSUsH9y4AFzONDUifB8CbLHq0DL4J4KoBtmgPvTqAwwEcx1kBs70ZcOpWXMrDmHtoC4z5oxPQ1tHoBlBgPwRyB1tufWZJrqlbOn95gG7Ohm9tOj+ZmS9kuRQAmbJ5To/vvo/xa4AhRcFjSWARAd/6OeRbpIQHkYAQGILI9zeUmq+eIV+oPvP4Qabvr3lsaFo+tuKj99sBU+1eZ+vM2UePK89reDYYWuQ8ngQWEXDVzfH+RUp4EAkIgXEwudZDqbnkj/eH6jOPH8t2rZvHhqRvruS8ZBBwRwCa7zrYfJfPAD8ixFkeSwIkEETAVjdt24OU8eC+CdiCyrY9lJZNrm17qD7zeJsO23bz2JD0E5UDALFHMwh4NICzF+gY+y33gv8sxFEeSwIkEExgXC9d68EKKaBfAq7gGu8PJTWW51oP1Wce79I13m8eG5J+wcLO2TUI2HNzu+CfF8oe+yof40nxNkIINx5LAj0SGNdN13qPjOhzJAKu4BrvD1U7ludaD9VnHu/SNd5vHhuSfkxAJ20bBMgbA/8dINf09QgAlwxxkMeSAAlEI2DWTZ90NMUU1B8BnwAz84QSMmX5pEP1mcf76DPzmMeGpK8b2FGPBwHyqpxsM21dmn4dgL1CnOOxJEACUQlo63JU5RTWF4HcwZZbn1maa+p+b2CHPQwCbr+ZPOgXgbKEgzwz8AQTDtMkQAJFEFiznSoCAI3IRyB3sOXWZ5JcU7dcYv9uYMct8/nLlLxaP8b5TwdwJxMM0yRAAsUQGNdX13oxhtOQ+gi4gmu8P9TDsTzXeqg+83iXrvF+89gY6csD+E6EDnxsp2ZdBhHycSAuJEACZRLQ1GfJy4UEFhMDf3cYAAAgAElEQVTIHWy59Zlg1tQ92LHmIODogEmGBvv5SwIkkJZACe1UWg8pvRgCuYMttz4T9Jq6TTvWGAS8A8B5TSOYJgESKJJAKe1UkXBoVFwCuYMttz6T1pq6TTsknWsQcM7WVwd3HRvAdRIggSIJlNROFQmIRsUjkDvYcuszSa2p27RjSKceBPxm87rgvQZl/CUBEqiCQGntVBXQaOQyArmDLbc+k8qauk07zHSqQcCPANzYVMQ0CZBAFQRKbKeqAEcj9QRyB1tufSaRNXWbdozTsQcBXwRwhbESrpMACVRBoNR2qgp4NFJHIHew5dZn0lhTt2nHVDrWIOADAC44pYDbSIAEqiBQcjtVBUAa6U8gd7Dl1meSWFO3aYctHToIeDGA2h/2u8bmAcnXAjgegHyaWFtmzN8Ps18DOGZTmQ4DcGFbpapwuzaGK3SRJpdCIHew5dZncl5Tt2nHXHrJIOC3AO47J7SSfQ+MNNOhtpyZv/5Bww8AXL+SOHeZqY1HlzzuJwErgdzBlluf6fiauk07XGnNIOBEALdyCaxg/4EA5JVFbRkxP5kNMfBjAJeuINZdJg7++P665HE/CVgJ+AbZkM8qyHPHIMf311OsVzZfnUM+L6GJMu3nMW3wlwFcMZH+nGJ3B3AsO38OfiLEwCtyBm4iXUP74/ubyAyK7YGAb5AN+UKZDHJ8f0P1mcf76hzymceukb44gLdOnBnLJf+XA7jAGkYl0Ll/hIZ/KDP+9n1F4GQAuyWI0ZwitTGc0zbqaoxA7mDLrc8srjV1m3Zo05cDcE8AhwC4KwD5smBLy8EcAPDsP2IM7Ft55ai1naoce5/m5w623PrMUl1Tt2kH0zsSeHDExl9bxszf3hWDfXYMr+rWtDFZnYM0uBwCuYMttz6T9Jq6TTtKScvzA4/fPEfwuq2/x630TAFvAbTXCWvrWqz8J/EWQCnNC+2ogYC24oX6lFufae+auk071k7LXAHPBnDGxJm3bHtW5vkE+BAgBwDaumnLz4cA125dqL8qAraKZNse6pxNrm17qD7zeJsO23bz2JbSr5zo+McMcjekB0w87Di2iescKMzFAF8DbKmVoi9ZCMxVqKl9oUZNyZzbFqrPPH5Oz9Q+89hW0rfz6PwHFrfJ7LRMBDR1VWKwh78cANhiQGaOvF7meE2lzuajbXsqOyi3AwK2oLJtD0Vik2vbHqrPPN6mw7bdPLaV9HsUA4B3r+D01QEcDuA4zgrINwMcsforAPLhq6cBuNAKsZpKpa09sm1PZQfldkDAFlS27aFIbHJt20P1mcfbdNi2m8e2kj7B0aiaLH7aitP0gwQqImDWQZ90Ra7R1NII+ASYmSfUflOWTzpUn3m8jz4zj3lsK2nNdLuSlwsJkEBeAmYb5JPOax21NUXAJ8DMPKHOm7J80qH6zON99Jl5zGNbSZv++aRb8Zt+kEAtBHzqpZmnFr9oZ4EEzEDySYe64KPDzBOqzzzelOuTNo9tJe3jt5mnFb/pBwnUQsCsfz7pWvyinQUS8AkwM0+oC6Ysn3SoPvN4H31mHvPYVtKmfz7pVvymHyRQCwGfemnmqcUv2lkgATOQfNKhLvjoMPOE6jOPN+X6pM1jW0n7+G3macVv+kECtRAw659Puha/aGeBBHwCzMwT6oIpyycdqs883kcf8+z4rrnJj2kSIIH0BLRtUHqLqKFZArmDLbc+s+C0upnfpMc0CZBADgLadieHTdTRKIHcwZZbn1lsWt3Mb9JjmgRIIAcBbbuTwybqaJRA7mDLrc8sNq1u5jfpMU0CJJCDgLbdyWETdTRKIHewnaaYie6UyMy1vjJ/5AKgOBIgAScBbbvjFMgMJGAjkDvYjlIMAD5lM3rhdq2vzL8QNA8jARJYTEDb7ixWxANJIHewHaIYADw0cvH8XKFby6XF/L+IzJ/iSIAE3AS0bYlbInOQgIVA7mDbC8DRHh2x5NnTYvPSzR/x0Kvl0XL+I5aC5nEkQAKLCWjblMWKeCAJrBFs+zgGAdL5S57Yy19wAKD6xOxBsQuA8kiABJwE1miTnUYxQ5sE1go2ObuXS/xyn18eDJS/I7e2xT7zN0vujRwEeA0C/gfAHiY4pkmABLIQWKtNzuIclZRFoLdgk8HFqzgImB0ESOd/6bLClNaQQDcEemuTuynYEh3tNdhuBuBNAH4A4CwOCCCvXMo9/wfxzL/EakqbOiLQa5vcURGX4yqDrZyyoCUkQAIkwDaZMZCNAIMtG2oqIgESIAEnAbbJTkTMEIsAgy0WScohARIggXACbJPDGVKCJwEGmycoZiMBEiCBDATYJmeATBXnEmCwMRJIgARIoBwCbJPLKYvmLWGwNV/EdJAESKAiAmyTKyqs2k1lsNVegrSfBEigJQJsk1sqzcJ9YbAVXkA0jwRIoCsCbJO7Ku51nWWwrcuf2kmABEjAJMA22aTBdFICDLakeCmcBEiABFQE2CarcDFzCAEGWwg9HksCJEACcQmwTY7Lk9JmCDDYZuBwFwmQAAlkJsA2OTPwntUx2HouffpOAiRQGgG2yaWVSMP2MNgaLly6RgIkUB0BtsnVFVm9BjPY6i07Wk4CJNAeAbbJ/mV6AQDXB3A3AE8C8FwArwbwBgBvB/AaAC/afOL82QAeCODWAC7nL779nAy29suYHpIACdRDgG2yvawuA+CeAF616fS/CkDLasj/cwDvBfBoAP8LwK52lW3vGYD4/rZNg96RAAmQwLoEfNviId+61qbXfmEA99nqsM8M6PQHXlO/PwDwYgC3SO9OWRqmYMxtK8t6WkMCJEACbRGYa3+n9rXl/XZvrra5XH84gN8k6vSnWMq2zwO4O4DdtpvSbsoGwba9XRL0jARIgATWJ2Bre23b17c4rgXXAfBuAGdn7vjHfL+z9dxA0wOBsdOu9bhFTWkkQAIkQAImAVcbPN5vHltzWi71y2X4VJf5x9x8148GcMuawc7Z7gthyDcni/tIgARIgATCCAxtre9vmLYyjpZL7iesfMY/x/scAK8DcKEycMWzYs7pqX3xNFMSCZAACZDAmMBUuzu3bXx8Tet7b531z/lX0r7jANysJsAuW7VwXfK4nwRIgARIYDmBXtrkawS+yqflFCv/GQAeubx4yzpSC6Us62kNCZAACbRFoIc2+cYAflbwJX+fMnhZC/MH+Dhq5mmrqtEbEiABEiiLgNne+qTLst5tzR0B/LLyzn8ol3dtZh88j9vlcnMMjvj+lusJLSMBEiCB+gn4tsVDvpo8lln8SnvKf+C49PcDm6mG96ipEExbtU6bxzJNAiRAAiQQl0CrbbJ0/mclOPOXJ/S/uTVToMz7/+StKX4fBuCJAF4A4J0AvrhZl/v3Wr4++V8PYJe4YZBHmo9zZp48VlELCZAACfRJwGxvfdI1UIrd+Z8E4J8AHAjgYgoA5wNwGwDPAyBP9Pvw9c3zfIUdxWT1dW7IV4zhNIQESIAEGiQwtLW+v6UjuFfEM/9PAbgLgD0jOC1n7PsD+PeIsw7eO4JdWUX4BtmQL6txVEYCJEACnREY2lrf35LxxOr8ZTa+WyV09OoA3hfhisBpAH4/oZ3RRfsG2ZAvugEUSAIkQAIksI3A0Nb6/m47sLBEjM5f3hZ4SMYP8/w5gOMDBwLyMaG9CisLqzm+QTbkswriDhIgARIggWACQ1vr+xusMIEAuRQe+sCfPLQnZ+a5F3mm4P8EDgIOy230Un2+QTbkW6qHx5EACZAACbgJDG2t769bYt4cMTr/9wI4b16zd9Amzwf8XcAg4FcA9ttBYqErvkE25CvUDZpFAiRAAk0QGNpa39+SnI7R+f8LgN0LcepQAPKaoW9ZmPlkkqDiF9Ngn3TxDtFAEiABEqiYgE87bOYpxdUYnf9rCpxe97ELBwBSRjcvpXBsdpiB5JO2yeF2EiABEiCBcAI+7bCZJ1xjuIT7RLjnX2LnP5CRCYZM5r5peZag6MXXkSFf0c7QOBIgARKonMDQ1vr+ru3u3SNM73t4gWf+Jle5JXHEgkGA3D64limotLRvkA35SrN/iT1SmPKKiszhfELAPZ6BSam/JwJ4PwD5+AYXEiCBOgho25M1vYpx5v/qSqbRvQKAny8YBPzzmgXk0l1TsLl88dkvhfjZBYWo5VRa/jfW/MEKn4JlHhJohIC27VjLbTnzD33VT6bz3XUtBxbole8LaMvnlM3Uw3sv0JXlEK0zWYxKpORCAL67oAC1jErNL9+v5kICJFA2AW37sYY3fx1h+txXVXLmb/KVq8fHLOhD7mwKKSldQ7DF4iUfgND621L+s0u/HxWroCmHBComoG1zcrvaa+c/cL7rgn5EvkZY5FJ6sMWE9p0FBaflU3r+Z8cESlkkQALRCWjbkOgGzAiMcdm/5Kf9Z1zftktuWcjnhzXldGpBcxtsc0QSGickb83LmQv81fIpPb98+YoLCZBAuQS0bUguT2Kc+b+iwsv+U3wftaAvudGUoLW3lRpsKbhofW0x/7tTgKVMEiCBaAS07U40xTOC7hvhnn/tZ/4mnssueABSBg3FLSUGWypIWl9bzM9bAKmii3JJIA4BbbsTR6tdSozO/+WNnPmblLTzAhT5HEBpwWYCjp3W+tpafj4EGDuiKI8E4hPQtjvxLdgu8W8infnLx3VaW56lvA3wpRIBlBRsqflofW0t/0tTA6Z8EiCBYALadidYoUVAjM5fXj1usfMXZLdTDgDkC4HFzXlQSrBZYjDqZq2vLeV/AycCihpLFEYCqQho250UdrDzd1OV5wC0ZbWvW2zeHFoH8loXV5vW19rzyzTH7wNwh7gYKY0ESCAhAW27E9uUGJ1/LdP7hrCTKxunKQcBNwxRmOLYtYMthU82mT35amPA7SRAAmUTWLOditH51zjD39KI+IZyALD/UkWpjlsz2FL5ZJPbk682BtxOAiRQNoG12qkYnb/Y/nkAFy0bcTTrtN+VKe5q7FrBFq0EFIJ68lWBhVlJgAQKIrBGO3W/CE/7m3Z/BsCFC2KaypT/Vl4BkGmEi1rMQvNJF2W80hgf/8w8SvHMTgIkQALBBMw2yCcdqjB25z/Y3MOVABnoDP76/PIKQGi0BhzvU0BmngBV1R56LQDyxoA8QCgsZA7rD2y98lKtUzScBCoiYLZBPukQ1+4f+cx/bG/rVwK+qhwA8BmAkGgNPHYcnK71QHXVHf5QAL+ZCeiXZHin9xoAXgvg+AVTbbrKk/unz1ZO3wzwjgTwEAB7Vhe17RmsjdOlBFKd+Y/tb/lKwC9m2ssxB1m/wdLCSnXclJFz21LZkUPunF9T+3LYVIIO+ca1fKRjisF425MSGvxAAPxgk185jMsl1vrnAFwmYRlTtJuAtizdEnfOkavzH3xpcRBwKc82c2AgvzJ3QFGLaZxPuijjlcb4+GfmUYqvMvtFAHxYEchyheASCTw9EMA5CjvMcmI67qBBLtvukaCMKdKPgDae/aRuz5X6sr/N/tZuB9xa2V7JlbbiZkW0FZZt+/Ywqi9l88m2vT4PdRb/HoCvK4NYWD1Ip8aZW65AHLvADlu5cXv4gCB2GTuDgBm2EdDG77YDPRK5z/zHvrR0JeCpyjbrCx7lkz3LuIBc69kNjKjQ5dt4f0TVxYmS0etJygAe+LwosjfyYMwgm79lsPh45DKmOH8C2jrgK/kBER74ez2AEwPraytXAj6q5PA234LKmS9VsOX0wVdXT77OMflbAGcog9dk949zwhfsOzjAFtMupuMNHmRwyGUdAto49rEyxpn/UO+vu3lg9GeBdbb2KwEXX/C80qE+BZU7T4pgy+2Dr76efJ1ishuAFwZWXGEo3wePuTw4gk3asmX++cGCnOVxWYeANjZdVsY485d2w1xkENDzlYCDFrRZ1zMBlpKOHWyl+DVlR0++jv2/AID3LwjaMTP5+EXsGb54C2C+Mx6XQY513gIY16B869rynbMsxgN/485/0NfzlQC5gqEpJ3ldUE7Ails0TkjempeefDXLaT8AxygD1sZKztZjL3wIUNeY2Mom5nY+BBg7yv3lacvRJllu9Z0dWO//wSZ8a3uPVwJuv4Dpmx0cV9sdK9hWc0ChuCdfByw3B/DTBQE7xeqwQWiC3wP4GqDqjGKqfGJt42uACQJcIVJbjlOipfMPfa3W1fkPensaBMhrfDJplraM7jjAKu1X60hp9mvsKcFXCaAbb6bYfSSAZwCQirqvxglF3ns7Zvbz5SHv/t9HoXdpVpkIKOThRF9/mM/egMnXzTgR0NIIjnOcNj7HWlNe9h/rGtZ7uR0g7aC2fE4ueYZNrTNDgdf4u7avMs3tURMBdBYA+Yb23pGg7roJuL+b0KP1X/LLNwHkKkKu5eoADgdw3IKnbJf4x2PO/d7DJzdXiuT2DicAyhXpdj3amDQlySA69Mz/BaZARbr1KwHy5P+PFrSrMstqsUtIsBXrlMWwNX29DgDXvNGfjvCA3fkAvGtBkE6xkecGrmhhyc0kQAJpCEzVxbltgxUxzvx9L/sPOse/rV4JkCu371nQrsrJnUy4VuwyF1hT+4p1xMOwKX/mtnmI9MoiT3/6fjXqfwIGAZcDoH061ea/vDFwQS/vmIkESCAmAVudtG0X3THO/J8fyYkWrwQ8fkHnL+X19khMk4mxBZVtezJDMgi2+WTbHsskecDNpmNq+5JBwI0WXp6a0i8TfhT5ykqsAqEcEiiYwFSdnNsmb2yEXvb/+8g8WhoE3GMhXymTG0bmGl3cXGBN7YtuQEaBU/7MbYtlmkydO6dnap9mEHA3AL9aoGOsVx7AkzMJLiRAAusRGNdL13ppnf9AroVBwJ8D+O3CtvWNA4iSf13BNd5fsi8u28a+uNZd8nz3v2FhALkGAXJfSj5IEdoACAeZ+lW+D8CFBEhgXQKudinm/qUP/PkSqvmZgD8B8OuFbfepJX76d6rQtME0JaOWbWv5Kg/WaHUP+W2DgPMAeEuA3EG+/MoXAYt+UKWWAKOdJBCBgFk3U6afF8FWHxE1Xgm4Q+Ar1I/1AVNCHm2AlWDzUhvW8lVGklrdZv7xIODSAOSNATPP0vSHAVxkKVAeRwIkEJ3A0rqsOS5X5y9w5E0iea1XY99U3lxfEQzt/I8AILObVrFMgZ7bVoVTFiPn/JraZxGj3izv5X8usAIMgwD5oMT3A2UNvr6ypkBVU+cBJFAngaF+pvpNfdnfpH75zSRi343UXgmP1F8RDLnsL/b9HIBMvV7Nog2yahybMHRNX+USe+jXs74MQD7Go/VjnF/eTT1kgg83kQAJrE9gXF9jrj83o3ty5v+9CO3V2P9UVwL+LPCyvzyLdaeMfKOoGsN1rUdRupIQl2/j/bHNjPFAzNhG7bo8nCJPtnIhARIok4C2Tvvmj/Wevw+12Gf+Yx9jXwkIPfMX+57gA6a0PGOwrvXS7NfY4/JtvF8j2zfvmoOA7wC4pq+hzEcCJLAKgXE7FGO9pc5/4BFrECBf91v6tP9gi9xOrXIZHPD9rdLJLaN9fRzypfJ1jUGAzPV+yVQOUS4JkEA0AkP7E+tXvguSa0l12d/GIvR2wJ8GXvYXu962+bCbPOdV5WIDa9tepZNbRtt8sm1P6WvOQYB8i1peG+RCAiRQPgFbe7Rke+wZ/ubopb7sb/N/6ZWAGGf+/1b7B7RsUG3b5wKg9H02n2zbU/uTehAgD6UcltoJyicBEohKwNYeabf30PkPTLSDAHb+WyE7APT9jRrpmYX5+jjky2FeqkGAvC3wFzkcoA4SIIGoBIb2J+T32VEtmhcW47L/tyK8JeV7OyDGA3/yxdUmPp2tDbL5UCh7b6m+xh4E/KCGj1CUHSq0jgRWIXBohNfmnpXR8hid/zcB7ANA2sHQV6Vdg4AYnf+7W+n8JU5K7RRTxHDJvsYaBHwKgMwUyIUESKAuAjG+6pdzhr8Y9/yHzn8oqRjtoO12wO0iPO0vn0nfazC2hd+SO8XYfEv3NTT45WnUvWNDyyzvGgBeC+B4ADJhkbbMmL8fZvLq1jGb+JTnXC6cOU5jqzsowke9au/8B6ah7aC0AeNBADv/ge7oV9tgjg6varUGX5cEvzzsJzN8ydcBa17kU8RnstPnoGdBDMhtr+tXGvwPZ+e/U8ktaQfH7fswCGDnvxPe7RvG0Fzr24+sL+Xybbx/LQ81wS9nQfdcy9CIeg+M0AiOy4/r/VwNkLL+cYW3v2J0/s+MWA9domLe83fpku+ehD4TINOnh07y8+8A9nQZW+t+bSNZq59id02++gT/DwH8Qc0FsmW7fDnr2AXloy1P5tfXgdqYvaKi+iCdfyjfnHP7p7jn7youzclQKMup45u75z8GPuX03Lbx8TWtz/k1tW9t364CQGbwm7LtvQAuu7aBkfTvb/Fxym9um44HcjmXy8kAdosUlynFsPP3p7vWIOADrT3wN4Vc23BMyahlW62+3nTrQxMy2n80gOvUAtzTzoM5AJgc5GnjlfnPHQTs6xl3a2Vj568nn3sQ0EXnL8WgbTT0RVfOET35Wg51tyUPXhCH2rJkfn1dr5WZvFNe6vKICLHe+mV/W9nlGgR00/kLaG0ltxVODdt78tWnPC4I4O6btweevvUnadmWe+EtAH091MZyL/lPKvgWADv/8JYl9SCgq85fikPbMIQX4XoSevLVRVkmHZH7pWMmsk1ex8u58CHAncthXC5c92NU6kOAMTr/p2WslGs88OfrXqpBQHedvwDXNiy+hVRivp58neP/ZI9yf9KcgAT7DuBrgOq6qI3n1vOX+hogO//4DUbsQYB0/l1+MVXbKMQvynwSe/LVRvVGnh2tTC6U+xVDufJwhsfgRFuOzK8f6NfGTGaOlFdnS1seFSGec57553zPP7SspLzllk9orMobVU1N76sBq4WnkV1a3p58tbF/i6LCvMkmJOH2qwM4HMBxnBUwuGHTxntt+X8F4IubeJYO8kIJY3Kp6Ecq6pqNfc7Ov+TL/lNl8Iebt6JOD2T8H72e+Q9AbYFn2z4cV+OvzSfb9hp9dNn8I0WFkYmGuJAACegJsPPXM9Mcwc5fQ2smr63zs22fEVX8LptPtu3FO7TAwLMVAwD5GA8XEiABHYEYl/2fqlMZlJtn/kH46j7Y1vnZttfsrc0n2/aafbXZbvPVtt0mh9tJgAR2JsDOf2cmMbfwzD8mTcXZ4NBBRFafVdzgg+9vVuMyKfP1fciXySyqIYHqCbDzT1uE0vmftqDPGtoy+e3+nv+4iEw4Punx8TWt+/hn5qnJN19bTf980r5ymY8EeibAzj9t6d8yQuf/wd4f+JsqIp9OwMwzJaOWbaYfPula/NLY6eO3mUcjm3lJoEcC8n0Os84sST8lI7ja7vmz808YHNpgTWhKctFaX5k/eZFQAQlUTYCdf9riY+eflq965JrYnKTi2aHrz1SSFgiFk0DFBNj5py08dv5p+f5OurZTzGBSMhVaX5k/WVFQMAlUTYCdf9rii9H5f4j3/N2FpO3k3BLLzaH1lfnLLUtaRgJrEXhMhHv+8j2OXEuP9/zZ+XtGl7aT8xRbZDatr8xfZDHSKBJYjQA7/7TobxHhaX92/ooy0nZyCtHFZdX6yvzFFSENIoHVCLDzT4uenX9avpPStZ3cpJBKNp4a4dKdllfN+WXSDS4kQALAYyO0Hbzsb4+kWJ3/3nYV3DNFQNtBTcmoZdsnI1RiLa+a8/9PLQVLO0kgIYEYnf+TEto3Fl3bPX92/uMSzLiu7aAymhZd1X04AFC99vmI6CVAgSRQFwF2/mnLi51/Wr5O6T0NAHYB8D4OArwGAV/mKzTOusMMbRNg55+2fKXzD70t+58AeNk/oJx6GgAIpvMCeBMHAbODgGMA7BcQUzyUBGon8LgIbQQv+9uj4Obs/O1wcu7pbQAwsL01gLcB+CGAsyNUdi3H0vKfDkDu+ctl//MMkPhLAh0SYOefttDZ+aflq5Ku7YhUwpmZBEiABCoiEKPzf2JGf2t74I+df8bg8FHFAYAPJeYhARJonQA7/7QlzM4/Ld9F0jkAWISNB5EACTREgJ1/2sKM0fn/N4DzpTWzP+kcAPRX5vSYBEhgO4HDIjwDxMv+23mOU+z8x0QKWucAoKDCoCkkQAJZCcTo/J+Q0eLa7vnfLMLT/jzzTxhgHAAkhEvRJEACxRJg55+2aNj5p+UbRToHAFEwUggJkEBFBJ4e4bI/z/ztBR6r8z+/XQX3xCDAAUAMipRBAiRQCwF2/mlLKkbn/3EA7PzTltPvpHMAkAEyVZAACRRBIEbn//iMnvR4z5+df8YA4wAgI2yqIgESWI0AO/+06OXM/5TAWyvs/NOW0U7SOQDYCQk3kAAJNEbgGYEdk7STPPO3B8VN2fnb4ZS8hwOAkkuHtpEACYQSYOcfSnD+eHb+83yK3ssBQNHFQ+NIgAQCCMTo/GWWwFxLbff82fnnioxEejgASASWYkmABFYlENr5nwPgYRk9YOefETZVnUuAAwBGAgmQQGsEnhl4z5+d/3xExDjz/wRf9ZuHnGMvBwA5KFMHCZBALgLs/NOSZueflm9W6RwAZMVNZSRAAgkJxOj8D01o31h0bZf9bwjg5MCrKzzzH0fBiuscAKwIn6pJgASiEXhWYMckl/3Z+duLg52/nU21ezgAqLboaDgJkMAWAXb+aUOBnX9avqtJ5wBgNfRUTAIkEIEAO/8IEGdExOr8LzCjg7tWIsABwErgqZYESCCYADv/YISzAmJ0/kcAYOc/i3m9nRwArMeemkmABJYTeHaEe/6HLFevPrK2B/5uEOGBP3b+6jDJewAHAHl5UxsJkEA4AXb+4QznJEjnf1LgAIud/xzhQvZxAFBIQdAMEiABLwLs/L0wLc7Ezn8xuvoO5ACgvjKjxSTQKwF2/mlLnp1/Wr7FSecAoLgioUEkQAITBP4u8JK0vOf/0Am5qTbVeM+fl/1TRUOhcmUiLAgAABlRSURBVDkAKLRgaBYJkMA2Auz8t6FIkohx5v9JPu2fpGySCuUAICleCicBEggkwM4/EKDj8OtHeOCPnb8Dcqm7OQAotWRoFwmQwHN42T9pELDzT4q3fOEcAJRfRrSQBHokEKPzf0hGcLXd82fnnzE4SlXFAUCpJUO7SKBfAuz805Y9O/+0fKuRzgFANUVFQ0mgCwLs/NMWc6zO/4JpzaT0HAQ4AMhBmTpIgAR8CDw3wj1/Xva3k5bO/8RAxvLAHzt/O+Oq9nAAUFVx0VgSaJLALgBeFNgxyXv+B2ekU9s9/+tF6PyPZOefMcIyqOIAIANkqiABErASYOdvRRNtBzv/aCjbEsQBQFvlSW9IoCYC7PzTlxY7//SMq9XAAUC1RUfDSaBqAtL5v5iX/ZOWITv/pHjrF84BQP1lSA9IoDYC7PzTlxg7//SMq9fQ4wBgLwCHAvg0gNMDz0C0/ErNLxyExyEAhA8XEkhFgJ1/KrLb5cbo/D+7uUJzke0imWqRgLZDqp3BPgC+wE4fc+V+NADhxIUEYhOQzv8lgfWPT/vPlwo7/3k+3GsQmOsIpvYZh1aXlDNbdv6Y7fyHMpdBAK8EVBfiRRscq/N/cEYve3zVj2f+GQNsbVVDg+/7u7a9Ifrlsr+vn8yX99vpIeXKY8snwM4/fRnxzD894+Y0aDu6mgEcxQGAagD0qZoLm7YXQ4Cdf/qiuG6ESX545p++nIrT0NMA4DQOAFQDAOHFhQRCCEjn/9LAeif3/HnZ314K0vn/LJDx5/jAnx1wy3t6GgBofWX+liOfvqUmEKvzPyi1oYb82u75x+r8L2owYLIjAtpOrmY0Wl+Zv+bSpu1rEmDnn54+O//0jJvXoO3kagai9ZX5ay5t2r4WAXb+6cmz80/PuAsN2k6uZihaX5m/5tKm7WsQkM7/ZYH3o+WePy/720uPnb+dDfcoCWg7OaX4orJrfWX+ooqPxhROIFbn/6CMftZ2z/86kR744z3/jEFWsiptJ1eyLy7btL4yv4so95PAuQRidP5nA7hvRqA9dv6f38zEyM4/Y5CVrkrbyZXuz5x9Pflq40AGNjLcvpSAdP4vD7zsL53/Xy81YMFx7PwXQOMh7RHoqUPoyVdbpJKBjQy3LyHAzn8JNd0xVwfw48ABFs/8dcy7yd1Th9CTr7YAJgMbGW5fQuBVgR1T7jP//Ta3Gb4XaPM3M34s69oATgi0lzP8LYnsTo7pqUPoyVdb+JKBjQy3awk8IrBjYuc/T5yd/zwf7o1AoKcOoSdfbaFBBjYy3K4hIA+SnRowADgLwH00CgPz8sw/ECAPb5NATx1CT77aopUMbGS4XUPgYYGdPx/4s9O+WqR7/hezq+AeEjiXQE8dQk++2uK7dAbXAPBaAMcDkLNErb3Mr2d2OoAjN++XPwTAnrbAGW2X+8pLWMtlf575j2Aaq9cC8NOFbIfy4Id9DKBMzhMYgsb3d15a2Xt9fRzyle3NMusG33x/l2lZdtQDAZwZ2Pj5+sV80x24dB6XcRSfPJUewu9JDvmxdtf2ql+MM/+jN19f5Jl/rAjqQI62IteMpCdfbeVUKoMDAcgUsFr7mD8+s88A2MMWQACeE6GcUg8C2PnPFCB3kcBAQNuADsfV+NuTr7byKZHB7ptJYI6N0KlofWN+++DBNh3vrgC+H6msUg0Cauz8fxTIlGf+thaP22cJaBvBWWGF7+zJV1tRlMhg/8DGT+sT89s7/oHNxy0B9EeRyyr2IICdv6XguJkEpggMFd73d0pGLdt8fRzy1eKXxs7BN99fjeyleQ+O3Kn4+sZ89oHASZbClAc0Y3N7nEWXdnNtr/rJA68/icCTc/trI4X5txHQVuZtB1aY6MlXW/GUyODBERpBrV/MP9+RnzgRQHsD+EWisgq9ElDbmf9VAYRe9h9ieKKouIkE/AgMQeT76ye1zFy+Pg75yvQizKrBN9/fMG1+R/MWwHxn7FtWMfNN3QK4R6LOf7B76SCg585f2HEhgcUEhsrn+7tYUQEH+vo45CvA5OgmDL75/kY3YEIgHwIsbwAw9RDgfyQeAEhMagcBvXf+wowLCSwm4NsRDPkWKyrgwMEH398CTI5ugq/vQ77oBlgEHsDXAKPfWx/KUPs79RrgJTPO0eA7CGDnf+7A0VKluJkE3AS0jYNbYrk5evLVVgolM5CJgM7IcJapZdBTfpnhb2oioNAP/2gZugYB7Py3XzWy1XVuJwEnAW3FdAosOENPvtqKoXQGMsvc4QCOy3jGqWXSWn75qM8nN1PQysOYtgmA5HvyGr9jzOhoezugtqf9JaZ/rOSnYW2r69xOAk4CmkCTvDUvPflqKycysJHhdhsBeV1NGzevBCAduPa4cf7xlYAaz/x/GIHDmIu5bis3bicBJwEzkHzSToEFZ/Dxz8xTsCuLTTP980kvVsQDmyHwvAUd2M22vI85CGDnPz2gaibQ6Eh+Aj6dgJknv4XxNJp++KTjaS5Hko/fZp5yLKclaxCQqX/ly4xmTLjS3wawi2HsYcrjp+TLIOR7gXK+CWAfw66UyRgf9pniMLUtpR+U3TiBqYCa21Yzjjm/pvbV7KvN9ik/57bZ5HB7HwRus6DTfdoEmhhXAubi1LUvZ+f/+wBSX/Y3/Z3AzU0k4EfADCSftJ/UMnP5+GfmKdOLMKtM/3zSYdp4dO0EXrdgACAd4NSy1iCg5c5f6jAXElhMwKcTMPMsVlTAgaYfPukCTI5ugo/fZp7oBlBgNQTOB+A05QBA3iaYW2LcDjDj05XO2fnHmN73i0re4j8XElhMwFWBxvsXKyrgwLEvrvUCTI5ugsvn8f7oBlBgNQTutaAzOsjDu1xXAnJ2/jEu+0vnf/EFzD2QMwsJTBMYN/iu9WkpdWx1+TbeX4dXOivHPrrWddKZuyUCH1J2Rr8FcDFPAKkHAbV1/l8FcOktdq46Od7viZzZSGBnAuNgcq3vLKGeLS7fxvvr8czf0rGPrnV/yczZEgGZDfAs5QDg35QAUg0Cau78BaGrTo73K7EzOwlsJzAOJtf69iPrS7l8G++vz0O3xWMfXetuiczRIoFHL+iI/mIBiNiDgJyd/+9FeNrfPPMf8Lnq5Hj/cBx/SUBNYBxMrnW1goIOcPk23l+Q6dFMGfvoWo+mmIKqIqB9GO0kAHst9DDWICB35/+DBYMks759zbjsb6Iz8/ikzWOZJgEVAZ8AM/OohBeW2fTDJ12Y+VHM8fHbzBNFKYVUReA6Czq2lwd6GOPtgOcE2uB7eIwH/o4BcAmLQrP++aQtYriZBNwEfALMzOOWWG4O0w+fdLmeLLfMx28zz3JNPLJWAs9fMAC4SQRnY1wJeHIEO+ZEyGX/VGf+g16z/vmkh+P4SwJqAj4BZuZRKyjoANMPn3RBpkczxcdvM080xRRUBYElU/9+azT1b4ijJQ8CcnT+ws6sfz7pEN48tnMCPgFm5qkZl+mHT7pmX222+/ht5rHJ4fY2CdxuQQf0lMgoShwExOr85e0K12LWP5+0Sx73k4CVgE+AmXmsgirYYfrhk67AJbWJPn6bedQKeEDVBN6gHACcA+BKCTwuaRCQs/MXlGb980knwE+RvRDwCTAzT81cTD980jX7arPdx28zj00Ot7dHYMnUv59IiKGEQUDuzl9wmvXPJ52wCCi6dQI+AWbmqZmH6YdPumZfbbb7+G3msclJtf0aAF679Qla7UQ0pt1M6zuSJcwemCoQtuTGeDvg8QttvMqCTyGPGX4FwKWU+scyXOtK8cxOAtsJuIJrvH/7kfWlxr641uvz0G2xy+fxfrfEeDmkMzlzwRnQ2Gau5+n8fw3gIvGK3yppjUHAWp2/QNDGrxUcd5CAi0BPwdaTr7ZyL5XBgQDkfrLWPuZfj9k7bEGWYHvOQcCanb+g08Z0AtwU2QuBnoKtJ19t8Vsig90BHLug4dP6wvz6zmWO2QG2IEu0Pccg4MoRLvvL9L7ay/4msjnmU/vMY5kmARWBqYCa26YSXljmOb+m9hVmfhRzpvyc2xZFqUPI/uz81Wd9c2WWY9/PAOzhKNcUu1MOAqTz/35gLE7N7a/loC0/rXzmJ4FtBHoKtp583VbAo0SJDB4c2OhqfWL+8CsBpwC40Si2cq2mGASU0vkLQ2185uJOPQ0S6CnYevLVFqolMuAAQN/oa8sxRf5fALixLdASb4/5iuAVItyC+jqAy0byWVtWkdRSTI8Eegq2nny1xXKJDHgLoM4BgMTSzyu/EvCCCJf9bV/1s9VB1/YS66jLZu6vlEBPwdaTr7ZwLJEBHwKsdwAg8VT7IEBbJ8z80vn7TO9rq49T2035PukpGdxGAl4EfALMzOMltNBMph8+6ULdCDLLx28zT5AyxcHyRDlfA6x3INDjICBF5y9Vxqx/PmlFNWNWEtiRgE+AmXl2PLquNdMPn3Rd3vlZ6+O3mcdPapxcMhHQGQsaQNNepvUdSCxmPQ0C5J5/7DP/oRZpy2M4jr8koCbQU7D15KstEEpncHUAhwM4jrMCqs8EtWWbIn8Pg4CUnb/UW2252Oo6t5OAk0BPwdaTr7aCJwMbmf62f3RBZ+MTP7W/HTDn4zciPu1vi7g5/VP7bHK4nQScBKYCam6bU2DBGeb8mtpXsCuLTZvyc27bYkU8sGgC+wI4O9EAQOJpzSsB/5DIr5iv+s0Fx1x9nNo3J4v7SGCWwFRAzW2bFVb4zjm/pvYV7s4i86b8nNu2SAkPKp6AfCFvrtxj7Mt5JWAvAHcE8HYAv03g2zcB7JOpVLXsM5lFNS0S6CnYevLVFqtkYCPT1/ZjEnSSU7GVehBww80XCV8M4ISE/uTs/CUKpzjObesrcultVAJzgTW1L6ryzMKm/Jnbltm8LOrm/J3al8UoKslKQDrNqbJOtS32IODyAGQmQOmYU9k8yM3d+UsgDLp9f7MGD5W1RcA3yIZ8NXs/+OD7W7OvNtt9fR/y2eRwe70EXrSgk5F33oeYWPIb+kzARQAcBOCIjPNFrNH5S1Rp+dYbibR8dQI9BZvWV+ZfPTxpQGQCMuvij5WdjHzh7nwA/q/yuHH90V4J2G3T4d8GwOsB/DJQ99gW1/panb8Ut8u28f7IIUJxPREYB5NrvWY2Lt+4f+fGp+bypu07E7jDgg5GHhiUJdcgYLiv/9MFtsaow2t2/sJZ68O5pcP/JLCAQE/BpvWV+RcEFA8pmsBblB2MvCoo99yH5QIAPqmUMa5HU7cDrrh5LfEpAOQ9+3H+nOtfyvi0/8B0/Kv1d3w810nAm0BPwab1lfm9w4gZKyBwQQC/UnawH5vwK9YgQC7v/y2Aj2e8r2+r06cCeO7WVY4Jl7Nustlo257VOCpri4AtqGzba/be5hO328+6ai5v2r4jgfsrO3+pF/fdUcS2tRi3A9aud3J1Qx4qlG9QnH+bZ+sntFzWt5gWVEugp2DT+sr81YY1DZ8goH2IT64WXGhCzrCp1kHAVzYOHAbgCoMjhf1q253CzKc5NRHoKdhOW3AGpOXTUv5Tagpk2jpLQO7ja6f+fdOsxHN31jII+OHWhEE38PBp7SzaNmRte6m/YgI9BdtRHACoHrD6VMVxTdN3JPCkBbH/JzuKsK6VOgj49dbUwDJFsLz+WMvSU5tcS5k0a2dPwXbIgkZQy6el/A9tNur7c0w7kY/MFeDbaUq+vyrk881nAfhPAPcu7L6+JuK0bYhGNvOSwA4Eego2+WDI0RwEeF0FEE577hApXKmVwI0WxPwLPZy95taT8z9ZIF/b7rjyD/f19/Owu/QsLl/H+0v3h/YVTGAcTK71gl3xMk2+6MVBgP2pfyl/4ZPry2dehcZMQQResqCDvr5Fo8TFwwqpQycCeDWAW1hsrXWzqw0e76/VT9pdAIFxMLnWCzA52AQ5s5XL23KPmw8GnjsYEA5HbnHhmX9wiBUjQC7Pa8/Q5WzaXPYGcFcA7wUgl9hdbUTK/eZ9/T1MIxtKa/k15DpdyU2AwZabOPWRQD4C8gCcto4/FsCuxjz8aw+Szff1ZRKi1hdtebXOg/4lJMBgSwiXoklgZQJvXzAAeNuCDwZp2xGf/F/e+uzv5VZmmFu9DxszT277qK8hAmYg+aQbcp2ukEDTBGQSH+3Uvz5tQMo8JzV6X18TaFq+GtnMSwI7EGCw7YCDKyTQDAGZZ19bv9fIL/f15fkCec6g1fv6mqDSloFGNvOSwA4EGGw74OAKCTRDQD6yo63fufKb9/XlI0VcthPQlsH2I5kiASUBBpsSGLOTQAUEZJ77cwocAMiERDIP/5UqYLiWiWyT1yLfoV4GW4eFTpebJ/CUgjp/3tfXhRvbZB0v5g4gwGALgMdDSaBQAl9feQDwG97XXxwZbJMXo+OBWgIMNi0x5ieBsgnceMXO/7NbMwVerGxERVvHNrno4mnLOAZbW+VJb0jgxZkHAHJfX742KM8dcAknwDY5nCEleBJgsHmCYjYSqIRAjm9dnGy8r79LJVxqMZNtci0l1YCdDLYGCpEukIBB4JREVwB6mIffwLhakm3yauj7U8xg66/M6XHbBI6NOACQVwllPgGZVOjCbWMrxju2ycUURfuGMNjaL2N62BeB10cYAHwPwHMBXKUvdEV4yza5iGLowwgGWx/lTC/7IXBTADLTnrZunwjgZQBu0g+qIj3VlluRTtCoOggw2OooJ1pJAhoCz/QcAMj7+u8EcCCAPTUKmDcZAbbJydBS8JgAg21MhOskUD8BeTL/YQCkgx/Xcbmvf8Tmk78PAnCR+l1tzoNxebnWmwNAh/IROGuigZgLuN3ymUZNJEACgQRkQp6HbDp6mRvg5QAO4jz8gUTTHr6Xsj2WNzO4kMBiAtpXhvjlrsWoeSAJkAAJzBK4uHIA8NNZadxJAg4CP1AG3OUc8ribBEiABEhgGQF562LuCux437eWqeFRJHAuAZnGcxxUc+u3IDgSIAESIIEkBP5U2R7Ltxe4kMBiAh9RBtz9FmvigSRAAiRAAnMEHq5sj982J4z7SMBF4BXKgJMHibiQAAmQAAnEJyAd+twV2PG+p8c3gRJ7IiCvCo2Dam79Kz3Boa8kQAIkkImAvLr5E2V7fI9MtlFNowRuqww4eYf4io2yoFskQAIksBYBmYFx7uRrat811zKWetsgcD4Av1UGnnz7mwsJkAAJkEA8AnJ7daqTt22TqwX8FHM8/t1KklnBbEE2tV1ePdm1W1p0nARIgATiEpATMfkWw1R7a9v25rgmUFqvBJ6hDDwJyLv0Cot+kwAJkEBkAo9a0AbzjazIhdCruOsvCL6jeRWg13Ch3yRAAhEJXGDzXYYfK9tg+cYDv+MQsRB6F/VFZQDKVQD5mAgXEiABEiCB5QResKDtfcdydTySBHYm8JgFQXgSgMvsLIpbSIAESIAEPAjcAMAZC9reAzxkMwsJeBO4FIBfLQjEj/JWgDdjZiQBEiCBgYB8WE0eqLY95Gfb/m0Auw9C+EsCsQi8dEEwSpA+J5YBlEMCJEACHRCQz6q/Z2F7+4AO+NDFFQjsu2BOgGGUKnNYcyEBEiABEpgnIO/u/9PCzv/7APacF8+9JLCcgHYyimEAcDaAQ5ar5ZEkQAIk0DwBOfN/zcLOX9ra+zZPiA6uSkBeLTkhIEDldoAEORcSIAESIIHtBOSe/9LL/tL5f4Iz/22HyVQ6AjLKHM7sl/zKg4F8OyBd+VAyCZBAXQTkaf8lD/wN7e+ZAK5dl8u0tlYCco/qQ4GDAHlF8CC+IVBrCNBuEiCBCARkkh95z3/Jq35D5y+/T4lgC0WQgDeBSwL4UeAgQAL3CwDuyoGAN3dmJAESqJ+AzO3/yAUz/Jmd/pD+MNvP+gOiRg9uBeCsCIMACWS5/CWj2CvXCII2kwAJkICDgFw5lU/6vmzzQLRcAR068JBfOQmTOVq4kMAqBA6OFMhmJfgGgFcBkPdZ/xCAvH7Iea1XKV4qJQESUBKQ1/AuCuCqAP4EgLwC/VYAP43cVp6yeWhQvtPChQRWJXBY5MA2BwNMxzlTIEdyZAy0EwO/BXC7VVt9KicBg8DSWQLZKLXTKLEsWZaMgfQxIF/6+0uj7WWSBIog8DheCYhyX4+NaPpGlIzJuMYYOA3A7Yto7WkECUwQkGcCYj0YWGMFpc3sWBgDjIEUMSAP/PGe/0Snw01lEdgfwA95NYBXAxgDjAHGQJQY+BgnTyurk6M18wRknoAPsvJHqfwpziYok2epjIHyY0Bm+JPXo3edb265lwTKIyDvvd5nM+PfTzgQ4ECAMcAYYAyoYkDm9uf0vuX1a7RISUDe4ZfJL+TVFZ51kAFjgDHAGLDHgHzSV763IidQXEigGQIyY9VzAfySAwEOhBgDjAHGwA4xcCyAh23ayPM00+LTERKYICDPBzwKwBfZAOzQAPCsyH5WRDZk02IMyDv97wRwAIDdJ9pKbiKBpglcd+OdzCT4cd4i4GCAA0LGQAcxIM9EvRnA/TjFedN9G51TEpAvZP3x5kMZhwB4OQD5ytVXNxVF7omdDOCcDhqHFs9y6BPP3nuKATmrPwHAdwAcBeBtAJ4J4B4ArqlsE5mdBEiABEiABEiABEiABEiABEiABEiABEiABEiABEiABEiABEiABEiABEiABEiABEiABEiABEiABEiABEigFwL/HysFnONdYMIeAAAAAElFTkSuQmCC;" parent="1" vertex="1">
          <mxGeometry x="380" y="300" width="20" height="20" as="geometry" />
        </mxCell>
        <mxCell id="8fTbJQ_2yBlo6duqBfsQ-15" style="edgeStyle=orthogonalEdgeStyle;rounded=0;orthogonalLoop=1;jettySize=auto;html=1;entryX=0.5;entryY=1;entryDx=0;entryDy=0;" parent="1" source="8fTbJQ_2yBlo6duqBfsQ-9" target="8fTbJQ_2yBlo6duqBfsQ-4" edge="1">
          <mxGeometry relative="1" as="geometry" />
        </mxCell>
        <mxCell id="8fTbJQ_2yBlo6duqBfsQ-9" value="Post-Survey" style="rounded=1;whiteSpace=wrap;html=1;fillColor=#fff2cc;strokeColor=#d6b656;" parent="1" vertex="1">
          <mxGeometry x="160" y="370" width="180" height="60" as="geometry" />
        </mxCell>
        <mxCell id="8fTbJQ_2yBlo6duqBfsQ-10" value="" style="shape=image;verticalLabelPosition=bottom;labelBackgroundColor=default;verticalAlign=top;aspect=fixed;imageAspect=0;image=data:image/png,iVBORw0KGgoAAAANSUhEUgAAAgAAAAIACAYAAAD0eNT6AAAAAXNSR0IArs4c6QAAIABJREFUeAHtnQXYNkd57/9xgruFQJAW93LwBlqkLSUpRQ7FSoFCCCS4W7AChVLcmtLiWigHKRTpKYRAigQIbiEEDUkggsXOeW7y7vfNt9/Oztw7siP/va73fWZ3Z2/5zT2yNgtwIQESIAESIAESIAESIAESIAESIAESIAESIAESIAESIAESIAESIAESIAESIAESIAESiEHgQgD2BXA1ADfc+pO0bJN9XEiABEiABEiABComsDuAmwB4LIDXATgKwM8B/D/Hn+T5NIB/BfAYADcGsFvFHGg6CWgJXBTATQH8zebAwwA8H8CrN4Pmt279SVq2yT7JI3nlGC4kQAIksBoBOYN/wOas/r0ATnV09K6BgLn/lC2Z9+dVgtXKlorTEfg9AA/a6tx/HFBvfgTgLQAeCOAq6cylZBIgARLYTuB2W43XrwMaL7PDn0v/aquRu+129UyRQHUELgfg8QC+krDOfHnrCtw+1dGhwSRAAkUT2BXAnQF8LmEDNjcQkH2fBXAnAGILFxKogcD+AD4A4OyM9UZ0ic5b1gCINpIACZRN4I8AyNmFq4POtf9LAG5VNjJa1zmB2wM4ooA683EAvHrWeTDSfRJYQuDSAF4P4JwCGrKpwYU8eyCXVrmQQCkEJB7fXmB9kbqyXymQaAcJkEDZBP7S8yn+qY4557aTARxYNkpa1wEBeXPlCZs3WX5ZYOc/1Eex7XF8y6aDaKSLJLCQwB4AnlvwWf/QmI1/5VWpPRf6zMNIIITAJTev5n2o4I5/XFf+C8BlQxzmsSRAAu0RuDiAT1XUkI0btk/y/ej2grJwj24D4KcV1pmfAJBne7iQAAmQwO/OCOThunGnWtv6VwFcnuVJAhkI3BPAGRXXmTMB3C8DJ6ogARIomMDvAzi+4oZsPEj5PgDxiQsJpCLwyApvk43riazLA74PTwWJckmABMomIJOGfC9h5y8NjAwu5Mxc3uOXP0n/IHEDeizvc5YdeBVbJxP6THWmNW+ThwO5kAAJdERA5hOP/X6/TG36hq1Li9cDcN4ZnrJP8siUv28EIPclYzaickvjwjP6uYsEtARk6usUr8XK2ywfA/DKrW9iyPS+/3vrT9LynYxXbeXx+caGth6JT/KdAS4kQAIdEJDXluRpYG1DMZX/t1sduEwRHPIhHzlWJlB5U8R7qx/hzIEdRHMeF+V107Mi1RmpRzL4llcH5SuZmnojef9gU0eeGHlqYXkm4M/zoKQWEiCBNQk8M0JD9pvNU/cvSfTQnTzI97JNAymDi6lBh2bb09YETd1NEJAP+MT44JUMIN681YHHAnOjre9lxBic/GJzBe/KsQyjHBIggfIIyKtLoXOTf3jT6Fw1g2tX28xp/tHAQYA0jLfOYCtVtEngPJvJpo4OjEEZsL57c3VLBhKpFnnw9T0R7JTndPZKZSTlkgAJrEfgAlsP4GnOoM288gXAg1cw/5DN19TkioNpiyYtbwacbwW7qbJ+AnIlShNr47zywOsdMmK4I4AfBtr8ooz2UhUJkEAmAi8MaBjkaf7rZ7JzSo3cKw1p2J43JZTbSGCGwE0Dr5bJV/kuMSM/1a7Q2QnlCqHcWuBCAiTQCIFrBTxc97VE9/q1aK8A4OsLBzHykNN1tAqZv1sC8rDd5xfGmlwFeOnKD6DuAuAFAfbLrQDNw4ndBgodJ4EaCHxwYWPwTQByRlHKcikA31roy/tKcYJ2FE9AbjuNL+f7rj+lIO+eGuDHQQX5QVNIgAQWEpDXhnwbLzPfjwBccaHOlIddCYDMOWDa6pOW953XvI2RkgllxyMgD/4tiS+JwRJvNT1/QV0RX+T5BT4QGC+uKIkEViHwrgUNgFwyv+Uq1vop3X/he9nv8BPPXB0TkAddfQaU4zzyip9cei9tEZveutAnmYiICwmQQKUE5NWjJa/9yUQjpS9PXtCoCQu+61x6ya5nn3wSW6aSHnfurnV5NuX865nt1CxvAH1jgV/fAbC7UzozkAAJFElgyaQ/X6ik0kvD9MUFjdphRZYUjSqBwAEL4kmultVwa+kGC6+acYbAEiKTNpCAkoBc+tOezch9cnn9qZblFgvmZ5ezmhIv1dbCvGU737lgAPCPFQF58QL/3laRfzSVBEhgi8AfLqjsMptYbYs83e+6RDvef/PanKS9yQlcZMGEUz8DcMHklsVTcCEAJyrri0wAxg9rxSsDSiKBLASeo6zo0kneOItlcZXIFYtxB+9af1ZcEyitAQLyRTxX3Iz3P6lCv5e8GnifCv2kySTQNYGjlA2a5K91+YzS1yNrdZR2JyMgn6Ued/Bz66dVemYsVzpOV/r6umTUKZgESCA6AbnUp/1C2EOiW5FP4MOUDZo8uFXTpdt8JPvVJO+9z3X4433/UjGq1yt9lWm4uZAACVRC4HbKCi6vx60xb3ksnJde8DCgfBmRCwkIAfny5LiDd63/UcXobrvAX/niIBcSIIEKCGjPiOXVv9qXY5SN2kNrd5j2RyPwV8rYObWSV2VtgOQVWvHBNcgx99/NJozbSYAEyiLwcmXlbuEToC9R+iwfbOFCAkJA5oYwOztX+r0NYJOvFbr8NPfLw4NcSIAEKiDwUWXlvl8FPrlMfIDS5w+7BHJ/NwTeooydJzRARt5gMDt4V/pNDfhMF0igCwJfVVbuFt6Ll28XuBoxc/+Xu4gEOulDQPsWyZ18hBae587K+lLzW0KFFwXNI4G4BL6vrNz7xlW/irQrKH0+bhUrqbREAtpPTF+zRCeUNl1bWV/k0+BcSIAEKiDwC2XlltcGa1/k/WbzDN+VPrl2h2l/NAI/VcbOJaNpXk+QvDnjqiPmfvlEMhcSIIEKCMh77mbldaVb+OKX+ODy09wvjLiQgBD4pTJ2ztsAtvMpfZbJg7iQAAlUQMDs6HzSFbjkZaKPr2YeL6HM1DwB+QiWGReudAsfkxIfXH6a+4URFxIggQoImBXXJ12BS14m+vhq5vESykzNEzBjwifdChAfX808rfhNP0igaQJmpfVJtwLDx1czTyt+048wAmZM+KTDtJVztI+vZp5yLKclJEACVgJmpfVJWwVVtsPHVzNPZe7R3EQEzJjwSScyI7tYH1/NPNkNpEISIAE9AbPS+qT1Gso8wsdXM0+ZXtCq3ATMmPBJ57YvlT4fX808qeygXBIggYgEzErrk46oelVRPr6aeVY1lsqLIWDGhE+6GMMDDfHx1cwTqI6HkwAJ5CBgVlqfdA6bcujw8dXMk8Mm6iifgBkTPunyPfKz0MdXM4+fVOYiARJYlYBZaX3SqxobUbmPr2aeiKopqmICZkz4pCt2dQfTfXw18+xwMFdIgATKJGBWWp90mV7orfLx1cyj18AjWiRgxoRPuhUGPr6aeVrxm36QQNMEzErrk24Fho+vZp5W/KYfYQTMmPBJh2kr52gfX8085VhOS0iABKwEzErrk7YKqmyHj69mnsrco7mJCJgx4ZNOZEZ2sT6+mnmyG0iFJEACegJmpfVJ6zWUeYSPr2aeMr2gVbkJmDHhk85tXyp9Pr6aeVLZQbkkQAIRCZiV1icdUfWqonx8NfOsaiyVF0PAjAmfdDGGBxri46uZJ1AdDycBEshBwKy0PukcNuXQ4eOrmSeHTdRRPgEzJnzS5XvkZ6GPr2YeP6nMRQIksCoBs9L6pFc1NqJyH1/NPBFVU1TFBMyY8ElX7OoOpvv4aubZ4WCukAAJlEnArLQ+6TK90Fvl46uZR6+BR7RIwIwJn3QrDHx8NfO04jf9IIEiCZwfwG0BPAzAKwB8BMDXARwP4GTl97vNiutKFwljgVEuP7lf9w148prmtSA0izwkVfmeudVeSbv1NQDvB/AiAA8BcHMAexRJg0aRwAoEbgDgmQCOACAVJ1WlnJO7gttJVM75yH3rxFaL3JME7wpC1yqbXwL4KIAnALjSCn5TJQmsSuDSAB4L4JiVOvxxxV8VRkTlY7+4zk4/RQxEDNlVRaVgo5V5DoAjt64OyBVQLiTQLIErAHjxpvP/VSEd/1BZWwE++MNfdvwpY4D1JU18nbLVPl62FcD0gwSEwMUAvBrAGYV1/EMj2UopDf7wN00DTa7ncmV9SRtfcoL0dADnbQU0/eiTwC6bB/juv7m89bNCO/6hQW+ldAZ/+Ju2ge6dL+tLnvj6HoC/bAU2/eiLgNznl6f4a2gsWymZGljTxjrqxFw5sb7kLcM3AbhgK9DpR/sEbgXgR5V0/tLQtbLMNdrcl7fRbpk360v+WJKrATdrBTz9aJfAIQDOrqjz5wAgf2PWcufYg2+ttF61ldVvANytFfj0oz0Cj6us4x8agFZKYvCHvxzUpIwB1pf14kteG3x0KwVAP9ogIA/7vbzSzl8aylaWlI0+Za/X6JfGnvVl/Vh4aiuFQD/qJ/Csijt/DgDWb8xK6+Boz3xM1N9inetB7eX88FYKgn7US0Du+ceuSF/d+haAvEJ4SwAyMcZFFIi09ihEF521V7+LLpQKjOs1blL5vdtWe7UvgFtvHoh+IIB/AfDtyG2lPGt19wriiyY2SuCPIz7w9y0ATwZwxQisUlXsCKYlFdGr30mhdiC817hZw+9rbH375PuRBgPyYKB8T4ULCWQlIO/5/zhCEB8N4C4Ado1o/RoVO6L5i0X16vdiYDzwdwR6jZs1/ZYvAt5n62uBWjvG+eXkifMEsDJnIyAP/YVO8nPSZgDxoMgd/wBgXEFc68Nxtf+6/Bzvr91f2h+HwDguXOtxtK4vxeXneH8Ki2Ug8CgApwaeTL0lhXGUSQJTBB4QGKwf27qvPyU7xrZxxXWtx9BZggyXn+P9JdhMG9YnMI4L1/r6FsexwOXneH8crdNS5ENp8kn0sU7N+gHTormVBOIRkA/7hMzt/5xEZ/2mh5pKI3lbWXr1u5XyW8uPXuOmNL/lasArAwYBxwLYe60got4+CLxqYYDKE6uHZkJUWsXO5Lb67CGXXdRTNgHWF78z71ylKA9Da8tkyP/MXEZST38ELg/gtwuD8xEZcQ2Vwfc3o2lJVfn6O+RLagyFV0NgiAff32occxjq6++QzyEu6m6Z6GfQq/k9fTMp2yWiWkJhJLBFYOlsf3LZP+eiqTCSt5WlV79bKb+1/Og1bkr3+xULBwHPWCuQqLddAvLa368XBORHM9zzH1MvvWKP7Y213qvfsfj1KqfXuCnd7z0BHLWgzT2ZrwX2WpXT+f3YBYEor/pdJp1JVsmlV2yr4YE7evU7EFv3h/caNzX4vd/mNcHTFrS98oo1FxKIRuBLFQVhDRU7WsEYgnr120DA5AICvcZNLX4/ZkHb+4kFccBDSGCSgEw1qa0sMsNfzNn9Jg2zbNTaahFT3eZe/a6uoAozuNe4qcVveT3wG8o2WD4bfKXC4ozmVEpAXi3RVpa7ruir1tYVTY2qule/o0LsUFivcVOT3/dd0AbLbVsuJBBM4JPK4JO5qeWLWGst2orda/61yod6yyLQa/xr/V6z1OQqwPHKdviDaxpM3W0QOD+AM5SBJxNZrLloK3av+dcsI+ouh0Cv8a/1e+0Sk9epNTb/EoC8ScCFBBYTuK0y6OTeU4xP+i42WGmvpkK1ljeEMY9th0BrcZ3Kn7VL/JoL2rabr2009ddN4OHKoPtqAe6magBak1tAUdGEAgi0Ftep/CmgqPA9ZXvM1wFLKLWKbdDORiX5115SNQCtyV27nKi/DAKtxXUqf0oorX9VDgBeWILRtKFeAjKTn6ZC3a8AV89S2qzxr5W8wogLCQgB+VBXK3Gdyg9hVMJysLKs3l+C0bShXgJfUwbcLQpw9YdKm1M1GiXL/W4B5UQTyiDwE9YX5wDohDKKCn+sLKtjCrGbZlRK4AfKgLtcAX6+VWlzyR11Ktv+qYByogllEHgX64tzAPAfZRTV7x6w1rQJxxViN82olMApysbhggX4KVchNJWkt7xy+f/aBZQTTSiDwB1YX5ztxb3LKCpcVFlW8mEgLiSwmID2fvqaEwCZTmofXuxpEPA0ExTT3RPYBcB7lB1LT/VFpjWXiXhKWHZXlhOf9Smh1Cq2QVvRS3FVKsorlZVF62tt+aUxkM5fGnwuJGASkCt3/8X6stOVAHntbu15TcxykrS23Rkfz3US8CZQe7DdEoA8E9Drg4Hy9PKxAA4HcB3vUmfGHgnI1Tt5b/zTAGQWOW3dbyX/mQC+A+DvAVy4wEDQci7QBZpUCwEGWy0lRTtJgAR6IMA2uYdSLsRHBlshBUEzSIAESGDBlRlCI4HFBNYaAOwF4NCty5GnA5A/uTR5CADZx4UESIAEeiSwVpvcI+vufV4j2PYB8IWZka48lSt5uJAACZBAbwTWaJN7Y0x/twjkDjY5u5/r/Ad7ZBDAKwEMUxIggd4IDG2g729vfOhvRAK+QTbkC1Utl/0HWa7fh4Yq4/EkQAIkUBkBV7s43l+ZezS3JALjYHKth9p+lGIA8KlQZTyeBEiABCoj4GqDx/src4/mlkRgHEyu9VDbT1MMACQvFxIgARLoiYCrDR7v74kNfY1MYBxMrvVQ9S754/2h+ng8CZAACdREYNwGutZr8o22FkbAFVzj/aHmj+W51kP18XgSIAESqImAq00c76/JN9paGIFxMLnWQ83X3AKQLxVyIQESIIGeCLja4PH+ntjQ18gExsHkWg9Vz4cAQwnyeBIggZYJuNrg8f6WWdC3xATGweRaDzVHZvpz6Rj28zXAUNo8ngRIoDYCQ/vn+1ubf7S3IAK+QTbkCzVdJveRSX4GebZfybNnqDIeTwIkQAKVEbC1ibbtlblHc0siYAsq2/YYtss0v3ODANnHqYBjkKYMEiCB2gjY2l7b9tr8o70FEbAFlW17LNPl7F4u8ctkP/JgoPwdubWNZ/6xKFMOCZBAbQRsba9te23+0d6CCNiCyra9INNpCgmQAAk0R8DW9tq2NweADuUjYAsq2/Z8llETCZAACfRHwNb22rb3R4geRyNgCyrb9miKKYgESIAESGAnAra217Z9JwHcQAK+BGxBZdvuK5f5SIAESIAE9ARsba9tu14DjyCBLQK2oLJtJzgSIAESIIF0BGxtr217OksouXkCtqCybW8eCB0kARIggRUJ2Npe2/YVTaXq2gnYgsq2vXZ/aT8JkAAJlEzA1vbatpfsC20rnIAtqGzbC3eH5pEACZBA1QRsba9te9XO0vh1CdiCyrY9lrUyJfChAD4N4PStP0nLtwJkHxcSIAES6JGAre21be+REX2ORMAWVLbtMdTKNL9fmPkeAKcCjkGZMkiABGokYGt7bdtr9JE2F0LAFlS27aFmy9n9XOc/6JVBAK8EhNLm8SRAArURGNpA39/a/KO9BRHwDbIhX6jpctl/kOX65eeAQ2nzeBIggdoIuNrF8f7a/KO9BREYB5NrPdT0oxQDAPlQEBcSIAES6ImAqw0e7++JDX2NTGAcTK71UPXy1T+XjmG/5OVCAiRAAj0RGNo/39+e2NDXyAR8g2zIF6p+kOP7G6qPx5MACZBATQR828YhX02+0dbCCAxB5Psbar6vniFfqD4eTwIkQAI1ERjaPt/fmnyjrYUR0FySPyWC7b5BPeSLoJIiSIAESKAaAkPb5/tbjWM0tDwCuR/K8w3qIV95xGgRCZAACaQjMLR9vr/pLKHk5gnIzHu+gRbjtTxfXUO+5guADpIACZCAQWBo+3x/jUOZJAEdAZlsRybdcQWb5NlTJ3oyt0vPeP+kEG4kARIggUYJjNtA13qjGOhWLgIyNe/cIED2SZ4YiyuYx/tj6KQMEiABEqiFwLgNdK3X4hftLJiAnN3LJX6ZfEceDJS/I7e2xTjzH1x3BfN4/3Acf0mABEigBwLjNtC13gMT+tgIAVcwj/c34jbdIAESIAEvAuM20LXuJZSZSKAEAq5gHu8vwWbaQAIkQAK5CIzbQNd6LruohwSCCbiCebw/WCEFkAAJkEBFBMZtoGu9Itdoau8EXME83t87L/pPAiTQF4FxG+ha74sOva2agCuYx/urdpbGkwAJkICSwLgNdK0rxTM7CaxHwBXM4/3rWUrNJEACJJCfwLgNdK3nt5AaSWAhAVcwj/cvVMPDSIAESKBKAuM20LVepZM0uk8CrmAe7++TEr0mARLolcC4DXSt98qJfldIwBXM4/0VukiTSYAESGAxgXEb6FpfrIgHkkBuAq5gHu/PbR/1kQAJkMCaBMZtoGt9TVupmwRUBFzBPN6vEs7MJEACJFA5gXEb6Fqv3F2a3xMBVzCP9/fEhr6SAAmQwLgNdK2TGAlUQ8AVzOP91ThGQ0mABEggAoFxG+haj6CSIkggDwFXMI/357GKWkiABEigDALjNtC1XobVtIIEPAi4gnm830Mks5AACZBAMwTGbaBrvRnH6Uj7BFzBPN6fisjVAbwSwHcBnAlgrLeF9RMBvB/AHVNBpFwSIIHoBLRtT3QDKJAEUhEoIbgf13Cnb+P7RgB7pCpUyiUBEohGwFaHbdujKaYgEkhNwBbEtu2x7Xlso2f7Nn7m9pfFhkl5JEAC0QmYddYnHd0ACiSBVAR8AtrME9MOuezf6uV+k5ktfTaAa8UESlkkQALRCdjqr217dAMokARSEbAFsW17TDvknr9NTy/bnx0TKGWRAAlEJ6Bti6IbQIEkkIrAmsH9HQ4A8O+pCpZySYAEohBYs42M4gCFkICNwJrBfRYHABwA2AKT20mgEAJrtpGFIKAZrRJYM7i1ulvMz1sArdYs+tUKAW2704rf9KMDAmsGt1Z3a/n5EGAHFYwuVk9A2+5U7zAd6IfAmsGt1d1a/pf2E2b0lASqJaBtd6p1lIb3R2DN4Nbqbin/GzgRUH+VjR5XSUDb7lTpJI3uk8Cawa3VXXv+EwC8D8Ad+gw1ek0CVRLQtjtVOkmj+ySwZnCvqbvP0qbXJEACWgJsp7TEmL8aAmsG95q6qykgGkoCJLAqAbZTq+Kn8pQE1gzuNXWnZErZJEAC7RBgO9VOWVbjyV4ADgXwaQCnb/1J+hAAsi/WsmZwr6k7Fj/KIQESaJsA26m2y7c47/YB8IWZWfKOBiB5YixrBveaumOwyynj/ACuBOCiOZVSFwmQgPp7JURGAosJyNn9XOc/dJoyCIhxJWCQ5/u72LGJA311DvkmRDS/6XYAPg7AnDb5GAD3A7BL897TQRJYn8DQ/vj+rm8xLaiWgFz29w20h0bw0lfXkC+Cym0iBpm+v9sO7CCxG4DnAzhnJh7+DcCeiVlcA8BrARw/GoT4lhnz+dfngZXc8jsSwEMylG/i8GlC/FAuvr9NOE0n1iFw1EyDPw7AT0UwcSzTtR5B5TYRLl3j/dsObDxxAQDv9YyDf0jI4oEAzvS0Y1xWXNd3/FPMPgfgMgnLmKLdBKbKZW6bWyJzkICFwGmKBlfyhi5zgTy1L1SfefyU/Llt5rGtpi8HQBr9OQ7mPumg900A40DH1QfTBqb9y2sJq89w1sgEEe4vUltm/pKZkwRGBHIHW259prtr6jbtKCV9EwA/UXT+A78Yt4JMBrsDOHaBHYM9/I0/IHiQWUBMZyWgjeesxlFZWwRyB1tufWZpranbtKOE9L0A/GZhp/viyA7sv9AObXkyv/9AQR4E5bIOAW2crmMltTZBIHew5dZnFtKauk071kzLk/zPDrzcLg8LxlwO5gDA+xaMNoaX5j8pZgFTloqAtsxUwpmZBEwCuYMtt741fTV1l5A+L4B3Ruhs7x7ZmQdHsEkbV8w/fzXgxMhlTHH+BLSx6S+ZOUlgRCB3sOXWZ7q7pm7TjjXSMpHTZyN0tPKFwb0jO8BbAPOdsTZuY+TnLYDIQa4Qpy0/hWhmJYEdCeQOttz6TG/X1G3akTv9BwB+GKHzlzkC7pzAeD4EWN4AgA8BJgh0T5G9tlOeeJgtJoHcwZZbn8lqTd2mHTnTdwHwywidv7z+d/+Ehh8Q+FyCtmyZ3z7o4GuACQPdQ7Q2Nj1EMgsJTBPIHWy59Zler6nbtENev3s8gOcCePjmvvy1zJ2R0vKw35MjdaonA7hNJLvmxMhEQGdEGKxoy5n5tw8G5DYRJwKai9L0+7TxmN4iamiWQO5gy63PLLg1dYsdVwbwSUsH9y4AFzONDUifB8CbLHq0DL4J4KoBtmgPvTqAwwEcx1kBs70ZcOpWXMrDmHtoC4z5oxPQ1tHoBlBgPwRyB1tufWZJrqlbOn95gG7Ohm9tOj+ZmS9kuRQAmbJ5To/vvo/xa4AhRcFjSWARAd/6OeRbpIQHkYAQGILI9zeUmq+eIV+oPvP4Qabvr3lsaFo+tuKj99sBU+1eZ+vM2UePK89reDYYWuQ8ngQWEXDVzfH+RUp4EAkIgXEwudZDqbnkj/eH6jOPH8t2rZvHhqRvruS8ZBBwRwCa7zrYfJfPAD8ixFkeSwIkEETAVjdt24OU8eC+CdiCyrY9lJZNrm17qD7zeJsO23bz2JD0E5UDALFHMwh4NICzF+gY+y33gv8sxFEeSwIkEExgXC9d68EKKaBfAq7gGu8PJTWW51oP1Wce79I13m8eG5J+wcLO2TUI2HNzu+CfF8oe+yof40nxNkIINx5LAj0SGNdN13qPjOhzJAKu4BrvD1U7ludaD9VnHu/SNd5vHhuSfkxAJ20bBMgbA/8dINf09QgAlwxxkMeSAAlEI2DWTZ90NMUU1B8BnwAz84QSMmX5pEP1mcf76DPzmMeGpK8b2FGPBwHyqpxsM21dmn4dgL1CnOOxJEACUQlo63JU5RTWF4HcwZZbn1maa+p+b2CHPQwCbr+ZPOgXgbKEgzwz8AQTDtMkQAJFEFiznSoCAI3IRyB3sOXWZ5JcU7dcYv9uYMct8/nLlLxaP8b5TwdwJxMM0yRAAsUQGNdX13oxhtOQ+gi4gmu8P9TDsTzXeqg+83iXrvF+89gY6csD+E6EDnxsp2ZdBhHycSAuJEACZRLQ1GfJy4UEFhMDf3cYAAAgAElEQVTIHWy59Zlg1tQ92LHmIODogEmGBvv5SwIkkJZACe1UWg8pvRgCuYMttz4T9Jq6TTvWGAS8A8B5TSOYJgESKJJAKe1UkXBoVFwCuYMttz6T1pq6TTsknWsQcM7WVwd3HRvAdRIggSIJlNROFQmIRsUjkDvYcuszSa2p27RjSKceBPxm87rgvQZl/CUBEqiCQGntVBXQaOQyArmDLbc+k8qauk07zHSqQcCPANzYVMQ0CZBAFQRKbKeqAEcj9QRyB1tufSaRNXWbdozTsQcBXwRwhbESrpMACVRBoNR2qgp4NFJHIHew5dZn0lhTt2nHVDrWIOADAC44pYDbSIAEqiBQcjtVBUAa6U8gd7Dl1meSWFO3aYctHToIeDGA2h/2u8bmAcnXAjgegHyaWFtmzN8Ps18DOGZTmQ4DcGFbpapwuzaGK3SRJpdCIHew5dZncl5Tt2nHXHrJIOC3AO47J7SSfQ+MNNOhtpyZv/5Bww8AXL+SOHeZqY1HlzzuJwErgdzBlluf6fiauk07XGnNIOBEALdyCaxg/4EA5JVFbRkxP5kNMfBjAJeuINZdJg7++P665HE/CVgJ+AbZkM8qyHPHIMf311OsVzZfnUM+L6GJMu3nMW3wlwFcMZH+nGJ3B3AsO38OfiLEwCtyBm4iXUP74/ubyAyK7YGAb5AN+UKZDHJ8f0P1mcf76hzymceukb44gLdOnBnLJf+XA7jAGkYl0Ll/hIZ/KDP+9n1F4GQAuyWI0ZwitTGc0zbqaoxA7mDLrc8srjV1m3Zo05cDcE8AhwC4KwD5smBLy8EcAPDsP2IM7Ft55ai1naoce5/m5w623PrMUl1Tt2kH0zsSeHDExl9bxszf3hWDfXYMr+rWtDFZnYM0uBwCuYMttz6T9Jq6TTtKScvzA4/fPEfwuq2/x630TAFvAbTXCWvrWqz8J/EWQCnNC+2ogYC24oX6lFufae+auk071k7LXAHPBnDGxJm3bHtW5vkE+BAgBwDaumnLz4cA125dqL8qAraKZNse6pxNrm17qD7zeJsO23bz2JbSr5zo+McMcjekB0w87Di2iescKMzFAF8DbKmVoi9ZCMxVqKl9oUZNyZzbFqrPPH5Oz9Q+89hW0rfz6PwHFrfJ7LRMBDR1VWKwh78cANhiQGaOvF7meE2lzuajbXsqOyi3AwK2oLJtD0Vik2vbHqrPPN6mw7bdPLaV9HsUA4B3r+D01QEcDuA4zgrINwMcsforAPLhq6cBuNAKsZpKpa09sm1PZQfldkDAFlS27aFIbHJt20P1mcfbdNi2m8e2kj7B0aiaLH7aitP0gwQqImDWQZ90Ra7R1NII+ASYmSfUflOWTzpUn3m8jz4zj3lsK2nNdLuSlwsJkEBeAmYb5JPOax21NUXAJ8DMPKHOm7J80qH6zON99Jl5zGNbSZv++aRb8Zt+kEAtBHzqpZmnFr9oZ4EEzEDySYe64KPDzBOqzzzelOuTNo9tJe3jt5mnFb/pBwnUQsCsfz7pWvyinQUS8AkwM0+oC6Ysn3SoPvN4H31mHvPYVtKmfz7pVvymHyRQCwGfemnmqcUv2lkgATOQfNKhLvjoMPOE6jOPN+X6pM1jW0n7+G3macVv+kECtRAw659Puha/aGeBBHwCzMwT6oIpyycdqs883kcf8+z4rrnJj2kSIIH0BLRtUHqLqKFZArmDLbc+s+C0upnfpMc0CZBADgLadieHTdTRKIHcwZZbn1lsWt3Mb9JjmgRIIAcBbbuTwybqaJRA7mDLrc8sNq1u5jfpMU0CJJCDgLbdyWETdTRKIHewnaaYie6UyMy1vjJ/5AKgOBIgAScBbbvjFMgMJGAjkDvYjlIMAD5lM3rhdq2vzL8QNA8jARJYTEDb7ixWxANJIHewHaIYADw0cvH8XKFby6XF/L+IzJ/iSIAE3AS0bYlbInOQgIVA7mDbC8DRHh2x5NnTYvPSzR/x0Kvl0XL+I5aC5nEkQAKLCWjblMWKeCAJrBFs+zgGAdL5S57Yy19wAKD6xOxBsQuA8kiABJwE1miTnUYxQ5sE1go2ObuXS/xyn18eDJS/I7e2xT7zN0vujRwEeA0C/gfAHiY4pkmABLIQWKtNzuIclZRFoLdgk8HFqzgImB0ESOd/6bLClNaQQDcEemuTuynYEh3tNdhuBuBNAH4A4CwOCCCvXMo9/wfxzL/EakqbOiLQa5vcURGX4yqDrZyyoCUkQAIkwDaZMZCNAIMtG2oqIgESIAEnAbbJTkTMEIsAgy0WScohARIggXACbJPDGVKCJwEGmycoZiMBEiCBDATYJmeATBXnEmCwMRJIgARIoBwCbJPLKYvmLWGwNV/EdJAESKAiAmyTKyqs2k1lsNVegrSfBEigJQJsk1sqzcJ9YbAVXkA0jwRIoCsCbJO7Ku51nWWwrcuf2kmABEjAJMA22aTBdFICDLakeCmcBEiABFQE2CarcDFzCAEGWwg9HksCJEACcQmwTY7Lk9JmCDDYZuBwFwmQAAlkJsA2OTPwntUx2HouffpOAiRQGgG2yaWVSMP2MNgaLly6RgIkUB0BtsnVFVm9BjPY6i07Wk4CJNAeAbbJ/mV6AQDXB3A3AE8C8FwArwbwBgBvB/AaAC/afOL82QAeCODWAC7nL779nAy29suYHpIACdRDgG2yvawuA+CeAF616fS/CkDLasj/cwDvBfBoAP8LwK52lW3vGYD4/rZNg96RAAmQwLoEfNviId+61qbXfmEA99nqsM8M6PQHXlO/PwDwYgC3SO9OWRqmYMxtK8t6WkMCJEACbRGYa3+n9rXl/XZvrra5XH84gN8k6vSnWMq2zwO4O4DdtpvSbsoGwba9XRL0jARIgATWJ2Bre23b17c4rgXXAfBuAGdn7vjHfL+z9dxA0wOBsdOu9bhFTWkkQAIkQAImAVcbPN5vHltzWi71y2X4VJf5x9x8148GcMuawc7Z7gthyDcni/tIgARIgATCCAxtre9vmLYyjpZL7iesfMY/x/scAK8DcKEycMWzYs7pqX3xNFMSCZAACZDAmMBUuzu3bXx8Tet7b531z/lX0r7jANysJsAuW7VwXfK4nwRIgARIYDmBXtrkawS+yqflFCv/GQAeubx4yzpSC6Us62kNCZAACbRFoIc2+cYAflbwJX+fMnhZC/MH+Dhq5mmrqtEbEiABEiiLgNne+qTLst5tzR0B/LLyzn8ol3dtZh88j9vlcnMMjvj+lusJLSMBEiCB+gn4tsVDvpo8lln8SnvKf+C49PcDm6mG96ipEExbtU6bxzJNAiRAAiQQl0CrbbJ0/mclOPOXJ/S/uTVToMz7/+StKX4fBuCJAF4A4J0AvrhZl/v3Wr4++V8PYJe4YZBHmo9zZp48VlELCZAACfRJwGxvfdI1UIrd+Z8E4J8AHAjgYgoA5wNwGwDPAyBP9Pvw9c3zfIUdxWT1dW7IV4zhNIQESIAEGiQwtLW+v6UjuFfEM/9PAbgLgD0jOC1n7PsD+PeIsw7eO4JdWUX4BtmQL6txVEYCJEACnREY2lrf35LxxOr8ZTa+WyV09OoA3hfhisBpAH4/oZ3RRfsG2ZAvugEUSAIkQAIksI3A0Nb6/m47sLBEjM5f3hZ4SMYP8/w5gOMDBwLyMaG9CisLqzm+QTbkswriDhIgARIggWACQ1vr+xusMIEAuRQe+sCfPLQnZ+a5F3mm4P8EDgIOy230Un2+QTbkW6qHx5EACZAACbgJDG2t769bYt4cMTr/9wI4b16zd9Amzwf8XcAg4FcA9ttBYqErvkE25CvUDZpFAiRAAk0QGNpa39+SnI7R+f8LgN0LcepQAPKaoW9ZmPlkkqDiF9Ngn3TxDtFAEiABEqiYgE87bOYpxdUYnf9rCpxe97ELBwBSRjcvpXBsdpiB5JO2yeF2EiABEiCBcAI+7bCZJ1xjuIT7RLjnX2LnP5CRCYZM5r5peZag6MXXkSFf0c7QOBIgARKonMDQ1vr+ru3u3SNM73t4gWf+Jle5JXHEgkGA3D64limotLRvkA35SrN/iT1SmPKKiszhfELAPZ6BSam/JwJ4PwD5+AYXEiCBOgho25M1vYpx5v/qSqbRvQKAny8YBPzzmgXk0l1TsLl88dkvhfjZBYWo5VRa/jfW/MEKn4JlHhJohIC27VjLbTnzD33VT6bz3XUtBxbole8LaMvnlM3Uw3sv0JXlEK0zWYxKpORCAL67oAC1jErNL9+v5kICJFA2AW37sYY3fx1h+txXVXLmb/KVq8fHLOhD7mwKKSldQ7DF4iUfgND621L+s0u/HxWroCmHBComoG1zcrvaa+c/cL7rgn5EvkZY5FJ6sMWE9p0FBaflU3r+Z8cESlkkQALRCWjbkOgGzAiMcdm/5Kf9Z1zftktuWcjnhzXldGpBcxtsc0QSGickb83LmQv81fIpPb98+YoLCZBAuQS0bUguT2Kc+b+iwsv+U3wftaAvudGUoLW3lRpsKbhofW0x/7tTgKVMEiCBaAS07U40xTOC7hvhnn/tZ/4mnssueABSBg3FLSUGWypIWl9bzM9bAKmii3JJIA4BbbsTR6tdSozO/+WNnPmblLTzAhT5HEBpwWYCjp3W+tpafj4EGDuiKI8E4hPQtjvxLdgu8W8infnLx3VaW56lvA3wpRIBlBRsqflofW0t/0tTA6Z8EiCBYALadidYoUVAjM5fXj1usfMXZLdTDgDkC4HFzXlQSrBZYjDqZq2vLeV/AycCihpLFEYCqQho250UdrDzd1OV5wC0ZbWvW2zeHFoH8loXV5vW19rzyzTH7wNwh7gYKY0ESCAhAW27E9uUGJ1/LdP7hrCTKxunKQcBNwxRmOLYtYMthU82mT35amPA7SRAAmUTWLOditH51zjD39KI+IZyALD/UkWpjlsz2FL5ZJPbk682BtxOAiRQNoG12qkYnb/Y/nkAFy0bcTTrtN+VKe5q7FrBFq0EFIJ68lWBhVlJgAQKIrBGO3W/CE/7m3Z/BsCFC2KaypT/Vl4BkGmEi1rMQvNJF2W80hgf/8w8SvHMTgIkQALBBMw2yCcdqjB25z/Y3MOVABnoDP76/PIKQGi0BhzvU0BmngBV1R56LQDyxoA8QCgsZA7rD2y98lKtUzScBCoiYLZBPukQ1+4f+cx/bG/rVwK+qhwA8BmAkGgNPHYcnK71QHXVHf5QAL+ZCeiXZHin9xoAXgvg+AVTbbrKk/unz1ZO3wzwjgTwEAB7Vhe17RmsjdOlBFKd+Y/tb/lKwC9m2ssxB1m/wdLCSnXclJFz21LZkUPunF9T+3LYVIIO+ca1fKRjisF425MSGvxAAPxgk185jMsl1vrnAFwmYRlTtJuAtizdEnfOkavzH3xpcRBwKc82c2AgvzJ3QFGLaZxPuijjlcb4+GfmUYqvMvtFAHxYEchyheASCTw9EMA5CjvMcmI67qBBLtvukaCMKdKPgDae/aRuz5X6sr/N/tZuB9xa2V7JlbbiZkW0FZZt+/Ywqi9l88m2vT4PdRb/HoCvK4NYWD1Ip8aZW65AHLvADlu5cXv4gCB2GTuDgBm2EdDG77YDPRK5z/zHvrR0JeCpyjbrCx7lkz3LuIBc69kNjKjQ5dt4f0TVxYmS0etJygAe+LwosjfyYMwgm79lsPh45DKmOH8C2jrgK/kBER74ez2AEwPraytXAj6q5PA234LKmS9VsOX0wVdXT77OMflbAGcog9dk949zwhfsOzjAFtMupuMNHmRwyGUdAto49rEyxpn/UO+vu3lg9GeBdbb2KwEXX/C80qE+BZU7T4pgy+2Dr76efJ1ishuAFwZWXGEo3wePuTw4gk3asmX++cGCnOVxWYeANjZdVsY485d2w1xkENDzlYCDFrRZ1zMBlpKOHWyl+DVlR0++jv2/AID3LwjaMTP5+EXsGb54C2C+Mx6XQY513gIY16B869rynbMsxgN/485/0NfzlQC5gqEpJ3ldUE7Ails0TkjempeefDXLaT8AxygD1sZKztZjL3wIUNeY2Mom5nY+BBg7yv3lacvRJllu9Z0dWO//wSZ8a3uPVwJuv4Dpmx0cV9sdK9hWc0ChuCdfByw3B/DTBQE7xeqwQWiC3wP4GqDqjGKqfGJt42uACQJcIVJbjlOipfMPfa3W1fkPensaBMhrfDJplraM7jjAKu1X60hp9mvsKcFXCaAbb6bYfSSAZwCQirqvxglF3ns7Zvbz5SHv/t9HoXdpVpkIKOThRF9/mM/egMnXzTgR0NIIjnOcNj7HWlNe9h/rGtZ7uR0g7aC2fE4ueYZNrTNDgdf4u7avMs3tURMBdBYA+Yb23pGg7roJuL+b0KP1X/LLNwHkKkKu5eoADgdw3IKnbJf4x2PO/d7DJzdXiuT2DicAyhXpdj3amDQlySA69Mz/BaZARbr1KwHy5P+PFrSrMstqsUtIsBXrlMWwNX29DgDXvNGfjvCA3fkAvGtBkE6xkecGrmhhyc0kQAJpCEzVxbltgxUxzvx9L/sPOse/rV4JkCu371nQrsrJnUy4VuwyF1hT+4p1xMOwKX/mtnmI9MoiT3/6fjXqfwIGAZcDoH061ea/vDFwQS/vmIkESCAmAVudtG0X3THO/J8fyYkWrwQ8fkHnL+X19khMk4mxBZVtezJDMgi2+WTbHsskecDNpmNq+5JBwI0WXp6a0i8TfhT5ykqsAqEcEiiYwFSdnNsmb2yEXvb/+8g8WhoE3GMhXymTG0bmGl3cXGBN7YtuQEaBU/7MbYtlmkydO6dnap9mEHA3AL9aoGOsVx7AkzMJLiRAAusRGNdL13ppnf9AroVBwJ8D+O3CtvWNA4iSf13BNd5fsi8u28a+uNZd8nz3v2FhALkGAXJfSj5IEdoACAeZ+lW+D8CFBEhgXQKudinm/qUP/PkSqvmZgD8B8OuFbfepJX76d6rQtME0JaOWbWv5Kg/WaHUP+W2DgPMAeEuA3EG+/MoXAYt+UKWWAKOdJBCBgFk3U6afF8FWHxE1Xgm4Q+Ar1I/1AVNCHm2AlWDzUhvW8lVGklrdZv7xIODSAOSNATPP0vSHAVxkKVAeRwIkEJ3A0rqsOS5X5y9w5E0iea1XY99U3lxfEQzt/I8AILObVrFMgZ7bVoVTFiPn/JraZxGj3izv5X8usAIMgwD5oMT3A2UNvr6ypkBVU+cBJFAngaF+pvpNfdnfpH75zSRi343UXgmP1F8RDLnsL/b9HIBMvV7Nog2yahybMHRNX+USe+jXs74MQD7Go/VjnF/eTT1kgg83kQAJrE9gXF9jrj83o3ty5v+9CO3V2P9UVwL+LPCyvzyLdaeMfKOoGsN1rUdRupIQl2/j/bHNjPFAzNhG7bo8nCJPtnIhARIok4C2Tvvmj/Wevw+12Gf+Yx9jXwkIPfMX+57gA6a0PGOwrvXS7NfY4/JtvF8j2zfvmoOA7wC4pq+hzEcCJLAKgXE7FGO9pc5/4BFrECBf91v6tP9gi9xOrXIZHPD9rdLJLaN9fRzypfJ1jUGAzPV+yVQOUS4JkEA0AkP7E+tXvguSa0l12d/GIvR2wJ8GXvYXu962+bCbPOdV5WIDa9tepZNbRtt8sm1P6WvOQYB8i1peG+RCAiRQPgFbe7Rke+wZ/ubopb7sb/N/6ZWAGGf+/1b7B7RsUG3b5wKg9H02n2zbU/uTehAgD6UcltoJyicBEohKwNYeabf30PkPTLSDAHb+WyE7APT9jRrpmYX5+jjky2FeqkGAvC3wFzkcoA4SIIGoBIb2J+T32VEtmhcW47L/tyK8JeV7OyDGA3/yxdUmPp2tDbL5UCh7b6m+xh4E/KCGj1CUHSq0jgRWIXBohNfmnpXR8hid/zcB7ANA2sHQV6Vdg4AYnf+7W+n8JU5K7RRTxHDJvsYaBHwKgMwUyIUESKAuAjG+6pdzhr8Y9/yHzn8oqRjtoO12wO0iPO0vn0nfazC2hd+SO8XYfEv3NTT45WnUvWNDyyzvGgBeC+B4ADJhkbbMmL8fZvLq1jGb+JTnXC6cOU5jqzsowke9au/8B6ah7aC0AeNBADv/ge7oV9tgjg6varUGX5cEvzzsJzN8ydcBa17kU8RnstPnoGdBDMhtr+tXGvwPZ+e/U8ktaQfH7fswCGDnvxPe7RvG0Fzr24+sL+Xybbx/LQ81wS9nQfdcy9CIeg+M0AiOy4/r/VwNkLL+cYW3v2J0/s+MWA9domLe83fpku+ehD4TINOnh07y8+8A9nQZW+t+bSNZq59id02++gT/DwH8Qc0FsmW7fDnr2AXloy1P5tfXgdqYvaKi+iCdfyjfnHP7p7jn7youzclQKMup45u75z8GPuX03Lbx8TWtz/k1tW9t364CQGbwm7LtvQAuu7aBkfTvb/Fxym9um44HcjmXy8kAdosUlynFsPP3p7vWIOADrT3wN4Vc23BMyahlW62+3nTrQxMy2n80gOvUAtzTzoM5AJgc5GnjlfnPHQTs6xl3a2Vj568nn3sQ0EXnL8WgbTT0RVfOET35Wg51tyUPXhCH2rJkfn1dr5WZvFNe6vKICLHe+mV/W9nlGgR00/kLaG0ltxVODdt78tWnPC4I4O6btweevvUnadmWe+EtAH091MZyL/lPKvgWADv/8JYl9SCgq85fikPbMIQX4XoSevLVRVkmHZH7pWMmsk1ex8u58CHAncthXC5c92NU6kOAMTr/p2WslGs88OfrXqpBQHedvwDXNiy+hVRivp58neP/ZI9yf9KcgAT7DuBrgOq6qI3n1vOX+hogO//4DUbsQYB0/l1+MVXbKMQvynwSe/LVRvVGnh2tTC6U+xVDufJwhsfgRFuOzK8f6NfGTGaOlFdnS1seFSGec57553zPP7SspLzllk9orMobVU1N76sBq4WnkV1a3p58tbF/i6LCvMkmJOH2qwM4HMBxnBUwuGHTxntt+X8F4IubeJYO8kIJY3Kp6Ecq6pqNfc7Ov+TL/lNl8Iebt6JOD2T8H72e+Q9AbYFn2z4cV+OvzSfb9hp9dNn8I0WFkYmGuJAACegJsPPXM9Mcwc5fQ2smr63zs22fEVX8LptPtu3FO7TAwLMVAwD5GA8XEiABHYEYl/2fqlMZlJtn/kH46j7Y1vnZttfsrc0n2/aafbXZbvPVtt0mh9tJgAR2JsDOf2cmMbfwzD8mTcXZ4NBBRFafVdzgg+9vVuMyKfP1fciXySyqIYHqCbDzT1uE0vmftqDPGtoy+e3+nv+4iEw4Punx8TWt+/hn5qnJN19bTf980r5ymY8EeibAzj9t6d8yQuf/wd4f+JsqIp9OwMwzJaOWbaYfPula/NLY6eO3mUcjm3lJoEcC8n0Os84sST8lI7ja7vmz808YHNpgTWhKctFaX5k/eZFQAQlUTYCdf9riY+eflq965JrYnKTi2aHrz1SSFgiFk0DFBNj5py08dv5p+f5OurZTzGBSMhVaX5k/WVFQMAlUTYCdf9rii9H5f4j3/N2FpO3k3BLLzaH1lfnLLUtaRgJrEXhMhHv+8j2OXEuP9/zZ+XtGl7aT8xRbZDatr8xfZDHSKBJYjQA7/7TobxHhaX92/ooy0nZyCtHFZdX6yvzFFSENIoHVCLDzT4uenX9avpPStZ3cpJBKNp4a4dKdllfN+WXSDS4kQALAYyO0Hbzsb4+kWJ3/3nYV3DNFQNtBTcmoZdsnI1RiLa+a8/9PLQVLO0kgIYEYnf+TEto3Fl3bPX92/uMSzLiu7aAymhZd1X04AFC99vmI6CVAgSRQFwF2/mnLi51/Wr5O6T0NAHYB8D4OArwGAV/mKzTOusMMbRNg55+2fKXzD70t+58AeNk/oJx6GgAIpvMCeBMHAbODgGMA7BcQUzyUBGon8LgIbQQv+9uj4Obs/O1wcu7pbQAwsL01gLcB+CGAsyNUdi3H0vKfDkDu+ctl//MMkPhLAh0SYOefttDZ+aflq5Ku7YhUwpmZBEiABCoiEKPzf2JGf2t74I+df8bg8FHFAYAPJeYhARJonQA7/7QlzM4/Ld9F0jkAWISNB5EACTREgJ1/2sKM0fn/N4DzpTWzP+kcAPRX5vSYBEhgO4HDIjwDxMv+23mOU+z8x0QKWucAoKDCoCkkQAJZCcTo/J+Q0eLa7vnfLMLT/jzzTxhgHAAkhEvRJEACxRJg55+2aNj5p+UbRToHAFEwUggJkEBFBJ4e4bI/z/ztBR6r8z+/XQX3xCDAAUAMipRBAiRQCwF2/mlLKkbn/3EA7PzTltPvpHMAkAEyVZAACRRBIEbn//iMnvR4z5+df8YA4wAgI2yqIgESWI0AO/+06OXM/5TAWyvs/NOW0U7SOQDYCQk3kAAJNEbgGYEdk7STPPO3B8VN2fnb4ZS8hwOAkkuHtpEACYQSYOcfSnD+eHb+83yK3ssBQNHFQ+NIgAQCCMTo/GWWwFxLbff82fnnioxEejgASASWYkmABFYlENr5nwPgYRk9YOefETZVnUuAAwBGAgmQQGsEnhl4z5+d/3xExDjz/wRf9ZuHnGMvBwA5KFMHCZBALgLs/NOSZueflm9W6RwAZMVNZSRAAgkJxOj8D01o31h0bZf9bwjg5MCrKzzzH0fBiuscAKwIn6pJgASiEXhWYMckl/3Z+duLg52/nU21ezgAqLboaDgJkMAWAXb+aUOBnX9avqtJ5wBgNfRUTAIkEIEAO/8IEGdExOr8LzCjg7tWIsABwErgqZYESCCYADv/YISzAmJ0/kcAYOc/i3m9nRwArMeemkmABJYTeHaEe/6HLFevPrK2B/5uEOGBP3b+6jDJewAHAHl5UxsJkEA4AXb+4QznJEjnf1LgAIud/xzhQvZxAFBIQdAMEiABLwLs/L0wLc7Ezn8xuvoO5ACgvjKjxSTQKwF2/mlLnp1/Wr7FSecAoLgioUEkQAITBP4u8JK0vOf/0Am5qTbVeM+fl/1TRUOhcmUiLAgAABlRSURBVDkAKLRgaBYJkMA2Auz8t6FIkohx5v9JPu2fpGySCuUAICleCicBEggkwM4/EKDj8OtHeOCPnb8Dcqm7OQAotWRoFwmQwHN42T9pELDzT4q3fOEcAJRfRrSQBHokEKPzf0hGcLXd82fnnzE4SlXFAUCpJUO7SKBfAuz805Y9O/+0fKuRzgFANUVFQ0mgCwLs/NMWc6zO/4JpzaT0HAQ4AMhBmTpIgAR8CDw3wj1/Xva3k5bO/8RAxvLAHzt/O+Oq9nAAUFVx0VgSaJLALgBeFNgxyXv+B2ekU9s9/+tF6PyPZOefMcIyqOIAIANkqiABErASYOdvRRNtBzv/aCjbEsQBQFvlSW9IoCYC7PzTlxY7//SMq9XAAUC1RUfDSaBqAtL5v5iX/ZOWITv/pHjrF84BQP1lSA9IoDYC7PzTlxg7//SMq9fQ4wBgLwCHAvg0gNMDz0C0/ErNLxyExyEAhA8XEkhFgJ1/KrLb5cbo/D+7uUJzke0imWqRgLZDqp3BPgC+wE4fc+V+NADhxIUEYhOQzv8lgfWPT/vPlwo7/3k+3GsQmOsIpvYZh1aXlDNbdv6Y7fyHMpdBAK8EVBfiRRscq/N/cEYve3zVj2f+GQNsbVVDg+/7u7a9Ifrlsr+vn8yX99vpIeXKY8snwM4/fRnxzD894+Y0aDu6mgEcxQGAagD0qZoLm7YXQ4Cdf/qiuG6ESX545p++nIrT0NMA4DQOAFQDAOHFhQRCCEjn/9LAeif3/HnZ314K0vn/LJDx5/jAnx1wy3t6GgBofWX+liOfvqUmEKvzPyi1oYb82u75x+r8L2owYLIjAtpOrmY0Wl+Zv+bSpu1rEmDnn54+O//0jJvXoO3kagai9ZX5ay5t2r4WAXb+6cmz80/PuAsN2k6uZihaX5m/5tKm7WsQkM7/ZYH3o+WePy/720uPnb+dDfcoCWg7OaX4orJrfWX+ooqPxhROIFbn/6CMftZ2z/86kR744z3/jEFWsiptJ1eyLy7btL4yv4so95PAuQRidP5nA7hvRqA9dv6f38zEyM4/Y5CVrkrbyZXuz5x9Pflq40AGNjLcvpSAdP4vD7zsL53/Xy81YMFx7PwXQOMh7RHoqUPoyVdbpJKBjQy3LyHAzn8JNd0xVwfw48ABFs/8dcy7yd1Th9CTr7YAJgMbGW5fQuBVgR1T7jP//Ta3Gb4XaPM3M34s69oATgi0lzP8LYnsTo7pqUPoyVdb+JKBjQy3awk8IrBjYuc/T5yd/zwf7o1AoKcOoSdfbaFBBjYy3K4hIA+SnRowADgLwH00CgPz8sw/ECAPb5NATx1CT77aopUMbGS4XUPgYYGdPx/4s9O+WqR7/hezq+AeEjiXQE8dQk++2uK7dAbXAPBaAMcDkLNErb3Mr2d2OoAjN++XPwTAnrbAGW2X+8pLWMtlf575j2Aaq9cC8NOFbIfy4Id9DKBMzhMYgsb3d15a2Xt9fRzyle3NMusG33x/l2lZdtQDAZwZ2Pj5+sV80x24dB6XcRSfPJUewu9JDvmxdtf2ql+MM/+jN19f5Jl/rAjqQI62IteMpCdfbeVUKoMDAcgUsFr7mD8+s88A2MMWQACeE6GcUg8C2PnPFCB3kcBAQNuADsfV+NuTr7byKZHB7ptJYI6N0KlofWN+++DBNh3vrgC+H6msUg0Cauz8fxTIlGf+thaP22cJaBvBWWGF7+zJV1tRlMhg/8DGT+sT89s7/oHNxy0B9EeRyyr2IICdv6XguJkEpggMFd73d0pGLdt8fRzy1eKXxs7BN99fjeyleQ+O3Kn4+sZ89oHASZbClAc0Y3N7nEWXdnNtr/rJA68/icCTc/trI4X5txHQVuZtB1aY6MlXW/GUyODBERpBrV/MP9+RnzgRQHsD+EWisgq9ElDbmf9VAYRe9h9ieKKouIkE/AgMQeT76ye1zFy+Pg75yvQizKrBN9/fMG1+R/MWwHxn7FtWMfNN3QK4R6LOf7B76SCg585f2HEhgcUEhsrn+7tYUQEH+vo45CvA5OgmDL75/kY3YEIgHwIsbwAw9RDgfyQeAEhMagcBvXf+wowLCSwm4NsRDPkWKyrgwMEH398CTI5ugq/vQ77oBlgEHsDXAKPfWx/KUPs79RrgJTPO0eA7CGDnf+7A0VKluJkE3AS0jYNbYrk5evLVVgolM5CJgM7IcJapZdBTfpnhb2oioNAP/2gZugYB7Py3XzWy1XVuJwEnAW3FdAosOENPvtqKoXQGMsvc4QCOy3jGqWXSWn75qM8nN1PQysOYtgmA5HvyGr9jzOhoezugtqf9JaZ/rOSnYW2r69xOAk4CmkCTvDUvPflqKycysJHhdhsBeV1NGzevBCAduPa4cf7xlYAaz/x/GIHDmIu5bis3bicBJwEzkHzSToEFZ/Dxz8xTsCuLTTP980kvVsQDmyHwvAUd2M22vI85CGDnPz2gaibQ6Eh+Aj6dgJknv4XxNJp++KTjaS5Hko/fZp5yLKclaxCQqX/ly4xmTLjS3wawi2HsYcrjp+TLIOR7gXK+CWAfw66UyRgf9pniMLUtpR+U3TiBqYCa21Yzjjm/pvbV7KvN9ik/57bZ5HB7HwRus6DTfdoEmhhXAubi1LUvZ+f/+wBSX/Y3/Z3AzU0k4EfADCSftJ/UMnP5+GfmKdOLMKtM/3zSYdp4dO0EXrdgACAd4NSy1iCg5c5f6jAXElhMwKcTMPMsVlTAgaYfPukCTI5ugo/fZp7oBlBgNQTOB+A05QBA3iaYW2LcDjDj05XO2fnHmN73i0re4j8XElhMwFWBxvsXKyrgwLEvrvUCTI5ugsvn8f7oBlBgNQTutaAzOsjDu1xXAnJ2/jEu+0vnf/EFzD2QMwsJTBMYN/iu9WkpdWx1+TbeX4dXOivHPrrWddKZuyUCH1J2Rr8FcDFPAKkHAbV1/l8FcOktdq46Od7viZzZSGBnAuNgcq3vLKGeLS7fxvvr8czf0rGPrnV/yczZEgGZDfAs5QDg35QAUg0Cau78BaGrTo73K7EzOwlsJzAOJtf69iPrS7l8G++vz0O3xWMfXetuiczRIoFHL+iI/mIBiNiDgJyd/+9FeNrfPPMf8Lnq5Hj/cBx/SUBNYBxMrnW1goIOcPk23l+Q6dFMGfvoWo+mmIKqIqB9GO0kAHst9DDWICB35/+DBYMks759zbjsb6Iz8/ikzWOZJgEVAZ8AM/OohBeW2fTDJ12Y+VHM8fHbzBNFKYVUReA6Czq2lwd6GOPtgOcE2uB7eIwH/o4BcAmLQrP++aQtYriZBNwEfALMzOOWWG4O0w+fdLmeLLfMx28zz3JNPLJWAs9fMAC4SQRnY1wJeHIEO+ZEyGX/VGf+g16z/vmkh+P4SwJqAj4BZuZRKyjoANMPn3RBpkczxcdvM080xRRUBYElU/9+azT1b4ijJQ8CcnT+ws6sfz7pEN48tnMCPgFm5qkZl+mHT7pmX222+/ht5rHJ4fY2CdxuQQf0lMgoShwExOr85e0K12LWP5+0Sx73k4CVgE+AmXmsgirYYfrhk67AJbWJPn6bedQKeEDVBN6gHACcA+BKCTwuaRCQs/MXlGb980knwE+RvRDwCTAzT81cTD980jX7arPdx28zj00Ot7dHYMnUv59IiKGEQUDuzl9wmvXPJ52wCCi6dQI+AWbmqZmH6YdPumZfbbb7+G3msclJtf0aAF679Qla7UQ0pt1M6zuSJcwemCoQtuTGeDvg8QttvMqCTyGPGX4FwKWU+scyXOtK8cxOAtsJuIJrvH/7kfWlxr641uvz0G2xy+fxfrfEeDmkMzlzwRnQ2Gau5+n8fw3gIvGK3yppjUHAWp2/QNDGrxUcd5CAi0BPwdaTr7ZyL5XBgQDkfrLWPuZfj9k7bEGWYHvOQcCanb+g08Z0AtwU2QuBnoKtJ19t8Vsig90BHLug4dP6wvz6zmWO2QG2IEu0Pccg4MoRLvvL9L7ay/4msjnmU/vMY5kmARWBqYCa26YSXljmOb+m9hVmfhRzpvyc2xZFqUPI/uz81Wd9c2WWY9/PAOzhKNcUu1MOAqTz/35gLE7N7a/loC0/rXzmJ4FtBHoKtp583VbAo0SJDB4c2OhqfWL+8CsBpwC40Si2cq2mGASU0vkLQ2185uJOPQ0S6CnYevLVFqolMuAAQN/oa8sxRf5fALixLdASb4/5iuAVItyC+jqAy0byWVtWkdRSTI8Eegq2nny1xXKJDHgLoM4BgMTSzyu/EvCCCJf9bV/1s9VB1/YS66jLZu6vlEBPwdaTr7ZwLJEBHwKsdwAg8VT7IEBbJ8z80vn7TO9rq49T2035PukpGdxGAl4EfALMzOMltNBMph8+6ULdCDLLx28zT5AyxcHyRDlfA6x3INDjICBF5y9Vxqx/PmlFNWNWEtiRgE+AmXl2PLquNdMPn3Rd3vlZ6+O3mcdPapxcMhHQGQsaQNNepvUdSCxmPQ0C5J5/7DP/oRZpy2M4jr8koCbQU7D15KstEEpncHUAhwM4jrMCqs8EtWWbIn8Pg4CUnb/UW2252Oo6t5OAk0BPwdaTr7aCJwMbmf62f3RBZ+MTP7W/HTDn4zciPu1vi7g5/VP7bHK4nQScBKYCam6bU2DBGeb8mtpXsCuLTZvyc27bYkU8sGgC+wI4O9EAQOJpzSsB/5DIr5iv+s0Fx1x9nNo3J4v7SGCWwFRAzW2bFVb4zjm/pvYV7s4i86b8nNu2SAkPKp6AfCFvrtxj7Mt5JWAvAHcE8HYAv03g2zcB7JOpVLXsM5lFNS0S6CnYevLVFqtkYCPT1/ZjEnSSU7GVehBww80XCV8M4ISE/uTs/CUKpzjObesrcultVAJzgTW1L6ryzMKm/Jnbltm8LOrm/J3al8UoKslKQDrNqbJOtS32IODyAGQmQOmYU9k8yM3d+UsgDLp9f7MGD5W1RcA3yIZ8NXs/+OD7W7OvNtt9fR/y2eRwe70EXrSgk5F33oeYWPIb+kzARQAcBOCIjPNFrNH5S1Rp+dYbibR8dQI9BZvWV+ZfPTxpQGQCMuvij5WdjHzh7nwA/q/yuHH90V4J2G3T4d8GwOsB/DJQ99gW1/panb8Ut8u28f7IIUJxPREYB5NrvWY2Lt+4f+fGp+bypu07E7jDgg5GHhiUJdcgYLiv/9MFtsaow2t2/sJZ68O5pcP/JLCAQE/BpvWV+RcEFA8pmsBblB2MvCoo99yH5QIAPqmUMa5HU7cDrrh5LfEpAOQ9+3H+nOtfyvi0/8B0/Kv1d3w810nAm0BPwab1lfm9w4gZKyBwQQC/UnawH5vwK9YgQC7v/y2Aj2e8r2+r06cCeO7WVY4Jl7Nustlo257VOCpri4AtqGzba/be5hO328+6ai5v2r4jgfsrO3+pF/fdUcS2tRi3A9aud3J1Qx4qlG9QnH+bZ+sntFzWt5gWVEugp2DT+sr81YY1DZ8goH2IT64WXGhCzrCp1kHAVzYOHAbgCoMjhf1q253CzKc5NRHoKdhOW3AGpOXTUv5Tagpk2jpLQO7ja6f+fdOsxHN31jII+OHWhEE38PBp7SzaNmRte6m/YgI9BdtRHACoHrD6VMVxTdN3JPCkBbH/JzuKsK6VOgj49dbUwDJFsLz+WMvSU5tcS5k0a2dPwXbIgkZQy6el/A9tNur7c0w7kY/MFeDbaUq+vyrk881nAfhPAPcu7L6+JuK0bYhGNvOSwA4Eego2+WDI0RwEeF0FEE577hApXKmVwI0WxPwLPZy95taT8z9ZIF/b7rjyD/f19/Owu/QsLl/H+0v3h/YVTGAcTK71gl3xMk2+6MVBgP2pfyl/4ZPry2dehcZMQQResqCDvr5Fo8TFwwqpQycCeDWAW1hsrXWzqw0e76/VT9pdAIFxMLnWCzA52AQ5s5XL23KPmw8GnjsYEA5HbnHhmX9wiBUjQC7Pa8/Q5WzaXPYGcFcA7wUgl9hdbUTK/eZ9/T1MIxtKa/k15DpdyU2AwZabOPWRQD4C8gCcto4/FsCuxjz8aw+Szff1ZRKi1hdtebXOg/4lJMBgSwiXoklgZQJvXzAAeNuCDwZp2xGf/F/e+uzv5VZmmFu9DxszT277qK8hAmYg+aQbcp2ukEDTBGQSH+3Uvz5tQMo8JzV6X18TaFq+GtnMSwI7EGCw7YCDKyTQDAGZZ19bv9fIL/f15fkCec6g1fv6mqDSloFGNvOSwA4EGGw74OAKCTRDQD6yo63fufKb9/XlI0VcthPQlsH2I5kiASUBBpsSGLOTQAUEZJ77cwocAMiERDIP/5UqYLiWiWyT1yLfoV4GW4eFTpebJ/CUgjp/3tfXhRvbZB0v5g4gwGALgMdDSaBQAl9feQDwG97XXxwZbJMXo+OBWgIMNi0x5ieBsgnceMXO/7NbMwVerGxERVvHNrno4mnLOAZbW+VJb0jgxZkHAHJfX742KM8dcAknwDY5nCEleBJgsHmCYjYSqIRAjm9dnGy8r79LJVxqMZNtci0l1YCdDLYGCpEukIBB4JREVwB6mIffwLhakm3yauj7U8xg66/M6XHbBI6NOACQVwllPgGZVOjCbWMrxju2ycUURfuGMNjaL2N62BeB10cYAHwPwHMBXKUvdEV4yza5iGLowwgGWx/lTC/7IXBTADLTnrZunwjgZQBu0g+qIj3VlluRTtCoOggw2OooJ1pJAhoCz/QcAMj7+u8EcCCAPTUKmDcZAbbJydBS8JgAg21MhOskUD8BeTL/YQCkgx/Xcbmvf8Tmk78PAnCR+l1tzoNxebnWmwNAh/IROGuigZgLuN3ymUZNJEACgQRkQp6HbDp6mRvg5QAO4jz8gUTTHr6Xsj2WNzO4kMBiAtpXhvjlrsWoeSAJkAAJzBK4uHIA8NNZadxJAg4CP1AG3OUc8ribBEiABEhgGQF562LuCux437eWqeFRJHAuAZnGcxxUc+u3IDgSIAESIIEkBP5U2R7Ltxe4kMBiAh9RBtz9FmvigSRAAiRAAnMEHq5sj982J4z7SMBF4BXKgJMHibiQAAmQAAnEJyAd+twV2PG+p8c3gRJ7IiCvCo2Dam79Kz3Boa8kQAIkkImAvLr5E2V7fI9MtlFNowRuqww4eYf4io2yoFskQAIksBYBmYFx7uRrat811zKWetsgcD4Av1UGnnz7mwsJkAAJkEA8AnJ7daqTt22TqwX8FHM8/t1KklnBbEE2tV1ePdm1W1p0nARIgATiEpATMfkWw1R7a9v25rgmUFqvBJ6hDDwJyLv0Cot+kwAJkEBkAo9a0AbzjazIhdCruOsvCL6jeRWg13Ch3yRAAhEJXGDzXYYfK9tg+cYDv+MQsRB6F/VFZQDKVQD5mAgXEiABEiCB5QResKDtfcdydTySBHYm8JgFQXgSgMvsLIpbSIAESIAEPAjcAMAZC9reAzxkMwsJeBO4FIBfLQjEj/JWgDdjZiQBEiCBgYB8WE0eqLY95Gfb/m0Auw9C+EsCsQi8dEEwSpA+J5YBlEMCJEACHRCQz6q/Z2F7+4AO+NDFFQjsu2BOgGGUKnNYcyEBEiABEpgnIO/u/9PCzv/7APacF8+9JLCcgHYyimEAcDaAQ5ar5ZEkQAIk0DwBOfN/zcLOX9ra+zZPiA6uSkBeLTkhIEDldoAEORcSIAESIIHtBOSe/9LL/tL5f4Iz/22HyVQ6AjLKHM7sl/zKg4F8OyBd+VAyCZBAXQTkaf8lD/wN7e+ZAK5dl8u0tlYCco/qQ4GDAHlF8CC+IVBrCNBuEiCBCARkkh95z3/Jq35D5y+/T4lgC0WQgDeBSwL4UeAgQAL3CwDuyoGAN3dmJAESqJ+AzO3/yAUz/Jmd/pD+MNvP+gOiRg9uBeCsCIMACWS5/CWj2CvXCII2kwAJkICDgFw5lU/6vmzzQLRcAR068JBfOQmTOVq4kMAqBA6OFMhmJfgGgFcBkPdZ/xCAvH7Iea1XKV4qJQESUBKQ1/AuCuCqAP4EgLwC/VYAP43cVp6yeWhQvtPChQRWJXBY5MA2BwNMxzlTIEdyZAy0EwO/BXC7VVt9KicBg8DSWQLZKLXTKLEsWZaMgfQxIF/6+0uj7WWSBIog8DheCYhyX4+NaPpGlIzJuMYYOA3A7Yto7WkECUwQkGcCYj0YWGMFpc3sWBgDjIEUMSAP/PGe/0Snw01lEdgfwA95NYBXAxgDjAHGQJQY+BgnTyurk6M18wRknoAPsvJHqfwpziYok2epjIHyY0Bm+JPXo3edb265lwTKIyDvvd5nM+PfTzgQ4ECAMcAYYAyoYkDm9uf0vuX1a7RISUDe4ZfJL+TVFZ51kAFjgDHAGLDHgHzSV763IidQXEigGQIyY9VzAfySAwEOhBgDjAHGwA4xcCyAh23ayPM00+LTERKYICDPBzwKwBfZAOzQAPCsyH5WRDZk02IMyDv97wRwAIDdJ9pKbiKBpglcd+OdzCT4cd4i4GCAA0LGQAcxIM9EvRnA/TjFedN9G51TEpAvZP3x5kMZhwB4OQD5ytVXNxVF7omdDOCcDhqHFs9y6BPP3nuKATmrPwHAdwAcBeBtAJ4J4B4ArqlsE5mdBEiABEiABEiABEiABEiABEiABEiABEiABEiABEiABEiABEiABEiABEiABEiABEiABEiABEiABEiABEigFwL/HysFnONdYMIeAAAAAElFTkSuQmCC;" parent="1" vertex="1">
          <mxGeometry x="170" y="390" width="20" height="20" as="geometry" />
        </mxCell>
      </root>
    </mxGraphModel>
  </diagram>
  <diagram id="DEEa2lhUluYfiC7Of0yc" name="Chat-Architecture-modified">
    <mxGraphModel dx="1603" dy="943" grid="1" gridSize="10" guides="1" tooltips="1" connect="1" arrows="1" fold="1" page="1" pageScale="1" pageWidth="850" pageHeight="1100" math="0" shadow="0">
      <root>
        <mxCell id="0" />
        <mxCell id="1" parent="0" />
        <mxCell id="audioInput" value="Audio Input" style="rounded=1;whiteSpace=wrap;html=1;fillColor=#dae8fc;strokeColor=#6c8ebf;" vertex="1" parent="1">
          <mxGeometry x="10" y="415" width="110" height="40" as="geometry" />
        </mxCell>
        <mxCell id="53dQ5ZpIKp3Lm3V2Fb3R-26" value="" style="edgeStyle=orthogonalEdgeStyle;rounded=0;orthogonalLoop=1;jettySize=auto;html=1;" edge="1" parent="1" source="speechRecognition" target="llm">
          <mxGeometry relative="1" as="geometry" />
        </mxCell>
        <mxCell id="speechRecognition" value="ASR&lt;div&gt;&lt;i&gt;furhat.listen()&lt;/i&gt;&lt;/div&gt;" style="rounded=1;whiteSpace=wrap;html=1;" vertex="1" parent="1">
          <mxGeometry x="150" y="410" width="80" height="50" as="geometry" />
        </mxCell>
        <mxCell id="gameState" value="Game-State (t-1)" style="rounded=1;whiteSpace=wrap;html=1;fillColor=#D0E0FC;strokeColor=#000000;" vertex="1" parent="1">
          <mxGeometry x="300" y="510" width="100" height="30" as="geometry" />
        </mxCell>
        <mxCell id="llm" value="LLM&lt;div&gt;&lt;i&gt;GPT-3.5-turbo&lt;/i&gt;&lt;/div&gt;" style="rounded=1;whiteSpace=wrap;html=1;" vertex="1" parent="1">
          <mxGeometry x="285" y="410" width="105" height="50" as="geometry" />
        </mxCell>
        <mxCell id="arrow1" style="edgeStyle=orthogonalEdgeStyle;rounded=1;strokeColor=#000000;" edge="1" parent="1" source="audioInput" target="speechRecognition">
          <mxGeometry relative="1" as="geometry" />
        </mxCell>
        <mxCell id="53dQ5ZpIKp3Lm3V2Fb3R-29" style="edgeStyle=orthogonalEdgeStyle;rounded=0;orthogonalLoop=1;jettySize=auto;html=1;entryX=0.25;entryY=0;entryDx=0;entryDy=0;" edge="1" parent="1" source="53dQ5ZpIKp3Lm3V2Fb3R-8" target="llm">
          <mxGeometry relative="1" as="geometry" />
        </mxCell>
        <mxCell id="53dQ5ZpIKp3Lm3V2Fb3R-8" value="Facial Expression Prompt" style="rounded=1;whiteSpace=wrap;html=1;fillColor=#dae8fc;strokeColor=#6c8ebf;" vertex="1" parent="1">
          <mxGeometry x="185" y="330" width="100" height="40" as="geometry" />
        </mxCell>
        <mxCell id="53dQ5ZpIKp3Lm3V2Fb3R-11" value="" style="edgeStyle=orthogonalEdgeStyle;rounded=1;strokeColor=#000000;" edge="1" parent="1" source="llm" target="53dQ5ZpIKp3Lm3V2Fb3R-5">
          <mxGeometry relative="1" as="geometry">
            <mxPoint x="450" y="435" as="sourcePoint" />
            <mxPoint x="610" y="370" as="targetPoint" />
          </mxGeometry>
        </mxCell>
        <mxCell id="53dQ5ZpIKp3Lm3V2Fb3R-32" value="" style="edgeStyle=orthogonalEdgeStyle;rounded=0;orthogonalLoop=1;jettySize=auto;html=1;" edge="1" parent="1" source="53dQ5ZpIKp3Lm3V2Fb3R-5" target="53dQ5ZpIKp3Lm3V2Fb3R-31">
          <mxGeometry relative="1" as="geometry">
            <Array as="points">
              <mxPoint x="600" y="455" />
              <mxPoint x="600" y="455" />
            </Array>
          </mxGeometry>
        </mxCell>
        <mxCell id="53dQ5ZpIKp3Lm3V2Fb3R-5" value="SSML Modified Text" style="rounded=1;whiteSpace=wrap;html=1;fillColor=#fff2cc;strokeColor=#d6b656;" vertex="1" parent="1">
          <mxGeometry x="440" y="446.25" width="100" height="30" as="geometry" />
        </mxCell>
        <mxCell id="53dQ5ZpIKp3Lm3V2Fb3R-44" value="" style="edgeStyle=orthogonalEdgeStyle;rounded=0;orthogonalLoop=1;jettySize=auto;html=1;" edge="1" parent="1" source="53dQ5ZpIKp3Lm3V2Fb3R-18" target="53dQ5ZpIKp3Lm3V2Fb3R-33">
          <mxGeometry relative="1" as="geometry">
            <Array as="points">
              <mxPoint x="570" y="410" />
              <mxPoint x="570" y="410" />
            </Array>
          </mxGeometry>
        </mxCell>
        <mxCell id="53dQ5ZpIKp3Lm3V2Fb3R-18" value="Facial Expressions" style="rounded=1;whiteSpace=wrap;html=1;fillColor=#fff2cc;strokeColor=#d6b656;" vertex="1" parent="1">
          <mxGeometry x="440" y="400.63" width="120" height="26.25" as="geometry" />
        </mxCell>
        <mxCell id="53dQ5ZpIKp3Lm3V2Fb3R-20" value="" style="edgeStyle=orthogonalEdgeStyle;rounded=1;strokeColor=#000000;entryX=0;entryY=0.5;entryDx=0;entryDy=0;exitX=1;exitY=0.5;exitDx=0;exitDy=0;" edge="1" parent="1" source="llm" target="53dQ5ZpIKp3Lm3V2Fb3R-18">
          <mxGeometry relative="1" as="geometry">
            <mxPoint x="450" y="430" as="sourcePoint" />
            <mxPoint x="600" y="475" as="targetPoint" />
          </mxGeometry>
        </mxCell>
        <mxCell id="53dQ5ZpIKp3Lm3V2Fb3R-30" style="edgeStyle=orthogonalEdgeStyle;rounded=0;orthogonalLoop=1;jettySize=auto;html=1;entryX=0.926;entryY=0.01;entryDx=0;entryDy=0;entryPerimeter=0;" edge="1" parent="1" source="53dQ5ZpIKp3Lm3V2Fb3R-27" target="llm">
          <mxGeometry relative="1" as="geometry">
            <mxPoint x="440" y="400" as="targetPoint" />
          </mxGeometry>
        </mxCell>
        <mxCell id="53dQ5ZpIKp3Lm3V2Fb3R-27" value="Prosody Generation Prompt" style="rounded=1;whiteSpace=wrap;html=1;fillColor=#dae8fc;strokeColor=#6c8ebf;" vertex="1" parent="1">
          <mxGeometry x="300" y="330" width="110" height="40" as="geometry" />
        </mxCell>
        <mxCell id="53dQ5ZpIKp3Lm3V2Fb3R-39" value="" style="edgeStyle=orthogonalEdgeStyle;rounded=0;orthogonalLoop=1;jettySize=auto;html=1;" edge="1" parent="1" source="53dQ5ZpIKp3Lm3V2Fb3R-31" target="53dQ5ZpIKp3Lm3V2Fb3R-38">
          <mxGeometry relative="1" as="geometry" />
        </mxCell>
        <mxCell id="53dQ5ZpIKp3Lm3V2Fb3R-31" value="&amp;nbsp;TTS&lt;div&gt;&lt;i&gt;furhat.says()&lt;/i&gt;&lt;/div&gt;" style="rounded=1;whiteSpace=wrap;html=1;" vertex="1" parent="1">
          <mxGeometry x="590" y="433.75" width="90" height="42.5" as="geometry" />
        </mxCell>
        <mxCell id="53dQ5ZpIKp3Lm3V2Fb3R-37" value="" style="edgeStyle=orthogonalEdgeStyle;rounded=0;orthogonalLoop=1;jettySize=auto;html=1;" edge="1" parent="1" source="53dQ5ZpIKp3Lm3V2Fb3R-33" target="53dQ5ZpIKp3Lm3V2Fb3R-36">
          <mxGeometry relative="1" as="geometry" />
        </mxCell>
        <mxCell id="53dQ5ZpIKp3Lm3V2Fb3R-33" value="Gesture Gen.&lt;br&gt;&lt;div&gt;&lt;i&gt;furhat.gesture()&lt;/i&gt;&lt;/div&gt;" style="rounded=1;whiteSpace=wrap;html=1;" vertex="1" parent="1">
          <mxGeometry x="590" y="393.13" width="90" height="33.75" as="geometry" />
        </mxCell>
        <mxCell id="53dQ5ZpIKp3Lm3V2Fb3R-36" value="Expressive Facial Expressions" style="rounded=1;whiteSpace=wrap;html=1;fillColor=#fff2cc;strokeColor=#d6b656;" vertex="1" parent="1">
          <mxGeometry x="710" y="366.885" width="120" height="60" as="geometry" />
        </mxCell>
        <mxCell id="53dQ5ZpIKp3Lm3V2Fb3R-38" value="Expressive Speech&amp;nbsp;" style="rounded=1;whiteSpace=wrap;html=1;fillColor=#fff2cc;strokeColor=#d6b656;" vertex="1" parent="1">
          <mxGeometry x="710" y="433.755" width="120" height="60" as="geometry" />
        </mxCell>
        <mxCell id="53dQ5ZpIKp3Lm3V2Fb3R-52" value="" style="endArrow=classic;startArrow=classic;html=1;rounded=0;exitX=0.5;exitY=0;exitDx=0;exitDy=0;" edge="1" parent="1" source="gameState">
          <mxGeometry width="50" height="50" relative="1" as="geometry">
            <mxPoint x="300" y="510" as="sourcePoint" />
            <mxPoint x="350" y="460" as="targetPoint" />
          </mxGeometry>
        </mxCell>
      </root>
    </mxGraphModel>
  </diagram>
</mxfile>
